<svg version="1.1" viewBox="0.0 0.0 600.0 371.0" fill="none" stroke="none" stroke-linecap="square" stroke-miterlimit="10" width="600" height="371" xmlns:xlink="http://www.w3.org/1999/xlink" xmlns="http://www.w3.org/2000/svg"><path fill="#ffffff" d="M0 0L600.0 0L600.0 371.0L0 371.0L0 0Z" fill-rule="nonzero"/><path stroke="#cccccc" stroke-width="1.0" stroke-linecap="butt" d="M191.5 51.5L191.5 300.5" fill-rule="nonzero"/><path stroke="#cccccc" stroke-width="1.0" stroke-linecap="butt" d="M288.5 51.5L288.5 300.5" fill-rule="nonzero"/><path stroke="#cccccc" stroke-width="1.0" stroke-linecap="butt" d="M386.5 51.5L386.5 300.5" fill-rule="nonzero"/><path stroke="#cccccc" stroke-width="1.0" stroke-linecap="butt" d="M483.5 51.5L483.5 300.5" fill-rule="nonzero"/><path stroke="#cccccc" stroke-width="1.0" stroke-linecap="butt" d="M581.5 51.5L581.5 300.5" fill-rule="nonzero"/><path stroke="#333333" stroke-width="1.0" stroke-linecap="butt" d="M94.5 300.5L581.5 300.5" fill-rule="nonzero"/><path stroke="#cccccc" stroke-width="1.0" stroke-linecap="butt" d="M94.5 238.5L581.5 238.5" fill-rule="nonzero"/><path stroke="#cccccc" stroke-width="1.0" stroke-linecap="butt" d="M94.5 176.5L581.5 176.5" fill-rule="nonzero"/><path stroke="#cccccc" stroke-width="1.0" stroke-linecap="butt" d="M94.5 114.5L581.5 114.5" fill-rule="nonzero"/><path stroke="#cccccc" stroke-width="1.0" stroke-linecap="butt" d="M94.5 51.5L581.5 51.5" fill-rule="nonzero"/><clipPath id="id_0"><path d="M94.55 51.916668L581.45 51.916668L581.45 300.45L94.55 300.45L94.55 51.916668Z" clip-rule="nonzero"/></clipPath><path stroke="#4285f4" stroke-width="2.0" stroke-linecap="butt" clip-path="url(#id_0)" d="M94.55 100.03508L95.03787 104.87011L95.52575 98.08608L96.013626 88.62007L96.5015 102.152954L96.98938 95.13183L97.47726 95.96094L97.96513 100.23229L98.453 99.15658L103.331764 97.62505L108.21052 92.277794L113.08928 93.78093L117.96803 94.72529L142.36182 85.509796L191.1494 77.82844L239.93698 80.763374L288.72455 79.27323L337.51212 78.56199L581.45 81.763405" fill-rule="nonzero"/><path stroke="#ea4335" stroke-width="2.0" stroke-linecap="butt" clip-path="url(#id_0)" d="M94.55 106.32148L95.03787 106.30533L95.52575 103.51778L96.013626 76.81598L96.5015 99.73348L96.98938 104.93448L97.47726 102.20229L97.96513 100.35749L98.453 99.21635L103.331764 99.002174L108.21052 88.22881L113.08928 94.184235L117.96803 94.01038L142.36182 82.81719L191.1494 88.46772L239.93698 87.451904L288.72455 88.049934L337.51212 86.95676L581.45 82.04046" fill-rule="nonzero"/><path fill="#000000" fill-opacity="0.0" clip-path="url(#id_0)" d="M97.55 100.03508C97.55 101.69193 96.206856 103.03508 94.55 103.03508C92.89314 103.03508 91.55 101.69193 91.55 100.03508C91.55 98.37823 92.89314 97.03508 94.55 97.03508C96.206856 97.03508 97.55 98.37823 97.55 100.03508Z" fill-rule="nonzero"/><path fill="#000000" fill-opacity="0.0" clip-path="url(#id_0)" d="M98.03787 104.87011C98.03787 106.52696 96.69473 107.87011 95.03787 107.87011C93.38102 107.87011 92.03787 106.52696 92.03787 104.87011C92.03787 103.21326 93.38102 101.87011 95.03787 101.87011C96.69473 101.87011 98.03787 103.21326 98.03787 104.87011Z" fill-rule="nonzero"/><path fill="#000000" fill-opacity="0.0" clip-path="url(#id_0)" d="M98.52575 98.08608C98.52575 99.742935 97.18261 101.08608 95.52575 101.08608C93.8689 101.08608 92.52575 99.742935 92.52575 98.08608C92.52575 96.42923 93.8689 95.08608 95.52575 95.08608C97.18261 95.08608 98.52575 96.42923 98.52575 98.08608Z" fill-rule="nonzero"/><path fill="#000000" fill-opacity="0.0" clip-path="url(#id_0)" d="M99.013626 88.62007C99.013626 90.276924 97.67048 91.62007 96.013626 91.62007C94.35677 91.62007 93.013626 90.276924 93.013626 88.62007C93.013626 86.96322 94.35677 85.62007 96.013626 85.62007C97.67048 85.62007 99.013626 86.96322 99.013626 88.62007Z" fill-rule="nonzero"/><path fill="#000000" fill-opacity="0.0" clip-path="url(#id_0)" d="M99.5015 102.152954C99.5015 103.809814 98.158356 105.152954 96.5015 105.152954C94.84465 105.152954 93.5015 103.809814 93.5015 102.152954C93.5015 100.4961 94.84465 99.152954 96.5015 99.152954C98.158356 99.152954 99.5015 100.4961 99.5015 102.152954Z" fill-rule="nonzero"/><path fill="#000000" fill-opacity="0.0" clip-path="url(#id_0)" d="M99.98938 95.13183C99.98938 96.78868 98.64623 98.13183 96.98938 98.13183C95.33253 98.13183 93.98938 96.78868 93.98938 95.13183C93.98938 93.474976 95.33253 92.13183 96.98938 92.13183C98.64623 92.13183 99.98938 93.474976 99.98938 95.13183Z" fill-rule="nonzero"/><path fill="#000000" fill-opacity="0.0" clip-path="url(#id_0)" d="M100.47726 95.96094C100.47726 97.61779 99.13411 98.96094 97.47726 98.96094C95.820404 98.96094 94.47726 97.61779 94.47726 95.96094C94.47726 94.304085 95.820404 92.96094 97.47726 92.96094C99.13411 92.96094 100.47726 94.304085 100.47726 95.96094Z" fill-rule="nonzero"/><path fill="#000000" fill-opacity="0.0" clip-path="url(#id_0)" d="M100.96513 100.23229C100.96513 101.889145 99.62199 103.23229 97.96513 103.23229C96.30827 103.23229 94.96513 101.889145 94.96513 100.23229C94.96513 98.57544 96.30827 97.23229 97.96513 97.23229C99.62199 97.23229 100.96513 98.57544 100.96513 100.23229Z" fill-rule="nonzero"/><path fill="#000000" fill-opacity="0.0" clip-path="url(#id_0)" d="M101.453 99.15658C101.453 100.81343 100.10986 102.15658 98.453 102.15658C96.79615 102.15658 95.453 100.81343 95.453 99.15658C95.453 97.499725 96.79615 96.15658 98.453 96.15658C100.10986 96.15658 101.453 97.499725 101.453 99.15658Z" fill-rule="nonzero"/><path fill="#000000" fill-opacity="0.0" clip-path="url(#id_0)" d="M106.331764 97.62505C106.331764 99.281906 104.98862 100.62505 103.331764 100.62505C101.67491 100.62505 100.331764 99.281906 100.331764 97.62505C100.331764 95.9682 101.67491 94.62505 103.331764 94.62505C104.98862 94.62505 106.331764 95.9682 106.331764 97.62505Z" fill-rule="nonzero"/><path fill="#000000" fill-opacity="0.0" clip-path="url(#id_0)" d="M111.21052 92.277794C111.21052 93.934654 109.86738 95.277794 108.21052 95.277794C106.553665 95.277794 105.21052 93.934654 105.21052 92.277794C105.21052 90.62094 106.553665 89.277794 108.21052 89.277794C109.86738 89.277794 111.21052 90.62094 111.21052 92.277794Z" fill-rule="nonzero"/><path fill="#000000" fill-opacity="0.0" clip-path="url(#id_0)" d="M116.08928 93.78093C116.08928 95.43778 114.74613 96.78093 113.08928 96.78093C111.43243 96.78093 110.08928 95.43778 110.08928 93.78093C110.08928 92.12407 111.43243 90.78093 113.08928 90.78093C114.74613 90.78093 116.08928 92.12407 116.08928 93.78093Z" fill-rule="nonzero"/><path fill="#000000" fill-opacity="0.0" clip-path="url(#id_0)" d="M120.96803 94.72529C120.96803 96.38214 119.62489 97.72529 117.96803 97.72529C116.31118 97.72529 114.96803 96.38214 114.96803 94.72529C114.96803 93.068436 116.31118 91.72529 117.96803 91.72529C119.62489 91.72529 120.96803 93.068436 120.96803 94.72529Z" fill-rule="nonzero"/><path fill="#000000" fill-opacity="0.0" clip-path="url(#id_0)" d="M145.36182 85.509796C145.36182 87.16666 144.01868 88.509796 142.36182 88.509796C140.70497 88.509796 139.36182 87.16666 139.36182 85.509796C139.36182 83.85294 140.70497 82.509796 142.36182 82.509796C144.01868 82.509796 145.36182 83.85294 145.36182 85.509796Z" fill-rule="nonzero"/><path fill="#000000" fill-opacity="0.0" clip-path="url(#id_0)" d="M194.1494 77.82844C194.1494 79.4853 192.80626 80.82844 191.1494 80.82844C189.49254 80.82844 188.1494 79.4853 188.1494 77.82844C188.1494 76.171585 189.49254 74.82844 191.1494 74.82844C192.80626 74.82844 194.1494 76.171585 194.1494 77.82844Z" fill-rule="nonzero"/><path fill="#000000" fill-opacity="0.0" clip-path="url(#id_0)" d="M242.93698 80.763374C242.93698 82.42023 241.59383 83.763374 239.93698 83.763374C238.28012 83.763374 236.93698 82.42023 236.93698 80.763374C236.93698 79.106514 238.28012 77.763374 239.93698 77.763374C241.59383 77.763374 242.93698 79.106514 242.93698 80.763374Z" fill-rule="nonzero"/><path fill="#000000" fill-opacity="0.0" clip-path="url(#id_0)" d="M291.72455 79.27323C291.72455 80.930084 290.3814 82.27323 288.72455 82.27323C287.0677 82.27323 285.72455 80.930084 285.72455 79.27323C285.72455 77.61637 287.0677 76.27323 288.72455 76.27323C290.3814 76.27323 291.72455 77.61637 291.72455 79.27323Z" fill-rule="nonzero"/><path fill="#000000" fill-opacity="0.0" clip-path="url(#id_0)" d="M340.51212 78.56199C340.51212 80.21884 339.16898 81.56199 337.51212 81.56199C335.85526 81.56199 334.51212 80.21884 334.51212 78.56199C334.51212 76.905136 335.85526 75.56199 337.51212 75.56199C339.16898 75.56199 340.51212 76.905136 340.51212 78.56199Z" fill-rule="nonzero"/><path fill="#000000" fill-opacity="0.0" clip-path="url(#id_0)" d="M584.45 81.763405C584.45 83.420265 583.1069 84.763405 581.45 84.763405C579.79315 84.763405 578.45 83.420265 578.45 81.763405C578.45 80.10655 579.79315 78.763405 581.45 78.763405C583.1069 78.763405 584.45 80.10655 584.45 81.763405Z" fill-rule="nonzero"/><path fill="#000000" fill-opacity="0.0" clip-path="url(#id_0)" d="M97.55 106.32148C97.55 107.97834 96.206856 109.32148 94.55 109.32148C92.89314 109.32148 91.55 107.97834 91.55 106.32148C91.55 104.66463 92.89314 103.32148 94.55 103.32148C96.206856 103.32148 97.55 104.66463 97.55 106.32148Z" fill-rule="nonzero"/><path fill="#000000" fill-opacity="0.0" clip-path="url(#id_0)" d="M98.03787 106.30533C98.03787 107.96218 96.69473 109.30533 95.03787 109.30533C93.38102 109.30533 92.03787 107.96218 92.03787 106.30533C92.03787 104.648476 93.38102 103.30533 95.03787 103.30533C96.69473 103.30533 98.03787 104.648476 98.03787 106.30533Z" fill-rule="nonzero"/><path fill="#000000" fill-opacity="0.0" clip-path="url(#id_0)" d="M98.52575 103.51778C98.52575 105.17463 97.18261 106.51778 95.52575 106.51778C93.8689 106.51778 92.52575 105.17463 92.52575 103.51778C92.52575 101.86092 93.8689 100.51778 95.52575 100.51778C97.18261 100.51778 98.52575 101.86092 98.52575 103.51778Z" fill-rule="nonzero"/><path fill="#000000" fill-opacity="0.0" clip-path="url(#id_0)" d="M99.013626 76.81598C99.013626 78.47283 97.67048 79.81598 96.013626 79.81598C94.35677 79.81598 93.013626 78.47283 93.013626 76.81598C93.013626 75.15913 94.35677 73.81598 96.013626 73.81598C97.67048 73.81598 99.013626 75.15913 99.013626 76.81598Z" fill-rule="nonzero"/><path fill="#000000" fill-opacity="0.0" clip-path="url(#id_0)" d="M99.5015 99.73348C99.5015 101.39034 98.158356 102.73348 96.5015 102.73348C94.84465 102.73348 93.5015 101.39034 93.5015 99.73348C93.5015 98.07663 94.84465 96.73348 96.5015 96.73348C98.158356 96.73348 99.5015 98.07663 99.5015 99.73348Z" fill-rule="nonzero"/><path fill="#000000" fill-opacity="0.0" clip-path="url(#id_0)" d="M99.98938 104.93448C99.98938 106.59133 98.64623 107.93448 96.98938 107.93448C95.33253 107.93448 93.98938 106.59133 93.98938 104.93448C93.98938 103.277626 95.33253 101.93448 96.98938 101.93448C98.64623 101.93448 99.98938 103.277626 99.98938 104.93448Z" fill-rule="nonzero"/><path fill="#000000" fill-opacity="0.0" clip-path="url(#id_0)" d="M100.47726 102.20229C100.47726 103.859146 99.13411 105.20229 97.47726 105.20229C95.820404 105.20229 94.47726 103.859146 94.47726 102.20229C94.47726 100.54544 95.820404 99.20229 97.47726 99.20229C99.13411 99.20229 100.47726 100.54544 100.47726 102.20229Z" fill-rule="nonzero"/><path fill="#000000" fill-opacity="0.0" clip-path="url(#id_0)" d="M100.96513 100.35749C100.96513 102.01434 99.62199 103.35749 97.96513 103.35749C96.30827 103.35749 94.96513 102.01434 94.96513 100.35749C94.96513 98.70064 96.30827 97.35749 97.96513 97.35749C99.62199 97.35749 100.96513 98.70064 100.96513 100.35749Z" fill-rule="nonzero"/><path fill="#000000" fill-opacity="0.0" clip-path="url(#id_0)" d="M101.453 99.21635C101.453 100.87321 100.10986 102.21635 98.453 102.21635C96.79615 102.21635 95.453 100.87321 95.453 99.21635C95.453 97.559494 96.79615 96.21635 98.453 96.21635C100.10986 96.21635 101.453 97.559494 101.453 99.21635Z" fill-rule="nonzero"/><path fill="#000000" fill-opacity="0.0" clip-path="url(#id_0)" d="M106.331764 99.002174C106.331764 100.65903 104.98862 102.002174 103.331764 102.002174C101.67491 102.002174 100.331764 100.65903 100.331764 99.002174C100.331764 97.34532 101.67491 96.002174 103.331764 96.002174C104.98862 96.002174 106.331764 97.34532 106.331764 99.002174Z" fill-rule="nonzero"/><path fill="#000000" fill-opacity="0.0" clip-path="url(#id_0)" d="M111.21052 88.22881C111.21052 89.88567 109.86738 91.22881 108.21052 91.22881C106.553665 91.22881 105.21052 89.88567 105.21052 88.22881C105.21052 86.57196 106.553665 85.22881 108.21052 85.22881C109.86738 85.22881 111.21052 86.57196 111.21052 88.22881Z" fill-rule="nonzero"/><path fill="#000000" fill-opacity="0.0" clip-path="url(#id_0)" d="M116.08928 94.184235C116.08928 95.84109 114.74613 97.184235 113.08928 97.184235C111.43243 97.184235 110.08928 95.84109 110.08928 94.184235C110.08928 92.52738 111.43243 91.184235 113.08928 91.184235C114.74613 91.184235 116.08928 92.52738 116.08928 94.184235Z" fill-rule="nonzero"/><path fill="#000000" fill-opacity="0.0" clip-path="url(#id_0)" d="M120.96803 94.01038C120.96803 95.66724 119.62489 97.01038 117.96803 97.01038C116.31118 97.01038 114.96803 95.66724 114.96803 94.01038C114.96803 92.35353 116.31118 91.01038 117.96803 91.01038C119.62489 91.01038 120.96803 92.35353 120.96803 94.01038Z" fill-rule="nonzero"/><path fill="#000000" fill-opacity="0.0" clip-path="url(#id_0)" d="M145.36182 82.81719C145.36182 84.474045 144.01868 85.81719 142.36182 85.81719C140.70497 85.81719 139.36182 84.474045 139.36182 82.81719C139.36182 81.16033 140.70497 79.81719 142.36182 79.81719C144.01868 79.81719 145.36182 81.16033 145.36182 82.81719Z" fill-rule="nonzero"/><path fill="#000000" fill-opacity="0.0" clip-path="url(#id_0)" d="M194.1494 88.46772C194.1494 90.12457 192.80626 91.46772 191.1494 91.46772C189.49254 91.46772 188.1494 90.12457 188.1494 88.46772C188.1494 86.81087 189.49254 85.46772 191.1494 85.46772C192.80626 85.46772 194.1494 86.81087 194.1494 88.46772Z" fill-rule="nonzero"/><path fill="#000000" fill-opacity="0.0" clip-path="url(#id_0)" d="M242.93698 87.451904C242.93698 89.10876 241.59383 90.451904 239.93698 90.451904C238.28012 90.451904 236.93698 89.10876 236.93698 87.451904C236.93698 85.795044 238.28012 84.451904 239.93698 84.451904C241.59383 84.451904 242.93698 85.795044 242.93698 87.451904Z" fill-rule="nonzero"/><path fill="#000000" fill-opacity="0.0" clip-path="url(#id_0)" d="M291.72455 88.049934C291.72455 89.70679 290.3814 91.049934 288.72455 91.049934C287.0677 91.049934 285.72455 89.70679 285.72455 88.049934C285.72455 86.39308 287.0677 85.049934 288.72455 85.049934C290.3814 85.049934 291.72455 86.39308 291.72455 88.049934Z" fill-rule="nonzero"/><path fill="#000000" fill-opacity="0.0" clip-path="url(#id_0)" d="M340.51212 86.95676C340.51212 88.61362 339.16898 89.95676 337.51212 89.95676C335.85526 89.95676 334.51212 88.61362 334.51212 86.95676C334.51212 85.299904 335.85526 83.95676 337.51212 83.95676C339.16898 83.95676 340.51212 85.299904 340.51212 86.95676Z" fill-rule="nonzero"/><path fill="#000000" fill-opacity="0.0" clip-path="url(#id_0)" d="M584.45 82.04046C584.45 83.69731 583.1069 85.04046 581.45 85.04046C579.79315 85.04046 578.45 83.69731 578.45 82.04046C578.45 80.383606 579.79315 79.04046 581.45 79.04046C583.1069 79.04046 584.45 80.383606 584.45 82.04046Z" fill-rule="nonzero"/><path fill="#000000" d="M312.45312 346.075L312.45312 345.075L316.07812 345.0594L316.07812 348.2469Q315.25 348.91876 314.35938 349.2625Q313.46875 349.59064 312.53125 349.59064Q311.26562 349.59064 310.21875 349.0594Q309.1875 348.5125 308.65625 347.4969Q308.14062 346.46564 308.14062 345.2Q308.14062 343.9344 308.65625 342.85626Q309.1875 341.7625 310.17188 341.2469Q311.15625 340.71564 312.4375 340.71564Q313.375 340.71564 314.125 341.0125Q314.875 341.3094 315.29688 341.85626Q315.73438 342.3875 315.95312 343.2625L314.9375 343.54376Q314.73438 342.8875 314.4375 342.5125Q314.15625 342.1375 313.625 341.91876Q313.09375 341.6844 312.45312 341.6844Q311.67188 341.6844 311.09375 341.91876Q310.53125 342.15314 310.17188 342.54376Q309.82812 342.9344 309.64062 343.40314Q309.3125 344.2 309.3125 345.1219Q309.3125 346.27814 309.70312 347.0594Q310.10938 347.825 310.85938 348.2Q311.60938 348.575 312.46875 348.575Q313.20312 348.575 313.90625 348.29376Q314.60938 347.9969 314.96875 347.6844L314.96875 346.075L312.45312 346.075ZM317.28125 349.45L317.28125 343.23126L318.23438 343.23126L318.23438 344.16876Q318.59375 343.5125 318.89062 343.3094Q319.20312 343.09064 319.57812 343.09064Q320.10938 343.09064 320.65625 343.41876L320.29688 344.40314Q319.90625 344.16876 319.53125 344.16876Q319.17188 344.16876 318.89062 344.3875Q318.625 344.59064 318.51562 344.96564Q318.32812 345.52814 318.32812 346.1844L318.32812 349.45L317.28125 349.45ZM320.90625 346.34064Q320.90625 344.60626 321.85938 343.77814Q322.65625 343.09064 323.8125 343.09064Q325.09375 343.09064 325.90625 343.9344Q326.73438 344.7625 326.73438 346.2469Q326.73438 347.45 326.375 348.1375Q326.01562 348.825 325.3125 349.21564Q324.625 349.59064 323.8125 349.59064Q322.51562 349.59064 321.70312 348.7625Q320.90625 347.91876 320.90625 346.34064ZM321.98438 346.34064Q321.98438 347.52814 322.5 348.1219Q323.03125 348.71564 323.8125 348.71564Q324.60938 348.71564 325.125 348.1219Q325.64062 347.52814 325.64062 346.3094Q325.64062 345.15314 325.10938 344.5594Q324.59375 343.96564 323.8125 343.96564Q323.03125 343.96564 322.5 344.5594Q321.98438 345.1375 321.98438 346.34064ZM332.375 349.45L332.375 348.52814Q331.64062 349.59064 330.39062 349.59064Q329.84375 349.59064 329.35938 349.3875Q328.89062 349.16876 328.65625 348.85626Q328.42188 348.52814 328.32812 348.0594Q328.26562 347.7625 328.26562 347.075L328.26562 343.23126L329.32812 343.23126L329.32812 346.6844Q329.32812 347.4969 329.39062 347.79376Q329.48438 348.2 329.79688 348.45Q330.125 348.6844 330.60938 348.6844Q331.07812 348.6844 331.48438 348.45Q331.90625 348.2 332.07812 347.77814Q332.26562 347.35626 332.26562 346.5594L332.26562 343.23126L333.3125 343.23126L333.3125 349.45L332.375 349.45ZM335.29688 351.84064L335.29688 343.23126L336.25 343.23126L336.25 344.02814Q336.59375 343.5594 337.01562 343.325Q337.45312 343.09064 338.0625 343.09064Q338.85938 343.09064 339.46875 343.4969Q340.07812 343.90314 340.375 344.65314Q340.6875 345.40314 340.6875 346.29376Q340.6875 347.2469 340.34375 348.0125Q340.01562 348.77814 339.35938 349.1844Q338.70312 349.59064 337.98438 349.59064Q337.45312 349.59064 337.03125 349.3719Q336.60938 349.1375 336.34375 348.8094L336.34375 351.84064L335.29688 351.84064ZM336.25 346.3719Q336.25 347.575 336.73438 348.15314Q337.21875 348.71564 337.90625 348.71564Q338.60938 348.71564 339.10938 348.1219Q339.60938 347.52814 339.60938 346.27814Q339.60938 345.09064 339.125 344.5125Q338.64062 343.91876 337.95312 343.91876Q337.28125 343.91876 336.76562 344.54376Q336.25 345.16876 336.25 346.3719ZM345.04688 346.6844L346.10938 346.59064Q346.1875 347.2469 346.46875 347.65314Q346.75 348.0594 347.32812 348.325Q347.92188 348.575 348.65625 348.575Q349.29688 348.575 349.79688 348.3875Q350.29688 348.1844 350.53125 347.85626Q350.78125 347.5125 350.78125 347.1219Q350.78125 346.71564 350.54688 346.41876Q350.3125 346.10626 349.78125 345.90314Q349.42188 345.7625 348.23438 345.48126Q347.0625 345.2 346.59375 344.95Q345.96875 344.6219 345.67188 344.15314Q345.375 343.66876 345.375 343.075Q345.375 342.4344 345.73438 341.8719Q346.10938 341.29376 346.8125 341.0125Q347.53125 340.71564 348.39062 340.71564Q349.34375 340.71564 350.07812 341.02814Q350.8125 341.325 351.20312 341.9344Q351.59375 342.52814 351.625 343.27814L350.53125 343.35626Q350.4375 342.54376 349.92188 342.1375Q349.42188 341.71564 348.4375 341.71564Q347.40625 341.71564 346.9375 342.09064Q346.46875 342.46564 346.46875 342.9969Q346.46875 343.46564 346.79688 343.7625Q347.125 344.0594 348.5 344.3719Q349.89062 344.6844 350.40625 344.91876Q351.15625 345.27814 351.51562 345.8094Q351.875 346.325 351.875 347.02814Q351.875 347.71564 351.48438 348.325Q351.09375 348.91876 350.35938 349.2625Q349.625 349.59064 348.70312 349.59064Q347.53125 349.59064 346.73438 349.2625Q345.95312 348.91876 345.5 348.23126Q345.0625 347.54376 345.04688 346.6844ZM353.29688 342.075L353.29688 340.85626L354.35938 340.85626L354.35938 342.075L353.29688 342.075ZM353.29688 349.45L353.29688 343.23126L354.35938 343.23126L354.35938 349.45L353.29688 349.45ZM355.73438 349.45L355.73438 348.59064L359.70312 344.04376Q359.01562 344.075 358.5 344.075L355.96875 344.075L355.96875 343.23126L361.0625 343.23126L361.0625 343.91876L357.6875 347.8719L357.03125 348.59064Q357.75 348.54376 358.35938 348.54376L361.25 348.54376L361.25 349.45L355.73438 349.45ZM366.54688 347.45L367.64062 347.575Q367.39062 348.52814 366.6875 349.0594Q365.98438 349.59064 364.90625 349.59064Q363.54688 349.59064 362.73438 348.7469Q361.9375 347.90314 361.9375 346.3875Q361.9375 344.825 362.75 343.96564Q363.5625 343.09064 364.84375 343.09064Q366.09375 343.09064 366.875 343.9344Q367.67188 344.77814 367.67188 346.325Q367.67188 346.41876 367.67188 346.60626L363.03125 346.60626Q363.09375 347.6375 363.60938 348.1844Q364.125 348.71564 364.90625 348.71564Q365.48438 348.71564 365.89062 348.41876Q366.3125 348.10626 366.54688 347.45ZM363.09375 345.7469L366.5625 345.7469Q366.5 344.95 366.17188 344.5594Q365.65625 343.95 364.85938 343.95Q364.125 343.95 363.625 344.4344Q363.14062 344.91876 363.09375 345.7469Z" fill-rule="nonzero"/><path fill="#000000" d="M29.550013 204.07396L21.971888 204.07396L21.971888 206.90208L20.956263 206.90208L20.956263 200.08958L21.971888 200.08958L21.971888 202.93333L29.550013 202.93333L29.550013 204.07396ZM22.175013 199.38646L20.956263 199.38646L20.956263 198.32396L22.175013 198.32396L22.175013 199.38646ZM29.550013 199.38646L23.331263 199.38646L23.331263 198.32396L29.550013 198.32396L29.550013 199.38646ZM29.550013 196.38646L23.331263 196.38646L23.331263 195.44896L24.206263 195.44896Q23.737513 195.15208 23.471888 194.66771Q23.190638 194.18333 23.190638 193.55833Q23.190638 192.87083 23.471888 192.43333Q23.753138 191.98021 24.268763 191.80833Q23.190638 191.05833 23.190638 189.88646Q23.190638 188.94896 23.706263 188.46458Q24.206263 187.96458 25.284388 187.96458L29.550013 187.96458L29.550013 189.01146L25.628138 189.01146Q25.003138 189.01146 24.721888 189.12083Q24.440638 189.21458 24.268763 189.48021Q24.096888 189.74583 24.096888 190.12083Q24.096888 190.77708 24.534388 191.21458Q24.971888 191.63646 25.940638 191.63646L29.550013 191.63646L29.550013 192.69896L25.503138 192.69896Q24.800013 192.69896 24.456263 192.96458Q24.096888 193.21458 24.096888 193.79271Q24.096888 194.24583 24.331263 194.62083Q24.565638 194.99583 25.018763 195.16771Q25.471888 195.33958 26.315638 195.33958L29.550013 195.33958L29.550013 196.38646ZM27.550013 182.13646L27.675013 181.04271Q28.628138 181.29271 29.159388 181.99583Q29.690638 182.69896 29.690638 183.77708Q29.690638 185.13646 28.846888 185.94896Q28.003138 186.74583 26.487513 186.74583Q24.925013 186.74583 24.065638 185.93333Q23.190638 185.12083 23.190638 183.83958Q23.190638 182.58958 24.034388 181.80833Q24.878138 181.01146 26.425013 181.01146Q26.518763 181.01146 26.706263 181.01146L26.706263 185.65208Q27.737513 185.58958 28.284388 185.07396Q28.815638 184.55833 28.815638 183.77708Q28.815638 183.19896 28.518763 182.79271Q28.206263 182.37083 27.550013 182.13646ZM25.846888 185.58958L25.846888 182.12083Q25.050013 182.18333 24.659388 182.51146Q24.050013 183.02708 24.050013 183.82396Q24.050013 184.55833 24.534388 185.05833Q25.018763 185.54271 25.846888 185.58958ZM22.175013 176.38646L20.956263 176.38646L20.956263 175.32396L22.175013 175.32396L22.175013 176.38646ZM29.550013 176.38646L23.331263 176.38646L23.331263 175.32396L29.550013 175.32396L29.550013 176.38646ZM29.550013 173.38646L23.331263 173.38646L23.331263 172.44896L24.206263 172.44896Q23.190638 171.76146 23.190638 170.46458Q23.190638 169.90208 23.393763 169.43333Q23.596888 168.94896 23.925013 168.71458Q24.253138 168.48021 24.690638 168.38646Q24.987513 168.33958 25.721888 168.33958L29.550013 168.33958L29.550013 169.38646L25.768763 169.38646Q25.112513 169.38646 24.800013 169.51146Q24.487513 169.63646 24.300013 169.94896Q24.096888 170.26146 24.096888 170.68333Q24.096888 171.35521 24.534388 171.85521Q24.956263 172.33958 26.143763 172.33958L29.550013 172.33958L29.550013 173.38646ZM27.690638 163.80833L27.534388 162.77708Q28.159388 162.68333 28.487513 162.29271Q28.815638 161.88646 28.815638 161.15208Q28.815638 160.43333 28.534388 160.08958Q28.237513 159.73021 27.831263 159.73021Q27.471888 159.73021 27.268763 160.04271Q27.128138 160.26146 26.909388 161.12083Q26.612513 162.27708 26.409388 162.73021Q26.190638 163.16771 25.815638 163.40208Q25.440638 163.63646 24.971888 163.63646Q24.565638 163.63646 24.206263 163.44896Q23.846888 163.26146 23.612513 162.93333Q23.440638 162.68333 23.315638 162.26146Q23.190638 161.83958 23.190638 161.33958Q23.190638 160.62083 23.409388 160.07396Q23.612513 159.51146 23.971888 159.24583Q24.331263 158.98021 24.925013 158.88646L25.065638 159.91771Q24.596888 159.98021 24.331263 160.32396Q24.050013 160.65208 24.050013 161.27708Q24.050013 161.99583 24.300013 162.30833Q24.534388 162.62083 24.862513 162.62083Q25.065638 162.62083 25.221888 162.49583Q25.393763 162.35521 25.503138 162.08958Q25.565638 161.93333 25.768763 161.15208Q26.081263 160.02708 26.268763 159.58958Q26.456263 159.15208 26.815638 158.90208Q27.175013 158.65208 27.721888 158.65208Q28.253138 158.65208 28.721888 158.96458Q29.175013 159.26146 29.440638 159.83958Q29.690638 160.41771 29.690638 161.15208Q29.690638 162.37083 29.190638 163.01146Q28.675013 163.63646 27.690638 163.80833Z" fill-rule="nonzero"/><path fill="#000000" d="M51.05 300.21564Q51.05 298.6844 51.3625 297.7625Q51.675 296.825 52.284374 296.325Q52.909374 295.825 53.846874 295.825Q54.534374 295.825 55.05 296.10626Q55.58125 296.3875 55.925 296.91876Q56.26875 297.4344 56.45625 298.1844Q56.64375 298.9344 56.64375 300.21564Q56.64375 301.73126 56.33125 302.65314Q56.034374 303.575 55.409374 304.09064Q54.8 304.59064 53.846874 304.59064Q52.6125 304.59064 51.89375 303.7Q51.05 302.6375 51.05 300.21564ZM52.128124 300.21564Q52.128124 302.325 52.628124 303.02814Q53.128124 303.73126 53.846874 303.73126Q54.58125 303.73126 55.065624 303.02814Q55.565624 302.325 55.565624 300.21564Q55.565624 298.09064 55.065624 297.40314Q54.58125 296.7 53.83125 296.7Q53.1125 296.7 52.675 297.3094Q52.128124 298.09064 52.128124 300.21564ZM58.64375 304.45L58.64375 303.2469L59.846874 303.2469L59.846874 304.45L58.64375 304.45ZM61.05 300.21564Q61.05 298.6844 61.3625 297.7625Q61.675 296.825 62.284374 296.325Q62.909374 295.825 63.846874 295.825Q64.53438 295.825 65.05 296.10626Q65.58125 296.3875 65.925 296.91876Q66.26875 297.4344 66.45625 298.1844Q66.64375 298.9344 66.64375 300.21564Q66.64375 301.73126 66.33125 302.65314Q66.03438 303.575 65.40938 304.09064Q64.8 304.59064 63.846874 304.59064Q62.6125 304.59064 61.89375 303.7Q61.05 302.6375 61.05 300.21564ZM62.128124 300.21564Q62.128124 302.325 62.628124 303.02814Q63.128124 303.73126 63.846874 303.73126Q64.58125 303.73126 65.06563 303.02814Q65.56563 302.325 65.56563 300.21564Q65.56563 298.09064 65.06563 297.40314Q64.58125 296.7 63.83125 296.7Q63.1125 296.7 62.675 297.3094Q62.128124 298.09064 62.128124 300.21564ZM68.05 300.21564Q68.05 298.6844 68.3625 297.7625Q68.675 296.825 69.28438 296.325Q69.90938 295.825 70.84688 295.825Q71.53438 295.825 72.05 296.10626Q72.58125 296.3875 72.925 296.91876Q73.26875 297.4344 73.45625 298.1844Q73.64375 298.9344 73.64375 300.21564Q73.64375 301.73126 73.33125 302.65314Q73.03438 303.575 72.40938 304.09064Q71.8 304.59064 70.84688 304.59064Q69.6125 304.59064 68.89375 303.7Q68.05 302.6375 68.05 300.21564ZM69.12813 300.21564Q69.12813 302.325 69.62813 303.02814Q70.12813 303.73126 70.84688 303.73126Q71.58125 303.73126 72.06563 303.02814Q72.56563 302.325 72.56563 300.21564Q72.56563 298.09064 72.06563 297.40314Q71.58125 296.7 70.83125 296.7Q70.1125 296.7 69.675 297.3094Q69.12813 298.09064 69.12813 300.21564ZM75.05 300.21564Q75.05 298.6844 75.3625 297.7625Q75.675 296.825 76.28438 296.325Q76.90938 295.825 77.84688 295.825Q78.53438 295.825 79.05 296.10626Q79.58125 296.3875 79.925 296.91876Q80.26875 297.4344 80.45625 298.1844Q80.64375 298.9344 80.64375 300.21564Q80.64375 301.73126 80.33125 302.65314Q80.03438 303.575 79.40938 304.09064Q78.8 304.59064 77.84688 304.59064Q76.6125 304.59064 75.89375 303.7Q75.05 302.6375 75.05 300.21564ZM76.12813 300.21564Q76.12813 302.325 76.62813 303.02814Q77.12813 303.73126 77.84688 303.73126Q78.58125 303.73126 79.06563 303.02814Q79.56563 302.325 79.56563 300.21564Q79.56563 298.09064 79.06563 297.40314Q78.58125 296.7 77.83125 296.7Q77.1125 296.7 76.675 297.3094Q76.12813 298.09064 76.12813 300.21564ZM82.05 300.21564Q82.05 298.6844 82.3625 297.7625Q82.675 296.825 83.28438 296.325Q83.90938 295.825 84.84688 295.825Q85.53438 295.825 86.05 296.10626Q86.58125 296.3875 86.925 296.91876Q87.26875 297.4344 87.45625 298.1844Q87.64375 298.9344 87.64375 300.21564Q87.64375 301.73126 87.33125 302.65314Q87.03438 303.575 86.40938 304.09064Q85.8 304.59064 84.84688 304.59064Q83.6125 304.59064 82.89375 303.7Q82.05 302.6375 82.05 300.21564ZM83.12813 300.21564Q83.12813 302.325 83.62813 303.02814Q84.12813 303.73126 84.84688 303.73126Q85.58125 303.73126 86.06563 303.02814Q86.56563 302.325 86.56563 300.21564Q86.56563 298.09064 86.06563 297.40314Q85.58125 296.7 84.83125 296.7Q84.1125 296.7 83.675 297.3094Q83.12813 298.09064 83.12813 300.21564Z" fill-rule="nonzero"/><path fill="#000000" d="M51.05 238.08229Q51.05 236.55104 51.3625 235.62917Q51.675 234.69167 52.284374 234.19167Q52.909374 233.69167 53.846874 233.69167Q54.534374 233.69167 55.05 233.97292Q55.58125 234.25417 55.925 234.78542Q56.26875 235.30104 56.45625 236.05104Q56.64375 236.80104 56.64375 238.08229Q56.64375 239.59792 56.33125 240.51979Q56.034374 241.44167 55.409374 241.95729Q54.8 242.45729 53.846874 242.45729Q52.6125 242.45729 51.89375 241.56667Q51.05 240.50417 51.05 238.08229ZM52.128124 238.08229Q52.128124 240.19167 52.628124 240.89479Q53.128124 241.59792 53.846874 241.59792Q54.58125 241.59792 55.065624 240.89479Q55.565624 240.19167 55.565624 238.08229Q55.565624 235.95729 55.065624 235.26979Q54.58125 234.56667 53.83125 234.56667Q53.1125 234.56667 52.675 235.17604Q52.128124 235.95729 52.128124 238.08229ZM58.64375 242.31667L58.64375 241.11354L59.846874 241.11354L59.846874 242.31667L58.64375 242.31667ZM61.05 238.08229Q61.05 236.55104 61.3625 235.62917Q61.675 234.69167 62.284374 234.19167Q62.909374 233.69167 63.846874 233.69167Q64.53438 233.69167 65.05 233.97292Q65.58125 234.25417 65.925 234.78542Q66.26875 235.30104 66.45625 236.05104Q66.64375 236.80104 66.64375 238.08229Q66.64375 239.59792 66.33125 240.51979Q66.03438 241.44167 65.40938 241.95729Q64.8 242.45729 63.846874 242.45729Q62.6125 242.45729 61.89375 241.56667Q61.05 240.50417 61.05 238.08229ZM62.128124 238.08229Q62.128124 240.19167 62.628124 240.89479Q63.128124 241.59792 63.846874 241.59792Q64.58125 241.59792 65.06563 240.89479Q65.56563 240.19167 65.56563 238.08229Q65.56563 235.95729 65.06563 235.26979Q64.58125 234.56667 63.83125 234.56667Q63.1125 234.56667 62.675 235.17604Q62.128124 235.95729 62.128124 238.08229ZM68.05 238.08229Q68.05 236.55104 68.3625 235.62917Q68.675 234.69167 69.28438 234.19167Q69.90938 233.69167 70.84688 233.69167Q71.53438 233.69167 72.05 233.97292Q72.58125 234.25417 72.925 234.78542Q73.26875 235.30104 73.45625 236.05104Q73.64375 236.80104 73.64375 238.08229Q73.64375 239.59792 73.33125 240.51979Q73.03438 241.44167 72.40938 241.95729Q71.8 242.45729 70.84688 242.45729Q69.6125 242.45729 68.89375 241.56667Q68.05 240.50417 68.05 238.08229ZM69.12813 238.08229Q69.12813 240.19167 69.62813 240.89479Q70.12813 241.59792 70.84688 241.59792Q71.58125 241.59792 72.06563 240.89479Q72.56563 240.19167 72.56563 238.08229Q72.56563 235.95729 72.06563 235.26979Q71.58125 234.56667 70.83125 234.56667Q70.1125 234.56667 69.675 235.17604Q69.12813 235.95729 69.12813 238.08229ZM75.05 238.08229Q75.05 236.55104 75.3625 235.62917Q75.675 234.69167 76.28438 234.19167Q76.90938 233.69167 77.84688 233.69167Q78.53438 233.69167 79.05 233.97292Q79.58125 234.25417 79.925 234.78542Q80.26875 235.30104 80.45625 236.05104Q80.64375 236.80104 80.64375 238.08229Q80.64375 239.59792 80.33125 240.51979Q80.03438 241.44167 79.40938 241.95729Q78.8 242.45729 77.84688 242.45729Q76.6125 242.45729 75.89375 241.56667Q75.05 240.50417 75.05 238.08229ZM76.12813 238.08229Q76.12813 240.19167 76.62813 240.89479Q77.12813 241.59792 77.84688 241.59792Q78.58125 241.59792 79.06563 240.89479Q79.56563 240.19167 79.56563 238.08229Q79.56563 235.95729 79.06563 235.26979Q78.58125 234.56667 77.83125 234.56667Q77.1125 234.56667 76.675 235.17604Q76.12813 235.95729 76.12813 238.08229ZM86.01875 242.31667L84.97188 242.31667L84.97188 235.59792Q84.58125 235.95729 83.95625 236.33229Q83.34688 236.69167 82.8625 236.86354L82.8625 235.84792Q83.7375 235.42604 84.39375 234.84792Q85.06563 234.25417 85.34688 233.69167L86.01875 233.69167L86.01875 242.31667Z" fill-rule="nonzero"/><path fill="#000000" d="M51.05 175.94896Q51.05 174.41771 51.3625 173.49583Q51.675 172.55833 52.284374 172.05833Q52.909374 171.55833 53.846874 171.55833Q54.534374 171.55833 55.05 171.83958Q55.58125 172.12083 55.925 172.65208Q56.26875 173.16771 56.45625 173.91771Q56.64375 174.66771 56.64375 175.94896Q56.64375 177.46458 56.33125 178.38646Q56.034374 179.30833 55.409374 179.82396Q54.8 180.32396 53.846874 180.32396Q52.6125 180.32396 51.89375 179.43333Q51.05 178.37083 51.05 175.94896ZM52.128124 175.94896Q52.128124 178.05833 52.628124 178.76146Q53.128124 179.46458 53.846874 179.46458Q54.58125 179.46458 55.065624 178.76146Q55.565624 178.05833 55.565624 175.94896Q55.565624 173.82396 55.065624 173.13646Q54.58125 172.43333 53.83125 172.43333Q53.1125 172.43333 52.675 173.04271Q52.128124 173.82396 52.128124 175.94896ZM58.64375 180.18333L58.64375 178.98021L59.846874 178.98021L59.846874 180.18333L58.64375 180.18333ZM61.05 175.94896Q61.05 174.41771 61.3625 173.49583Q61.675 172.55833 62.284374 172.05833Q62.909374 171.55833 63.846874 171.55833Q64.53438 171.55833 65.05 171.83958Q65.58125 172.12083 65.925 172.65208Q66.26875 173.16771 66.45625 173.91771Q66.64375 174.66771 66.64375 175.94896Q66.64375 177.46458 66.33125 178.38646Q66.03438 179.30833 65.40938 179.82396Q64.8 180.32396 63.846874 180.32396Q62.6125 180.32396 61.89375 179.43333Q61.05 178.37083 61.05 175.94896ZM62.128124 175.94896Q62.128124 178.05833 62.628124 178.76146Q63.128124 179.46458 63.846874 179.46458Q64.58125 179.46458 65.06563 178.76146Q65.56563 178.05833 65.56563 175.94896Q65.56563 173.82396 65.06563 173.13646Q64.58125 172.43333 63.83125 172.43333Q63.1125 172.43333 62.675 173.04271Q62.128124 173.82396 62.128124 175.94896ZM68.05 175.94896Q68.05 174.41771 68.3625 173.49583Q68.675 172.55833 69.28438 172.05833Q69.90938 171.55833 70.84688 171.55833Q71.53438 171.55833 72.05 171.83958Q72.58125 172.12083 72.925 172.65208Q73.26875 173.16771 73.45625 173.91771Q73.64375 174.66771 73.64375 175.94896Q73.64375 177.46458 73.33125 178.38646Q73.03438 179.30833 72.40938 179.82396Q71.8 180.32396 70.84688 180.32396Q69.6125 180.32396 68.89375 179.43333Q68.05 178.37083 68.05 175.94896ZM69.12813 175.94896Q69.12813 178.05833 69.62813 178.76146Q70.12813 179.46458 70.84688 179.46458Q71.58125 179.46458 72.06563 178.76146Q72.56563 178.05833 72.56563 175.94896Q72.56563 173.82396 72.06563 173.13646Q71.58125 172.43333 70.83125 172.43333Q70.1125 172.43333 69.675 173.04271Q69.12813 173.82396 69.12813 175.94896ZM75.05 175.94896Q75.05 174.41771 75.3625 173.49583Q75.675 172.55833 76.28438 172.05833Q76.90938 171.55833 77.84688 171.55833Q78.53438 171.55833 79.05 171.83958Q79.58125 172.12083 79.925 172.65208Q80.26875 173.16771 80.45625 173.91771Q80.64375 174.66771 80.64375 175.94896Q80.64375 177.46458 80.33125 178.38646Q80.03438 179.30833 79.40938 179.82396Q78.8 180.32396 77.84688 180.32396Q76.6125 180.32396 75.89375 179.43333Q75.05 178.37083 75.05 175.94896ZM76.12813 175.94896Q76.12813 178.05833 76.62813 178.76146Q77.12813 179.46458 77.84688 179.46458Q78.58125 179.46458 79.06563 178.76146Q79.56563 178.05833 79.56563 175.94896Q79.56563 173.82396 79.06563 173.13646Q78.58125 172.43333 77.83125 172.43333Q77.1125 172.43333 76.675 173.04271Q76.12813 173.82396 76.12813 175.94896ZM87.59688 179.16771L87.59688 180.18333L81.90938 180.18333Q81.90938 179.80833 82.03438 179.44896Q82.25313 178.87083 82.72188 178.30833Q83.20625 177.74583 84.1125 177.01146Q85.51875 175.85521 86.00313 175.18333Q86.50313 174.51146 86.50313 173.91771Q86.50313 173.29271 86.05 172.87083Q85.59688 172.43333 84.87813 172.43333Q84.1125 172.43333 83.65938 172.88646Q83.20625 173.33958 83.19063 174.15208L82.1125 174.04271Q82.22188 172.82396 82.94063 172.19896Q83.675 171.55833 84.90938 171.55833Q86.14375 171.55833 86.8625 172.24583Q87.58125 172.93333 87.58125 173.94896Q87.58125 174.46458 87.3625 174.96458Q87.15938 175.44896 86.65938 176.01146Q86.175 176.55833 85.05 177.51146Q84.09688 178.30833 83.81563 178.60521Q83.55 178.88646 83.37813 179.16771L87.59688 179.16771Z" fill-rule="nonzero"/><path fill="#000000" d="M51.05 113.81563Q51.05 112.28438 51.3625 111.3625Q51.675 110.425 52.284374 109.925Q52.909374 109.425 53.846874 109.425Q54.534374 109.425 55.05 109.70625Q55.58125 109.9875 55.925 110.51875Q56.26875 111.03438 56.45625 111.78438Q56.64375 112.53438 56.64375 113.81563Q56.64375 115.33125 56.33125 116.25313Q56.034374 117.175 55.409374 117.69063Q54.8 118.19063 53.846874 118.19063Q52.6125 118.19063 51.89375 117.3Q51.05 116.2375 51.05 113.81563ZM52.128124 113.81563Q52.128124 115.925 52.628124 116.62813Q53.128124 117.33125 53.846874 117.33125Q54.58125 117.33125 55.065624 116.62813Q55.565624 115.925 55.565624 113.81563Q55.565624 111.69063 55.065624 111.00313Q54.58125 110.3 53.83125 110.3Q53.1125 110.3 52.675 110.90938Q52.128124 111.69063 52.128124 113.81563ZM58.64375 118.05L58.64375 116.84688L59.846874 116.84688L59.846874 118.05L58.64375 118.05ZM61.05 113.81563Q61.05 112.28438 61.3625 111.3625Q61.675 110.425 62.284374 109.925Q62.909374 109.425 63.846874 109.425Q64.53438 109.425 65.05 109.70625Q65.58125 109.9875 65.925 110.51875Q66.26875 111.03438 66.45625 111.78438Q66.64375 112.53438 66.64375 113.81563Q66.64375 115.33125 66.33125 116.25313Q66.03438 117.175 65.40938 117.69063Q64.8 118.19063 63.846874 118.19063Q62.6125 118.19063 61.89375 117.3Q61.05 116.2375 61.05 113.81563ZM62.128124 113.81563Q62.128124 115.925 62.628124 116.62813Q63.128124 117.33125 63.846874 117.33125Q64.58125 117.33125 65.06563 116.62813Q65.56563 115.925 65.56563 113.81563Q65.56563 111.69063 65.06563 111.00313Q64.58125 110.3 63.83125 110.3Q63.1125 110.3 62.675 110.90938Q62.128124 111.69063 62.128124 113.81563ZM68.05 113.81563Q68.05 112.28438 68.3625 111.3625Q68.675 110.425 69.28438 109.925Q69.90938 109.425 70.84688 109.425Q71.53438 109.425 72.05 109.70625Q72.58125 109.9875 72.925 110.51875Q73.26875 111.03438 73.45625 111.78438Q73.64375 112.53438 73.64375 113.81563Q73.64375 115.33125 73.33125 116.25313Q73.03438 117.175 72.40938 117.69063Q71.8 118.19063 70.84688 118.19063Q69.6125 118.19063 68.89375 117.3Q68.05 116.2375 68.05 113.81563ZM69.12813 113.81563Q69.12813 115.925 69.62813 116.62813Q70.12813 117.33125 70.84688 117.33125Q71.58125 117.33125 72.06563 116.62813Q72.56563 115.925 72.56563 113.81563Q72.56563 111.69063 72.06563 111.00313Q71.58125 110.3 70.83125 110.3Q70.1125 110.3 69.675 110.90938Q69.12813 111.69063 69.12813 113.81563ZM75.05 113.81563Q75.05 112.28438 75.3625 111.3625Q75.675 110.425 76.28438 109.925Q76.90938 109.425 77.84688 109.425Q78.53438 109.425 79.05 109.70625Q79.58125 109.9875 79.925 110.51875Q80.26875 111.03438 80.45625 111.78438Q80.64375 112.53438 80.64375 113.81563Q80.64375 115.33125 80.33125 116.25313Q80.03438 117.175 79.40938 117.69063Q78.8 118.19063 77.84688 118.19063Q76.6125 118.19063 75.89375 117.3Q75.05 116.2375 75.05 113.81563ZM76.12813 113.81563Q76.12813 115.925 76.62813 116.62813Q77.12813 117.33125 77.84688 117.33125Q78.58125 117.33125 79.06563 116.62813Q79.56563 115.925 79.56563 113.81563Q79.56563 111.69063 79.06563 111.00313Q78.58125 110.3 77.83125 110.3Q77.1125 110.3 76.675 110.90938Q76.12813 111.69063 76.12813 113.81563ZM82.05 115.78438L83.1125 115.64375Q83.28438 116.53438 83.72188 116.94063Q84.15938 117.33125 84.78438 117.33125Q85.53438 117.33125 86.05 116.81563Q86.56563 116.3 86.56563 115.53438Q86.56563 114.81563 86.08125 114.34688Q85.6125 113.8625 84.87813 113.8625Q84.58125 113.8625 84.12813 113.9875L84.25313 113.05Q84.3625 113.06563 84.425 113.06563Q85.09688 113.06563 85.62813 112.72188Q86.175 112.3625 86.175 111.62813Q86.175 111.05 85.78438 110.675Q85.39375 110.28438 84.76875 110.28438Q84.15938 110.28438 83.7375 110.675Q83.33125 111.06563 83.22188 111.83125L82.15938 111.64375Q82.34688 110.59688 83.03438 110.01875Q83.72188 109.425 84.7375 109.425Q85.44063 109.425 86.03438 109.7375Q86.62813 110.03438 86.94063 110.55Q87.25313 111.06563 87.25313 111.65938Q87.25313 112.20625 86.95625 112.675Q86.65938 113.12813 86.08125 113.39375Q86.83125 113.56563 87.25313 114.12813Q87.675 114.675 87.675 115.51875Q87.675 116.64375 86.84688 117.425Q86.03438 118.20625 84.78438 118.20625Q83.65938 118.20625 82.90938 117.53438Q82.15938 116.84688 82.05 115.78438Z" fill-rule="nonzero"/><path fill="#000000" d="M51.05 51.682293Q51.05 50.151043 51.3625 49.229168Q51.675 48.291668 52.284374 47.791668Q52.909374 47.291668 53.846874 47.291668Q54.534374 47.291668 55.05 47.572918Q55.58125 47.854168 55.925 48.385418Q56.26875 48.901043 56.45625 49.651043Q56.64375 50.401043 56.64375 51.682293Q56.64375 53.197918 56.33125 54.119793Q56.034374 55.041668 55.409374 55.557293Q54.8 56.057293 53.846874 56.057293Q52.6125 56.057293 51.89375 55.166668Q51.05 54.104168 51.05 51.682293ZM52.128124 51.682293Q52.128124 53.791668 52.628124 54.494793Q53.128124 55.197918 53.846874 55.197918Q54.58125 55.197918 55.065624 54.494793Q55.565624 53.791668 55.565624 51.682293Q55.565624 49.557293 55.065624 48.869793Q54.58125 48.166668 53.83125 48.166668Q53.1125 48.166668 52.675 48.776043Q52.128124 49.557293 52.128124 51.682293ZM58.64375 55.916668L58.64375 54.713543L59.846874 54.713543L59.846874 55.916668L58.64375 55.916668ZM61.05 51.682293Q61.05 50.151043 61.3625 49.229168Q61.675 48.291668 62.284374 47.791668Q62.909374 47.291668 63.846874 47.291668Q64.53438 47.291668 65.05 47.572918Q65.58125 47.854168 65.925 48.385418Q66.26875 48.901043 66.45625 49.651043Q66.64375 50.401043 66.64375 51.682293Q66.64375 53.197918 66.33125 54.119793Q66.03438 55.041668 65.40938 55.557293Q64.8 56.057293 63.846874 56.057293Q62.6125 56.057293 61.89375 55.166668Q61.05 54.104168 61.05 51.682293ZM62.128124 51.682293Q62.128124 53.791668 62.628124 54.494793Q63.128124 55.197918 63.846874 55.197918Q64.58125 55.197918 65.06563 54.494793Q65.56563 53.791668 65.56563 51.682293Q65.56563 49.557293 65.06563 48.869793Q64.58125 48.166668 63.83125 48.166668Q63.1125 48.166668 62.675 48.776043Q62.128124 49.557293 62.128124 51.682293ZM68.05 51.682293Q68.05 50.151043 68.3625 49.229168Q68.675 48.291668 69.28438 47.791668Q69.90938 47.291668 70.84688 47.291668Q71.53438 47.291668 72.05 47.572918Q72.58125 47.854168 72.925 48.385418Q73.26875 48.901043 73.45625 49.651043Q73.64375 50.401043 73.64375 51.682293Q73.64375 53.197918 73.33125 54.119793Q73.03438 55.041668 72.40938 55.557293Q71.8 56.057293 70.84688 56.057293Q69.6125 56.057293 68.89375 55.166668Q68.05 54.104168 68.05 51.682293ZM69.12813 51.682293Q69.12813 53.791668 69.62813 54.494793Q70.12813 55.197918 70.84688 55.197918Q71.58125 55.197918 72.06563 54.494793Q72.56563 53.791668 72.56563 51.682293Q72.56563 49.557293 72.06563 48.869793Q71.58125 48.166668 70.83125 48.166668Q70.1125 48.166668 69.675 48.776043Q69.12813 49.557293 69.12813 51.682293ZM75.05 51.682293Q75.05 50.151043 75.3625 49.229168Q75.675 48.291668 76.28438 47.791668Q76.90938 47.291668 77.84688 47.291668Q78.53438 47.291668 79.05 47.572918Q79.58125 47.854168 79.925 48.385418Q80.26875 48.901043 80.45625 49.651043Q80.64375 50.401043 80.64375 51.682293Q80.64375 53.197918 80.33125 54.119793Q80.03438 55.041668 79.40938 55.557293Q78.8 56.057293 77.84688 56.057293Q76.6125 56.057293 75.89375 55.166668Q75.05 54.104168 75.05 51.682293ZM76.12813 51.682293Q76.12813 53.791668 76.62813 54.494793Q77.12813 55.197918 77.84688 55.197918Q78.58125 55.197918 79.06563 54.494793Q79.56563 53.791668 79.56563 51.682293Q79.56563 49.557293 79.06563 48.869793Q78.58125 48.166668 77.83125 48.166668Q77.1125 48.166668 76.675 48.776043Q76.12813 49.557293 76.12813 51.682293ZM85.425 55.916668L85.425 53.854168L81.70625 53.854168L81.70625 52.885418L85.62813 47.322918L86.4875 47.322918L86.4875 52.885418L87.64375 52.885418L87.64375 53.854168L86.4875 53.854168L86.4875 55.916668L85.425 55.916668ZM85.425 52.885418L85.425 49.026043L82.7375 52.885418L85.425 52.885418Z" fill-rule="nonzero"/><path fill="#000000" d="M186.69627 316.4344L186.69627 317.45L181.00877 317.45Q181.00877 317.075 181.13377 316.71564Q181.35252 316.1375 181.82127 315.575Q182.30565 315.0125 183.2119 314.27814Q184.61815 313.1219 185.10252 312.45Q185.60252 311.77814 185.60252 311.1844Q185.60252 310.5594 185.1494 310.1375Q184.69627 309.7 183.97752 309.7Q183.2119 309.7 182.75877 310.15314Q182.30565 310.60626 182.29002 311.41876L181.2119 311.3094Q181.32127 310.09064 182.04002 309.46564Q182.7744 308.825 184.00877 308.825Q185.24315 308.825 185.9619 309.5125Q186.68065 310.2 186.68065 311.21564Q186.68065 311.73126 186.4619 312.23126Q186.25877 312.71564 185.75877 313.27814Q185.2744 313.825 184.1494 314.77814Q183.19627 315.575 182.91502 315.8719Q182.6494 316.15314 182.47752 316.4344L186.69627 316.4344ZM188.1494 313.21564Q188.1494 311.6844 188.4619 310.7625Q188.7744 309.825 189.38377 309.325Q190.00877 308.825 190.94627 308.825Q191.63377 308.825 192.1494 309.10626Q192.68065 309.3875 193.0244 309.91876Q193.36815 310.4344 193.55565 311.1844Q193.74315 311.9344 193.74315 313.21564Q193.74315 314.73126 193.43065 315.65314Q193.13377 316.575 192.50877 317.09064Q191.8994 317.59064 190.94627 317.59064Q189.7119 317.59064 188.99315 316.7Q188.1494 315.6375 188.1494 313.21564ZM189.22752 313.21564Q189.22752 315.325 189.72752 316.02814Q190.22752 316.73126 190.94627 316.73126Q191.68065 316.73126 192.16502 316.02814Q192.66502 315.325 192.66502 313.21564Q192.66502 311.09064 192.16502 310.40314Q191.68065 309.7 190.93065 309.7Q190.2119 309.7 189.7744 310.3094Q189.22752 311.09064 189.22752 313.21564ZM195.1494 313.21564Q195.1494 311.6844 195.4619 310.7625Q195.7744 309.825 196.38377 309.325Q197.00877 308.825 197.94627 308.825Q198.63377 308.825 199.1494 309.10626Q199.68065 309.3875 200.0244 309.91876Q200.36815 310.4344 200.55565 311.1844Q200.74315 311.9344 200.74315 313.21564Q200.74315 314.73126 200.43065 315.65314Q200.13377 316.575 199.50877 317.09064Q198.8994 317.59064 197.94627 317.59064Q196.7119 317.59064 195.99315 316.7Q195.1494 315.6375 195.1494 313.21564ZM196.22752 313.21564Q196.22752 315.325 196.72752 316.02814Q197.22752 316.73126 197.94627 316.73126Q198.68065 316.73126 199.16502 316.02814Q199.66502 315.325 199.66502 313.21564Q199.66502 311.09064 199.16502 310.40314Q198.68065 309.7 197.93065 309.7Q197.2119 309.7 196.7744 310.3094Q196.22752 311.09064 196.22752 313.21564Z" fill-rule="nonzero"/><path fill="#000000" d="M282.09955 317.45L282.09955 315.3875L278.3808 315.3875L278.3808 314.41876L282.30267 308.85626L283.16205 308.85626L283.16205 314.41876L284.3183 314.41876L284.3183 315.3875L283.16205 315.3875L283.16205 317.45L282.09955 317.45ZM282.09955 314.41876L282.09955 310.5594L279.41205 314.41876L282.09955 314.41876ZM285.72455 313.21564Q285.72455 311.6844 286.03705 310.7625Q286.34955 309.825 286.95892 309.325Q287.58392 308.825 288.52142 308.825Q289.20892 308.825 289.72455 309.10626Q290.2558 309.3875 290.59955 309.91876Q290.9433 310.4344 291.1308 311.1844Q291.3183 311.9344 291.3183 313.21564Q291.3183 314.73126 291.0058 315.65314Q290.70892 316.575 290.08392 317.09064Q289.47455 317.59064 288.52142 317.59064Q287.28705 317.59064 286.5683 316.7Q285.72455 315.6375 285.72455 313.21564ZM286.80267 313.21564Q286.80267 315.325 287.30267 316.02814Q287.80267 316.73126 288.52142 316.73126Q289.2558 316.73126 289.74017 316.02814Q290.24017 315.325 290.24017 313.21564Q290.24017 311.09064 289.74017 310.40314Q289.2558 309.7 288.5058 309.7Q287.78705 309.7 287.34955 310.3094Q286.80267 311.09064 286.80267 313.21564ZM292.72455 313.21564Q292.72455 311.6844 293.03705 310.7625Q293.34955 309.825 293.95892 309.325Q294.58392 308.825 295.52142 308.825Q296.20892 308.825 296.72455 309.10626Q297.2558 309.3875 297.59955 309.91876Q297.9433 310.4344 298.1308 311.1844Q298.3183 311.9344 298.3183 313.21564Q298.3183 314.73126 298.0058 315.65314Q297.70892 316.575 297.08392 317.09064Q296.47455 317.59064 295.52142 317.59064Q294.28705 317.59064 293.5683 316.7Q292.72455 315.6375 292.72455 313.21564ZM293.80267 313.21564Q293.80267 315.325 294.30267 316.02814Q294.80267 316.73126 295.52142 316.73126Q296.2558 316.73126 296.74017 316.02814Q297.24017 315.325 297.24017 313.21564Q297.24017 311.09064 296.74017 310.40314Q296.2558 309.7 295.5058 309.7Q294.78705 309.7 294.34955 310.3094Q293.80267 311.09064 293.80267 313.21564Z" fill-rule="nonzero"/><path fill="#000000" d="M381.76846 310.96564L380.7216 311.04376Q380.58096 310.41876 380.33096 310.1375Q379.89346 309.6844 379.26846 309.6844Q378.76846 309.6844 378.37784 309.96564Q377.89346 310.34064 377.5966 311.04376Q377.31534 311.73126 377.2997 313.0125Q377.6747 312.4344 378.2216 312.15314Q378.7841 311.8719 379.39346 311.8719Q380.44034 311.8719 381.1747 312.65314Q381.9247 313.4344 381.9247 314.65314Q381.9247 315.46564 381.56534 316.16876Q381.2216 316.85626 380.6122 317.23126Q380.00284 317.59064 379.2372 317.59064Q377.9091 317.59064 377.08096 316.6219Q376.25284 315.65314 376.25284 313.4344Q376.25284 310.9344 377.1747 309.8094Q377.9716 308.825 379.33096 308.825Q380.3466 308.825 380.9872 309.40314Q381.64346 309.96564 381.76846 310.96564ZM377.4716 314.66876Q377.4716 315.21564 377.69034 315.71564Q377.9247 316.2 378.33096 316.46564Q378.75284 316.73126 379.2216 316.73126Q379.87784 316.73126 380.3622 316.2Q380.8466 315.65314 380.8466 314.73126Q380.8466 313.84064 380.3622 313.325Q379.89346 312.8094 379.1747 312.8094Q378.45596 312.8094 377.95596 313.325Q377.4716 313.84064 377.4716 314.66876ZM383.2997 313.21564Q383.2997 311.6844 383.6122 310.7625Q383.9247 309.825 384.5341 309.325Q385.1591 308.825 386.0966 308.825Q386.7841 308.825 387.2997 309.10626Q387.83096 309.3875 388.1747 309.91876Q388.51846 310.4344 388.70596 311.1844Q388.89346 311.9344 388.89346 313.21564Q388.89346 314.73126 388.58096 315.65314Q388.2841 316.575 387.6591 317.09064Q387.0497 317.59064 386.0966 317.59064Q384.8622 317.59064 384.14346 316.7Q383.2997 315.6375 383.2997 313.21564ZM384.37784 313.21564Q384.37784 315.325 384.87784 316.02814Q385.37784 316.73126 386.0966 316.73126Q386.83096 316.73126 387.31534 316.02814Q387.81534 315.325 387.81534 313.21564Q387.81534 311.09064 387.31534 310.40314Q386.83096 309.7 386.08096 309.7Q385.3622 309.7 384.9247 310.3094Q384.37784 311.09064 384.37784 313.21564ZM390.2997 313.21564Q390.2997 311.6844 390.6122 310.7625Q390.9247 309.825 391.5341 309.325Q392.1591 308.825 393.0966 308.825Q393.7841 308.825 394.2997 309.10626Q394.83096 309.3875 395.1747 309.91876Q395.51846 310.4344 395.70596 311.1844Q395.89346 311.9344 395.89346 313.21564Q395.89346 314.73126 395.58096 315.65314Q395.2841 316.575 394.6591 317.09064Q394.0497 317.59064 393.0966 317.59064Q391.8622 317.59064 391.14346 316.7Q390.2997 315.6375 390.2997 313.21564ZM391.37784 313.21564Q391.37784 315.325 391.87784 316.02814Q392.37784 316.73126 393.0966 316.73126Q393.83096 316.73126 394.31534 316.02814Q394.81534 315.325 394.81534 313.21564Q394.81534 311.09064 394.31534 310.40314Q393.83096 309.7 393.08096 309.7Q392.3622 309.7 391.9247 310.3094Q391.37784 311.09064 391.37784 313.21564Z" fill-rule="nonzero"/><path fill="#000000" d="M475.49985 312.79376Q474.8436 312.54376 474.51547 312.10626Q474.20297 311.65314 474.20297 311.04376Q474.20297 310.10626 474.87485 309.46564Q475.56235 308.825 476.67172 308.825Q477.79672 308.825 478.48422 309.48126Q479.17172 310.1375 479.17172 311.075Q479.17172 311.66876 478.85922 312.10626Q478.54672 312.54376 477.9061 312.79376Q478.70297 313.04376 479.10922 313.6219Q479.51547 314.2 479.51547 314.9969Q479.51547 316.09064 478.73422 316.84064Q477.9686 317.59064 476.68735 317.59064Q475.42172 317.59064 474.64047 316.84064Q473.85922 316.09064 473.85922 314.96564Q473.85922 314.1219 474.2811 313.5594Q474.7186 312.9969 475.49985 312.79376ZM475.2811 310.9969Q475.2811 311.60626 475.67172 311.9969Q476.07797 312.3875 476.70297 312.3875Q477.31235 312.3875 477.70297 312.0125Q478.0936 311.6219 478.0936 311.0594Q478.0936 310.48126 477.68735 310.09064Q477.2811 309.6844 476.68735 309.6844Q476.07797 309.6844 475.67172 310.075Q475.2811 310.46564 475.2811 310.9969ZM474.95297 314.96564Q474.95297 315.41876 475.1561 315.84064Q475.37485 316.2625 475.79672 316.4969Q476.2186 316.73126 476.70297 316.73126Q477.45297 316.73126 477.93735 316.2469Q478.43735 315.7625 478.43735 315.0125Q478.43735 314.2469 477.93735 313.7469Q477.43735 313.2469 476.67172 313.2469Q475.92172 313.2469 475.43735 313.7469Q474.95297 314.23126 474.95297 314.96564ZM480.87485 313.21564Q480.87485 311.6844 481.18735 310.7625Q481.49985 309.825 482.10922 309.325Q482.73422 308.825 483.67172 308.825Q484.35922 308.825 484.87485 309.10626Q485.4061 309.3875 485.74985 309.91876Q486.0936 310.4344 486.2811 311.1844Q486.4686 311.9344 486.4686 313.21564Q486.4686 314.73126 486.1561 315.65314Q485.85922 316.575 485.23422 317.09064Q484.62485 317.59064 483.67172 317.59064Q482.43735 317.59064 481.7186 316.7Q480.87485 315.6375 480.87485 313.21564ZM481.95297 313.21564Q481.95297 315.325 482.45297 316.02814Q482.95297 316.73126 483.67172 316.73126Q484.4061 316.73126 484.89047 316.02814Q485.39047 315.325 485.39047 313.21564Q485.39047 311.09064 484.89047 310.40314Q484.4061 309.7 483.6561 309.7Q482.93735 309.7 482.49985 310.3094Q481.95297 311.09064 481.95297 313.21564ZM487.87485 313.21564Q487.87485 311.6844 488.18735 310.7625Q488.49985 309.825 489.10922 309.325Q489.73422 308.825 490.67172 308.825Q491.35922 308.825 491.87485 309.10626Q492.4061 309.3875 492.74985 309.91876Q493.0936 310.4344 493.2811 311.1844Q493.4686 311.9344 493.4686 313.21564Q493.4686 314.73126 493.1561 315.65314Q492.85922 316.575 492.23422 317.09064Q491.62485 317.59064 490.67172 317.59064Q489.43735 317.59064 488.7186 316.7Q487.87485 315.6375 487.87485 313.21564ZM488.95297 313.21564Q488.95297 315.325 489.45297 316.02814Q489.95297 316.73126 490.67172 316.73126Q491.4061 316.73126 491.89047 316.02814Q492.39047 315.325 492.39047 313.21564Q492.39047 311.09064 491.89047 310.40314Q491.4061 309.7 490.6561 309.7Q489.93735 309.7 489.49985 310.3094Q488.95297 311.09064 488.95297 313.21564Z" fill-rule="nonzero"/><path fill="#000000" d="M571.91876 317.45L570.8719 317.45L570.8719 310.73126Q570.48126 311.09064 569.85626 311.46564Q569.2469 311.825 568.7625 311.9969L568.7625 310.98126Q569.6375 310.5594 570.29376 309.98126Q570.96564 309.3875 571.2469 308.825L571.91876 308.825L571.91876 317.45ZM574.95 313.21564Q574.95 311.6844 575.2625 310.7625Q575.575 309.825 576.1844 309.325Q576.8094 308.825 577.7469 308.825Q578.4344 308.825 578.95 309.10626Q579.48126 309.3875 579.825 309.91876Q580.16876 310.4344 580.35626 311.1844Q580.54376 311.9344 580.54376 313.21564Q580.54376 314.73126 580.23126 315.65314Q579.9344 316.575 579.3094 317.09064Q578.7 317.59064 577.7469 317.59064Q576.5125 317.59064 575.79376 316.7Q574.95 315.6375 574.95 313.21564ZM576.02814 313.21564Q576.02814 315.325 576.52814 316.02814Q577.02814 316.73126 577.7469 316.73126Q578.48126 316.73126 578.96564 316.02814Q579.46564 315.325 579.46564 313.21564Q579.46564 311.09064 578.96564 310.40314Q578.48126 309.7 577.73126 309.7Q577.0125 309.7 576.575 310.3094Q576.02814 311.09064 576.02814 313.21564ZM581.95 313.21564Q581.95 311.6844 582.2625 310.7625Q582.575 309.825 583.1844 309.325Q583.8094 308.825 584.7469 308.825Q585.4344 308.825 585.95 309.10626Q586.48126 309.3875 586.825 309.91876Q587.16876 310.4344 587.35626 311.1844Q587.54376 311.9344 587.54376 313.21564Q587.54376 314.73126 587.23126 315.65314Q586.9344 316.575 586.3094 317.09064Q585.7 317.59064 584.7469 317.59064Q583.5125 317.59064 582.79376 316.7Q581.95 315.6375 581.95 313.21564ZM583.02814 313.21564Q583.02814 315.325 583.52814 316.02814Q584.02814 316.73126 584.7469 316.73126Q585.48126 316.73126 585.96564 316.02814Q586.46564 315.325 586.46564 313.21564Q586.46564 311.09064 585.96564 310.40314Q585.48126 309.7 584.73126 309.7Q584.0125 309.7 583.575 310.3094Q583.02814 311.09064 583.02814 313.21564ZM588.95 313.21564Q588.95 311.6844 589.2625 310.7625Q589.575 309.825 590.1844 309.325Q590.8094 308.825 591.7469 308.825Q592.4344 308.825 592.95 309.10626Q593.48126 309.3875 593.825 309.91876Q594.16876 310.4344 594.35626 311.1844Q594.54376 311.9344 594.54376 313.21564Q594.54376 314.73126 594.23126 315.65314Q593.9344 316.575 593.3094 317.09064Q592.7 317.59064 591.7469 317.59064Q590.5125 317.59064 589.79376 316.7Q588.95 315.6375 588.95 313.21564ZM590.02814 313.21564Q590.02814 315.325 590.52814 316.02814Q591.02814 316.73126 591.7469 316.73126Q592.48126 316.73126 592.96564 316.02814Q593.46564 315.325 593.46564 313.21564Q593.46564 311.09064 592.96564 310.40314Q592.48126 309.7 591.73126 309.7Q591.0125 309.7 590.575 310.3094Q590.02814 311.09064 590.02814 313.21564Z" fill-rule="nonzero"/><path stroke="#4285f4" stroke-width="4.0" stroke-linecap="butt" d="M152.0 25.55L164.0 25.55" fill-rule="nonzero"/><path fill="#1a1a1a" d="M172.54688 26.784374L173.60938 26.690624Q173.6875 27.346874 173.96875 27.753124Q174.25 28.159374 174.82812 28.425Q175.42188 28.675 176.15625 28.675Q176.79688 28.675 177.29688 28.4875Q177.79688 28.284374 178.03125 27.95625Q178.28125 27.6125 178.28125 27.221874Q178.28125 26.815624 178.04688 26.51875Q177.8125 26.20625 177.28125 26.003124Q176.92188 25.8625 175.73438 25.58125Q174.5625 25.3 174.09375 25.05Q173.46875 24.721874 173.17188 24.253124Q172.875 23.76875 172.875 23.175Q172.875 22.534374 173.23438 21.971874Q173.60938 21.39375 174.3125 21.1125Q175.03125 20.815624 175.89062 20.815624Q176.84375 20.815624 177.57812 21.128124Q178.3125 21.425 178.70312 22.034374Q179.09375 22.628124 179.125 23.378124L178.03125 23.45625Q177.9375 22.64375 177.42188 22.2375Q176.92188 21.815624 175.9375 21.815624Q174.90625 21.815624 174.4375 22.190624Q173.96875 22.565624 173.96875 23.096874Q173.96875 23.565624 174.29688 23.8625Q174.625 24.159374 176.0 24.471874Q177.39062 24.784374 177.90625 25.01875Q178.65625 25.378124 179.01562 25.909374Q179.375 26.425 179.375 27.128124Q179.375 27.815624 178.98438 28.425Q178.59375 29.01875 177.85938 29.3625Q177.125 29.690624 176.20312 29.690624Q175.03125 29.690624 174.23438 29.3625Q173.45312 29.01875 173.0 28.33125Q172.5625 27.64375 172.54688 26.784374ZM185.04688 27.55L186.14062 27.675Q185.89062 28.628124 185.1875 29.159374Q184.48438 29.690624 183.40625 29.690624Q182.04688 29.690624 181.23438 28.846874Q180.4375 28.003124 180.4375 26.4875Q180.4375 24.925 181.25 24.065624Q182.0625 23.190624 183.34375 23.190624Q184.59375 23.190624 185.375 24.034374Q186.17188 24.878124 186.17188 26.425Q186.17188 26.51875 186.17188 26.70625L181.53125 26.70625Q181.59375 27.7375 182.10938 28.284374Q182.625 28.815624 183.40625 28.815624Q183.98438 28.815624 184.39062 28.51875Q184.8125 28.20625 185.04688 27.55ZM181.59375 25.846874L185.0625 25.846874Q185.0 25.05 184.67188 24.659374Q184.15625 24.05 183.35938 24.05Q182.625 24.05 182.125 24.534374Q181.64062 25.01875 181.59375 25.846874ZM187.79688 29.55L187.79688 23.33125L188.73438 23.33125L188.73438 24.20625Q189.42188 23.190624 190.71875 23.190624Q191.28125 23.190624 191.75 23.39375Q192.23438 23.596874 192.46875 23.925Q192.70312 24.253124 192.79688 24.690624Q192.84375 24.9875 192.84375 25.721874L192.84375 29.55L191.79688 29.55L191.79688 25.76875Q191.79688 25.1125 191.67188 24.8Q191.54688 24.4875 191.23438 24.3Q190.92188 24.096874 190.5 24.096874Q189.82812 24.096874 189.32812 24.534374Q188.84375 24.95625 188.84375 26.14375L188.84375 29.55L187.79688 29.55ZM198.82812 29.55L198.82812 28.76875Q198.23438 29.690624 197.09375 29.690624Q196.34375 29.690624 195.71875 29.284374Q195.09375 28.8625 194.75 28.128124Q194.40625 27.39375 194.40625 26.440624Q194.40625 25.51875 194.71875 24.753124Q195.03125 23.9875 195.65625 23.596874Q196.28125 23.190624 197.04688 23.190624Q197.60938 23.190624 198.04688 23.425Q198.48438 23.659374 198.76562 24.034374L198.76562 20.95625L199.8125 20.95625L199.8125 29.55L198.82812 29.55ZM195.5 26.440624Q195.5 27.64375 196.0 28.2375Q196.5 28.815624 197.1875 28.815624Q197.875 28.815624 198.35938 28.253124Q198.84375 27.690624 198.84375 26.534374Q198.84375 25.253124 198.34375 24.659374Q197.85938 24.065624 197.14062 24.065624Q196.4375 24.065624 195.96875 24.64375Q195.5 25.20625 195.5 26.440624ZM204.89062 29.55L204.89062 20.95625L206.60938 20.95625L208.64062 27.034374Q208.92188 27.89375 209.04688 28.315624Q209.1875 27.846874 209.5 26.940624L211.5625 20.95625L213.09375 20.95625L213.09375 29.55L212.0 29.55L212.0 22.3625L209.5 29.55L208.46875 29.55L205.98438 22.2375L205.98438 29.55L204.89062 29.55ZM219.04688 27.55L220.14062 27.675Q219.89062 28.628124 219.1875 29.159374Q218.48438 29.690624 217.40625 29.690624Q216.04688 29.690624 215.23438 28.846874Q214.4375 28.003124 214.4375 26.4875Q214.4375 24.925 215.25 24.065624Q216.0625 23.190624 217.34375 23.190624Q218.59375 23.190624 219.375 24.034374Q220.17188 24.878124 220.17188 26.425Q220.17188 26.51875 220.17188 26.70625L215.53125 26.70625Q215.59375 27.7375 216.10938 28.284374Q216.625 28.815624 217.40625 28.815624Q217.98438 28.815624 218.39062 28.51875Q218.8125 28.20625 219.04688 27.55ZM215.59375 25.846874L219.0625 25.846874Q219.0 25.05 218.67188 24.659374Q218.15625 24.05 217.35938 24.05Q216.625 24.05 216.125 24.534374Q215.64062 25.01875 215.59375 25.846874ZM221.375 27.690624L222.40625 27.534374Q222.5 28.159374 222.89062 28.4875Q223.29688 28.815624 224.03125 28.815624Q224.75 28.815624 225.09375 28.534374Q225.45312 28.2375 225.45312 27.83125Q225.45312 27.471874 225.14062 27.26875Q224.92188 27.128124 224.0625 26.909374Q222.90625 26.6125 222.45312 26.409374Q222.01562 26.190624 221.78125 25.815624Q221.54688 25.440624 221.54688 24.971874Q221.54688 24.565624 221.73438 24.20625Q221.92188 23.846874 222.25 23.6125Q222.5 23.440624 222.92188 23.315624Q223.34375 23.190624 223.84375 23.190624Q224.5625 23.190624 225.10938 23.409374Q225.67188 23.6125 225.9375 23.971874Q226.20312 24.33125 226.29688 24.925L225.26562 25.065624Q225.20312 24.596874 224.85938 24.33125Q224.53125 24.05 223.90625 24.05Q223.1875 24.05 222.875 24.3Q222.5625 24.534374 222.5625 24.8625Q222.5625 25.065624 222.6875 25.221874Q222.82812 25.39375 223.09375 25.503124Q223.25 25.565624 224.03125 25.76875Q225.15625 26.08125 225.59375 26.26875Q226.03125 26.45625 226.28125 26.815624Q226.53125 27.175 226.53125 27.721874Q226.53125 28.253124 226.21875 28.721874Q225.92188 29.175 225.34375 29.440624Q224.76562 29.690624 224.03125 29.690624Q222.8125 29.690624 222.17188 29.190624Q221.54688 28.675 221.375 27.690624ZM227.375 27.690624L228.40625 27.534374Q228.5 28.159374 228.89062 28.4875Q229.29688 28.815624 230.03125 28.815624Q230.75 28.815624 231.09375 28.534374Q231.45312 28.2375 231.45312 27.83125Q231.45312 27.471874 231.14062 27.26875Q230.92188 27.128124 230.0625 26.909374Q228.90625 26.6125 228.45312 26.409374Q228.01562 26.190624 227.78125 25.815624Q227.54688 25.440624 227.54688 24.971874Q227.54688 24.565624 227.73438 24.20625Q227.92188 23.846874 228.25 23.6125Q228.5 23.440624 228.92188 23.315624Q229.34375 23.190624 229.84375 23.190624Q230.5625 23.190624 231.10938 23.409374Q231.67188 23.6125 231.9375 23.971874Q232.20312 24.33125 232.29688 24.925L231.26562 25.065624Q231.20312 24.596874 230.85938 24.33125Q230.53125 24.05 229.90625 24.05Q229.1875 24.05 228.875 24.3Q228.5625 24.534374 228.5625 24.8625Q228.5625 25.065624 228.6875 25.221874Q228.82812 25.39375 229.09375 25.503124Q229.25 25.565624 230.03125 25.76875Q231.15625 26.08125 231.59375 26.26875Q232.03125 26.45625 232.28125 26.815624Q232.53125 27.175 232.53125 27.721874Q232.53125 28.253124 232.21875 28.721874Q231.92188 29.175 231.34375 29.440624Q230.76562 29.690624 230.03125 29.690624Q228.8125 29.690624 228.17188 29.190624Q227.54688 28.675 227.375 27.690624ZM237.85938 28.784374Q237.26562 29.284374 236.71875 29.4875Q236.1875 29.690624 235.5625 29.690624Q234.53125 29.690624 233.98438 29.190624Q233.4375 28.690624 233.4375 27.909374Q233.4375 27.45625 233.64062 27.08125Q233.84375 26.690624 234.1875 26.471874Q234.53125 26.2375 234.95312 26.128124Q235.25 26.034374 235.89062 25.95625Q237.15625 25.815624 237.76562 25.596874Q237.76562 25.378124 237.76562 25.33125Q237.76562 24.675 237.46875 24.409374Q237.0625 24.065624 236.26562 24.065624Q235.53125 24.065624 235.17188 24.33125Q234.8125 24.58125 234.64062 25.2375L233.60938 25.096874Q233.75 24.440624 234.07812 24.034374Q234.40625 23.628124 235.01562 23.409374Q235.625 23.190624 236.42188 23.190624Q237.21875 23.190624 237.71875 23.378124Q238.21875 23.565624 238.45312 23.846874Q238.6875 24.128124 238.78125 24.565624Q238.82812 24.83125 238.82812 25.534374L238.82812 26.940624Q238.82812 28.409374 238.89062 28.8Q238.96875 29.190624 239.17188 29.55L238.0625 29.55Q237.90625 29.221874 237.85938 28.784374ZM237.76562 26.425Q237.1875 26.659374 236.04688 26.83125Q235.39062 26.925 235.125 27.05Q234.85938 27.159374 234.70312 27.378124Q234.5625 27.596874 234.5625 27.878124Q234.5625 28.3 234.875 28.58125Q235.20312 28.8625 235.8125 28.8625Q236.42188 28.8625 236.89062 28.596874Q237.375 28.33125 237.59375 27.8625Q237.76562 27.503124 237.76562 26.815624L237.76562 26.425ZM240.59375 30.065624L241.625 30.221874Q241.6875 30.690624 241.98438 30.909374Q242.375 31.20625 243.04688 31.20625Q243.78125 31.20625 244.17188 30.909374Q244.57812 30.6125 244.71875 30.096874Q244.8125 29.76875 244.79688 28.7375Q244.10938 29.55 243.07812 29.55Q241.79688 29.55 241.09375 28.628124Q240.39062 27.690624 240.39062 26.409374Q240.39062 25.51875 240.70312 24.76875Q241.03125 24.003124 241.64062 23.596874Q242.25 23.190624 243.07812 23.190624Q244.1875 23.190624 244.90625 24.08125L244.90625 23.33125L245.875 23.33125L245.875 28.70625Q245.875 30.159374 245.57812 30.76875Q245.28125 31.378124 244.64062 31.721874Q244.0 32.08125 243.0625 32.08125Q241.95312 32.08125 241.26562 31.58125Q240.57812 31.08125 240.59375 30.065624ZM241.46875 26.33125Q241.46875 27.55 241.95312 28.1125Q242.4375 28.675 243.17188 28.675Q243.90625 28.675 244.39062 28.1125Q244.89062 27.55 244.89062 26.3625Q244.89062 25.221874 244.375 24.64375Q243.875 24.065624 243.15625 24.065624Q242.45312 24.065624 241.95312 24.64375Q241.46875 25.20625 241.46875 26.33125ZM252.04688 27.55L253.14062 27.675Q252.89062 28.628124 252.1875 29.159374Q251.48438 29.690624 250.40625 29.690624Q249.04688 29.690624 248.23438 28.846874Q247.4375 28.003124 247.4375 26.4875Q247.4375 24.925 248.25 24.065624Q249.0625 23.190624 250.34375 23.190624Q251.59375 23.190624 252.375 24.034374Q253.17188 24.878124 253.17188 26.425Q253.17188 26.51875 253.17188 26.70625L248.53125 26.70625Q248.59375 27.7375 249.10938 28.284374Q249.625 28.815624 250.40625 28.815624Q250.98438 28.815624 251.39062 28.51875Q251.8125 28.20625 252.04688 27.55ZM248.59375 25.846874L252.0625 25.846874Q252.0 25.05 251.67188 24.659374Q251.15625 24.05 250.35938 24.05Q249.625 24.05 249.125 24.534374Q248.64062 25.01875 248.59375 25.846874ZM259.8125 32.08125Q258.9375 30.971874 258.32812 29.503124Q257.73438 28.01875 257.73438 26.440624Q257.73438 25.05 258.17188 23.76875Q258.70312 22.284374 259.8125 20.815624L260.5625 20.815624Q259.85938 22.034374 259.625 22.55Q259.26562 23.3625 259.0625 24.2375Q258.8125 25.33125 258.8125 26.440624Q258.8125 29.26875 260.5625 32.08125L259.8125 32.08125ZM261.875 29.55L261.875 20.95625L265.10938 20.95625Q266.09375 20.95625 266.6875 21.221874Q267.28125 21.4875 267.60938 22.034374Q267.95312 22.565624 267.95312 23.159374Q267.95312 23.70625 267.65625 24.190624Q267.35938 24.675 266.75 24.971874Q267.53125 25.20625 267.9375 25.76875Q268.35938 26.315624 268.35938 27.065624Q268.35938 27.659374 268.10938 28.190624Q267.85938 28.70625 267.48438 28.9875Q267.10938 29.26875 266.53125 29.409374Q265.96875 29.55 265.15625 29.55L261.875 29.55ZM263.01562 24.565624L264.875 24.565624Q265.625 24.565624 265.95312 24.471874Q266.39062 24.346874 266.60938 24.05Q266.82812 23.7375 266.82812 23.284374Q266.82812 22.8625 266.625 22.534374Q266.42188 22.20625 266.03125 22.096874Q265.65625 21.971874 264.73438 21.971874L263.01562 21.971874L263.01562 24.565624ZM263.01562 28.534374L265.15625 28.534374Q265.70312 28.534374 265.92188 28.4875Q266.32812 28.425 266.57812 28.26875Q266.84375 28.096874 267.01562 27.784374Q267.1875 27.471874 267.1875 27.065624Q267.1875 26.58125 266.9375 26.221874Q266.70312 25.8625 266.26562 25.721874Q265.82812 25.58125 265.0 25.58125L263.01562 25.58125L263.01562 28.534374ZM273.85938 28.784374Q273.26562 29.284374 272.71875 29.4875Q272.1875 29.690624 271.5625 29.690624Q270.53125 29.690624 269.98438 29.190624Q269.4375 28.690624 269.4375 27.909374Q269.4375 27.45625 269.64062 27.08125Q269.84375 26.690624 270.1875 26.471874Q270.53125 26.2375 270.95312 26.128124Q271.25 26.034374 271.89062 25.95625Q273.15625 25.815624 273.76562 25.596874Q273.76562 25.378124 273.76562 25.33125Q273.76562 24.675 273.46875 24.409374Q273.0625 24.065624 272.26562 24.065624Q271.53125 24.065624 271.17188 24.33125Q270.8125 24.58125 270.64062 25.2375L269.60938 25.096874Q269.75 24.440624 270.07812 24.034374Q270.40625 23.628124 271.01562 23.409374Q271.625 23.190624 272.42188 23.190624Q273.21875 23.190624 273.71875 23.378124Q274.21875 23.565624 274.45312 23.846874Q274.6875 24.128124 274.78125 24.565624Q274.82812 24.83125 274.82812 25.534374L274.82812 26.940624Q274.82812 28.409374 274.89062 28.8Q274.96875 29.190624 275.17188 29.55L274.0625 29.55Q273.90625 29.221874 273.85938 28.784374ZM273.76562 26.425Q273.1875 26.659374 272.04688 26.83125Q271.39062 26.925 271.125 27.05Q270.85938 27.159374 270.70312 27.378124Q270.5625 27.596874 270.5625 27.878124Q270.5625 28.3 270.875 28.58125Q271.20312 28.8625 271.8125 28.8625Q272.42188 28.8625 272.89062 28.596874Q273.375 28.33125 273.59375 27.8625Q273.76562 27.503124 273.76562 26.815624L273.76562 26.425ZM276.78125 29.55L276.78125 23.33125L277.73438 23.33125L277.73438 24.26875Q278.09375 23.6125 278.39062 23.409374Q278.70312 23.190624 279.07812 23.190624Q279.60938 23.190624 280.15625 23.51875L279.79688 24.503124Q279.40625 24.26875 279.03125 24.26875Q278.67188 24.26875 278.39062 24.4875Q278.125 24.690624 278.01562 25.065624Q277.82812 25.628124 277.82812 26.284374L277.82812 29.55L276.78125 29.55ZM285.04688 27.55L286.14062 27.675Q285.89062 28.628124 285.1875 29.159374Q284.48438 29.690624 283.40625 29.690624Q282.04688 29.690624 281.23438 28.846874Q280.4375 28.003124 280.4375 26.4875Q280.4375 24.925 281.25 24.065624Q282.0625 23.190624 283.34375 23.190624Q284.59375 23.190624 285.375 24.034374Q286.17188 24.878124 286.17188 26.425Q286.17188 26.51875 286.17188 26.70625L281.53125 26.70625Q281.59375 27.7375 282.10938 28.284374Q282.625 28.815624 283.40625 28.815624Q283.98438 28.815624 284.39062 28.51875Q284.8125 28.20625 285.04688 27.55ZM281.59375 25.846874L285.0625 25.846874Q285.0 25.05 284.67188 24.659374Q284.15625 24.05 283.35938 24.05Q282.625 24.05 282.125 24.534374Q281.64062 25.01875 281.59375 25.846874ZM288.48438 32.08125L287.73438 32.08125Q289.48438 29.26875 289.48438 26.440624Q289.48438 25.346874 289.23438 24.253124Q289.03125 23.378124 288.67188 22.565624Q288.4375 22.05 287.73438 20.815624L288.48438 20.815624Q289.57812 22.284374 290.10938 23.76875Q290.5625 25.05 290.5625 26.440624Q290.5625 28.01875 289.95312 29.503124Q289.34375 30.971874 288.48438 32.08125Z" fill-rule="nonzero"/><path stroke="#ea4335" stroke-width="4.0" stroke-linecap="butt" d="M307.0 25.55L319.0 25.55" fill-rule="nonzero"/><path fill="#1a1a1a" d="M327.54688 26.784374L328.60938 26.690624Q328.6875 27.346874 328.96875 27.753124Q329.25 28.159374 329.82812 28.425Q330.42188 28.675 331.15625 28.675Q331.79688 28.675 332.29688 28.4875Q332.79688 28.284374 333.03125 27.95625Q333.28125 27.6125 333.28125 27.221874Q333.28125 26.815624 333.04688 26.51875Q332.8125 26.20625 332.28125 26.003124Q331.92188 25.8625 330.73438 25.58125Q329.5625 25.3 329.09375 25.05Q328.46875 24.721874 328.17188 24.253124Q327.875 23.76875 327.875 23.175Q327.875 22.534374 328.23438 21.971874Q328.60938 21.39375 329.3125 21.1125Q330.03125 20.815624 330.89062 20.815624Q331.84375 20.815624 332.57812 21.128124Q333.3125 21.425 333.70312 22.034374Q334.09375 22.628124 334.125 23.378124L333.03125 23.45625Q332.9375 22.64375 332.42188 22.2375Q331.92188 21.815624 330.9375 21.815624Q329.90625 21.815624 329.4375 22.190624Q328.96875 22.565624 328.96875 23.096874Q328.96875 23.565624 329.29688 23.8625Q329.625 24.159374 331.0 24.471874Q332.39062 24.784374 332.90625 25.01875Q333.65625 25.378124 334.01562 25.909374Q334.375 26.425 334.375 27.128124Q334.375 27.815624 333.98438 28.425Q333.59375 29.01875 332.85938 29.3625Q332.125 29.690624 331.20312 29.690624Q330.03125 29.690624 329.23438 29.3625Q328.45312 29.01875 328.0 28.33125Q327.5625 27.64375 327.54688 26.784374ZM340.04688 27.55L341.14062 27.675Q340.89062 28.628124 340.1875 29.159374Q339.48438 29.690624 338.40625 29.690624Q337.04688 29.690624 336.23438 28.846874Q335.4375 28.003124 335.4375 26.4875Q335.4375 24.925 336.25 24.065624Q337.0625 23.190624 338.34375 23.190624Q339.59375 23.190624 340.375 24.034374Q341.17188 24.878124 341.17188 26.425Q341.17188 26.51875 341.17188 26.70625L336.53125 26.70625Q336.59375 27.7375 337.10938 28.284374Q337.625 28.815624 338.40625 28.815624Q338.98438 28.815624 339.39062 28.51875Q339.8125 28.20625 340.04688 27.55ZM336.59375 25.846874L340.0625 25.846874Q340.0 25.05 339.67188 24.659374Q339.15625 24.05 338.35938 24.05Q337.625 24.05 337.125 24.534374Q336.64062 25.01875 336.59375 25.846874ZM342.79688 29.55L342.79688 23.33125L343.73438 23.33125L343.73438 24.20625Q344.42188 23.190624 345.71875 23.190624Q346.28125 23.190624 346.75 23.39375Q347.23438 23.596874 347.46875 23.925Q347.70312 24.253124 347.79688 24.690624Q347.84375 24.9875 347.84375 25.721874L347.84375 29.55L346.79688 29.55L346.79688 25.76875Q346.79688 25.1125 346.67188 24.8Q346.54688 24.4875 346.23438 24.3Q345.92188 24.096874 345.5 24.096874Q344.82812 24.096874 344.32812 24.534374Q343.84375 24.95625 343.84375 26.14375L343.84375 29.55L342.79688 29.55ZM353.82812 29.55L353.82812 28.76875Q353.23438 29.690624 352.09375 29.690624Q351.34375 29.690624 350.71875 29.284374Q350.09375 28.8625 349.75 28.128124Q349.40625 27.39375 349.40625 26.440624Q349.40625 25.51875 349.71875 24.753124Q350.03125 23.9875 350.65625 23.596874Q351.28125 23.190624 352.04688 23.190624Q352.60938 23.190624 353.04688 23.425Q353.48438 23.659374 353.76562 24.034374L353.76562 20.95625L354.8125 20.95625L354.8125 29.55L353.82812 29.55ZM350.5 26.440624Q350.5 27.64375 351.0 28.2375Q351.5 28.815624 352.1875 28.815624Q352.875 28.815624 353.35938 28.253124Q353.84375 27.690624 353.84375 26.534374Q353.84375 25.253124 353.34375 24.659374Q352.85938 24.065624 352.14062 24.065624Q351.4375 24.065624 350.96875 24.64375Q350.5 25.20625 350.5 26.440624ZM359.89062 29.55L359.89062 20.95625L361.60938 20.95625L363.64062 27.034374Q363.92188 27.89375 364.04688 28.315624Q364.1875 27.846874 364.5 26.940624L366.5625 20.95625L368.09375 20.95625L368.09375 29.55L367.0 29.55L367.0 22.3625L364.5 29.55L363.46875 29.55L360.98438 22.2375L360.98438 29.55L359.89062 29.55ZM374.04688 27.55L375.14062 27.675Q374.89062 28.628124 374.1875 29.159374Q373.48438 29.690624 372.40625 29.690624Q371.04688 29.690624 370.23438 28.846874Q369.4375 28.003124 369.4375 26.4875Q369.4375 24.925 370.25 24.065624Q371.0625 23.190624 372.34375 23.190624Q373.59375 23.190624 374.375 24.034374Q375.17188 24.878124 375.17188 26.425Q375.17188 26.51875 375.17188 26.70625L370.53125 26.70625Q370.59375 27.7375 371.10938 28.284374Q371.625 28.815624 372.40625 28.815624Q372.98438 28.815624 373.39062 28.51875Q373.8125 28.20625 374.04688 27.55ZM370.59375 25.846874L374.0625 25.846874Q374.0 25.05 373.67188 24.659374Q373.15625 24.05 372.35938 24.05Q371.625 24.05 371.125 24.534374Q370.64062 25.01875 370.59375 25.846874ZM376.375 27.690624L377.40625 27.534374Q377.5 28.159374 377.89062 28.4875Q378.29688 28.815624 379.03125 28.815624Q379.75 28.815624 380.09375 28.534374Q380.45312 28.2375 380.45312 27.83125Q380.45312 27.471874 380.14062 27.26875Q379.92188 27.128124 379.0625 26.909374Q377.90625 26.6125 377.45312 26.409374Q377.01562 26.190624 376.78125 25.815624Q376.54688 25.440624 376.54688 24.971874Q376.54688 24.565624 376.73438 24.20625Q376.92188 23.846874 377.25 23.6125Q377.5 23.440624 377.92188 23.315624Q378.34375 23.190624 378.84375 23.190624Q379.5625 23.190624 380.10938 23.409374Q380.67188 23.6125 380.9375 23.971874Q381.20312 24.33125 381.29688 24.925L380.26562 25.065624Q380.20312 24.596874 379.85938 24.33125Q379.53125 24.05 378.90625 24.05Q378.1875 24.05 377.875 24.3Q377.5625 24.534374 377.5625 24.8625Q377.5625 25.065624 377.6875 25.221874Q377.82812 25.39375 378.09375 25.503124Q378.25 25.565624 379.03125 25.76875Q380.15625 26.08125 380.59375 26.26875Q381.03125 26.45625 381.28125 26.815624Q381.53125 27.175 381.53125 27.721874Q381.53125 28.253124 381.21875 28.721874Q380.92188 29.175 380.34375 29.440624Q379.76562 29.690624 379.03125 29.690624Q377.8125 29.690624 377.17188 29.190624Q376.54688 28.675 376.375 27.690624ZM382.375 27.690624L383.40625 27.534374Q383.5 28.159374 383.89062 28.4875Q384.29688 28.815624 385.03125 28.815624Q385.75 28.815624 386.09375 28.534374Q386.45312 28.2375 386.45312 27.83125Q386.45312 27.471874 386.14062 27.26875Q385.92188 27.128124 385.0625 26.909374Q383.90625 26.6125 383.45312 26.409374Q383.01562 26.190624 382.78125 25.815624Q382.54688 25.440624 382.54688 24.971874Q382.54688 24.565624 382.73438 24.20625Q382.92188 23.846874 383.25 23.6125Q383.5 23.440624 383.92188 23.315624Q384.34375 23.190624 384.84375 23.190624Q385.5625 23.190624 386.10938 23.409374Q386.67188 23.6125 386.9375 23.971874Q387.20312 24.33125 387.29688 24.925L386.26562 25.065624Q386.20312 24.596874 385.85938 24.33125Q385.53125 24.05 384.90625 24.05Q384.1875 24.05 383.875 24.3Q383.5625 24.534374 383.5625 24.8625Q383.5625 25.065624 383.6875 25.221874Q383.82812 25.39375 384.09375 25.503124Q384.25 25.565624 385.03125 25.76875Q386.15625 26.08125 386.59375 26.26875Q387.03125 26.45625 387.28125 26.815624Q387.53125 27.175 387.53125 27.721874Q387.53125 28.253124 387.21875 28.721874Q386.92188 29.175 386.34375 29.440624Q385.76562 29.690624 385.03125 29.690624Q383.8125 29.690624 383.17188 29.190624Q382.54688 28.675 382.375 27.690624ZM392.85938 28.784374Q392.26562 29.284374 391.71875 29.4875Q391.1875 29.690624 390.5625 29.690624Q389.53125 29.690624 388.98438 29.190624Q388.4375 28.690624 388.4375 27.909374Q388.4375 27.45625 388.64062 27.08125Q388.84375 26.690624 389.1875 26.471874Q389.53125 26.2375 389.95312 26.128124Q390.25 26.034374 390.89062 25.95625Q392.15625 25.815624 392.76562 25.596874Q392.76562 25.378124 392.76562 25.33125Q392.76562 24.675 392.46875 24.409374Q392.0625 24.065624 391.26562 24.065624Q390.53125 24.065624 390.17188 24.33125Q389.8125 24.58125 389.64062 25.2375L388.60938 25.096874Q388.75 24.440624 389.07812 24.034374Q389.40625 23.628124 390.01562 23.409374Q390.625 23.190624 391.42188 23.190624Q392.21875 23.190624 392.71875 23.378124Q393.21875 23.565624 393.45312 23.846874Q393.6875 24.128124 393.78125 24.565624Q393.82812 24.83125 393.82812 25.534374L393.82812 26.940624Q393.82812 28.409374 393.89062 28.8Q393.96875 29.190624 394.17188 29.55L393.0625 29.55Q392.90625 29.221874 392.85938 28.784374ZM392.76562 26.425Q392.1875 26.659374 391.04688 26.83125Q390.39062 26.925 390.125 27.05Q389.85938 27.159374 389.70312 27.378124Q389.5625 27.596874 389.5625 27.878124Q389.5625 28.3 389.875 28.58125Q390.20312 28.8625 390.8125 28.8625Q391.42188 28.8625 391.89062 28.596874Q392.375 28.33125 392.59375 27.8625Q392.76562 27.503124 392.76562 26.815624L392.76562 26.425ZM395.59375 30.065624L396.625 30.221874Q396.6875 30.690624 396.98438 30.909374Q397.375 31.20625 398.04688 31.20625Q398.78125 31.20625 399.17188 30.909374Q399.57812 30.6125 399.71875 30.096874Q399.8125 29.76875 399.79688 28.7375Q399.10938 29.55 398.07812 29.55Q396.79688 29.55 396.09375 28.628124Q395.39062 27.690624 395.39062 26.409374Q395.39062 25.51875 395.70312 24.76875Q396.03125 24.003124 396.64062 23.596874Q397.25 23.190624 398.07812 23.190624Q399.1875 23.190624 399.90625 24.08125L399.90625 23.33125L400.875 23.33125L400.875 28.70625Q400.875 30.159374 400.57812 30.76875Q400.28125 31.378124 399.64062 31.721874Q399.0 32.08125 398.0625 32.08125Q396.95312 32.08125 396.26562 31.58125Q395.57812 31.08125 395.59375 30.065624ZM396.46875 26.33125Q396.46875 27.55 396.95312 28.1125Q397.4375 28.675 398.17188 28.675Q398.90625 28.675 399.39062 28.1125Q399.89062 27.55 399.89062 26.3625Q399.89062 25.221874 399.375 24.64375Q398.875 24.065624 398.15625 24.065624Q397.45312 24.065624 396.95312 24.64375Q396.46875 25.20625 396.46875 26.33125ZM407.04688 27.55L408.14062 27.675Q407.89062 28.628124 407.1875 29.159374Q406.48438 29.690624 405.40625 29.690624Q404.04688 29.690624 403.23438 28.846874Q402.4375 28.003124 402.4375 26.4875Q402.4375 24.925 403.25 24.065624Q404.0625 23.190624 405.34375 23.190624Q406.59375 23.190624 407.375 24.034374Q408.17188 24.878124 408.17188 26.425Q408.17188 26.51875 408.17188 26.70625L403.53125 26.70625Q403.59375 27.7375 404.10938 28.284374Q404.625 28.815624 405.40625 28.815624Q405.98438 28.815624 406.39062 28.51875Q406.8125 28.20625 407.04688 27.55ZM403.59375 25.846874L407.0625 25.846874Q407.0 25.05 406.67188 24.659374Q406.15625 24.05 405.35938 24.05Q404.625 24.05 404.125 24.534374Q403.64062 25.01875 403.59375 25.846874ZM414.8125 32.08125Q413.9375 30.971874 413.32812 29.503124Q412.73438 28.01875 412.73438 26.440624Q412.73438 25.05 413.17188 23.76875Q413.70312 22.284374 414.8125 20.815624L415.5625 20.815624Q414.85938 22.034374 414.625 22.55Q414.26562 23.3625 414.0625 24.2375Q413.8125 25.33125 413.8125 26.440624Q413.8125 29.26875 415.5625 32.08125L414.8125 32.08125ZM416.875 29.55L416.875 20.95625L420.10938 20.95625Q421.09375 20.95625 421.6875 21.221874Q422.28125 21.4875 422.60938 22.034374Q422.95312 22.565624 422.95312 23.159374Q422.95312 23.70625 422.65625 24.190624Q422.35938 24.675 421.75 24.971874Q422.53125 25.20625 422.9375 25.76875Q423.35938 26.315624 423.35938 27.065624Q423.35938 27.659374 423.10938 28.190624Q422.85938 28.70625 422.48438 28.9875Q422.10938 29.26875 421.53125 29.409374Q420.96875 29.55 420.15625 29.55L416.875 29.55ZM418.01562 24.565624L419.875 24.565624Q420.625 24.565624 420.95312 24.471874Q421.39062 24.346874 421.60938 24.05Q421.82812 23.7375 421.82812 23.284374Q421.82812 22.8625 421.625 22.534374Q421.42188 22.20625 421.03125 22.096874Q420.65625 21.971874 419.73438 21.971874L418.01562 21.971874L418.01562 24.565624ZM418.01562 28.534374L420.15625 28.534374Q420.70312 28.534374 420.92188 28.4875Q421.32812 28.425 421.57812 28.26875Q421.84375 28.096874 422.01562 27.784374Q422.1875 27.471874 422.1875 27.065624Q422.1875 26.58125 421.9375 26.221874Q421.70312 25.8625 421.26562 25.721874Q420.82812 25.58125 420.0 25.58125L418.01562 25.58125L418.01562 28.534374ZM428.85938 28.784374Q428.26562 29.284374 427.71875 29.4875Q427.1875 29.690624 426.5625 29.690624Q425.53125 29.690624 424.98438 29.190624Q424.4375 28.690624 424.4375 27.909374Q424.4375 27.45625 424.64062 27.08125Q424.84375 26.690624 425.1875 26.471874Q425.53125 26.2375 425.95312 26.128124Q426.25 26.034374 426.89062 25.95625Q428.15625 25.815624 428.76562 25.596874Q428.76562 25.378124 428.76562 25.33125Q428.76562 24.675 428.46875 24.409374Q428.0625 24.065624 427.26562 24.065624Q426.53125 24.065624 426.17188 24.33125Q425.8125 24.58125 425.64062 25.2375L424.60938 25.096874Q424.75 24.440624 425.07812 24.034374Q425.40625 23.628124 426.01562 23.409374Q426.625 23.190624 427.42188 23.190624Q428.21875 23.190624 428.71875 23.378124Q429.21875 23.565624 429.45312 23.846874Q429.6875 24.128124 429.78125 24.565624Q429.82812 24.83125 429.82812 25.534374L429.82812 26.940624Q429.82812 28.409374 429.89062 28.8Q429.96875 29.190624 430.17188 29.55L429.0625 29.55Q428.90625 29.221874 428.85938 28.784374ZM428.76562 26.425Q428.1875 26.659374 427.04688 26.83125Q426.39062 26.925 426.125 27.05Q425.85938 27.159374 425.70312 27.378124Q425.5625 27.596874 425.5625 27.878124Q425.5625 28.3 425.875 28.58125Q426.20312 28.8625 426.8125 28.8625Q427.42188 28.8625 427.89062 28.596874Q428.375 28.33125 428.59375 27.8625Q428.76562 27.503124 428.76562 26.815624L428.76562 26.425ZM431.375 27.690624L432.40625 27.534374Q432.5 28.159374 432.89062 28.4875Q433.29688 28.815624 434.03125 28.815624Q434.75 28.815624 435.09375 28.534374Q435.45312 28.2375 435.45312 27.83125Q435.45312 27.471874 435.14062 27.26875Q434.92188 27.128124 434.0625 26.909374Q432.90625 26.6125 432.45312 26.409374Q432.01562 26.190624 431.78125 25.815624Q431.54688 25.440624 431.54688 24.971874Q431.54688 24.565624 431.73438 24.20625Q431.92188 23.846874 432.25 23.6125Q432.5 23.440624 432.92188 23.315624Q433.34375 23.190624 433.84375 23.190624Q434.5625 23.190624 435.10938 23.409374Q435.67188 23.6125 435.9375 23.971874Q436.20312 24.33125 436.29688 24.925L435.26562 25.065624Q435.20312 24.596874 434.85938 24.33125Q434.53125 24.05 433.90625 24.05Q433.1875 24.05 432.875 24.3Q432.5625 24.534374 432.5625 24.8625Q432.5625 25.065624 432.6875 25.221874Q432.82812 25.39375 433.09375 25.503124Q433.25 25.565624 434.03125 25.76875Q435.15625 26.08125 435.59375 26.26875Q436.03125 26.45625 436.28125 26.815624Q436.53125 27.175 436.53125 27.721874Q436.53125 28.253124 436.21875 28.721874Q435.92188 29.175 435.34375 29.440624Q434.76562 29.690624 434.03125 29.690624Q432.8125 29.690624 432.17188 29.190624Q431.54688 28.675 431.375 27.690624ZM442.04688 27.55L443.14062 27.675Q442.89062 28.628124 442.1875 29.159374Q441.48438 29.690624 440.40625 29.690624Q439.04688 29.690624 438.23438 28.846874Q437.4375 28.003124 437.4375 26.4875Q437.4375 24.925 438.25 24.065624Q439.0625 23.190624 440.34375 23.190624Q441.59375 23.190624 442.375 24.034374Q443.17188 24.878124 443.17188 26.425Q443.17188 26.51875 443.17188 26.70625L438.53125 26.70625Q438.59375 27.7375 439.10938 28.284374Q439.625 28.815624 440.40625 28.815624Q440.98438 28.815624 441.39062 28.51875Q441.8125 28.20625 442.04688 27.55ZM438.59375 25.846874L442.0625 25.846874Q442.0 25.05 441.67188 24.659374Q441.15625 24.05 440.35938 24.05Q439.625 24.05 439.125 24.534374Q438.64062 25.01875 438.59375 25.846874ZM445.48438 32.08125L444.73438 32.08125Q446.48438 29.26875 446.48438 26.440624Q446.48438 25.346874 446.23438 24.253124Q446.03125 23.378124 445.67188 22.565624Q445.4375 22.05 444.73438 20.815624L445.48438 20.815624Q446.57812 22.284374 447.10938 23.76875Q447.5625 25.05 447.5625 26.440624Q447.5625 28.01875 446.95312 29.503124Q446.34375 30.971874 445.48438 32.08125Z" fill-rule="nonzero"/></svg>