<svg version="1.1" viewBox="0.0 0.0 600.0 371.0" fill="none" stroke="none" stroke-linecap="square" stroke-miterlimit="10" width="600" height="371" xmlns:xlink="http://www.w3.org/1999/xlink" xmlns="http://www.w3.org/2000/svg"><path fill="#ffffff" d="M0 0L600.0 0L600.0 371.0L0 371.0L0 0Z" fill-rule="nonzero"/><path stroke="#cccccc" stroke-width="1.0" stroke-linecap="butt" d="M177.5 61.5L177.5 300.5" fill-rule="nonzero"/><path stroke="#cccccc" stroke-width="1.0" stroke-linecap="butt" d="M278.5 61.5L278.5 300.5" fill-rule="nonzero"/><path stroke="#cccccc" stroke-width="1.0" stroke-linecap="butt" d="M379.5 61.5L379.5 300.5" fill-rule="nonzero"/><path stroke="#cccccc" stroke-width="1.0" stroke-linecap="butt" d="M480.5 61.5L480.5 300.5" fill-rule="nonzero"/><path stroke="#cccccc" stroke-width="1.0" stroke-linecap="butt" d="M581.5 61.5L581.5 300.5" fill-rule="nonzero"/><path stroke="#333333" stroke-width="1.0" stroke-linecap="butt" d="M77.5 300.5L581.5 300.5" fill-rule="nonzero"/><path stroke="#cccccc" stroke-width="1.0" stroke-linecap="butt" d="M77.5 240.5L581.5 240.5" fill-rule="nonzero"/><path stroke="#cccccc" stroke-width="1.0" stroke-linecap="butt" d="M77.5 181.5L581.5 181.5" fill-rule="nonzero"/><path stroke="#cccccc" stroke-width="1.0" stroke-linecap="butt" d="M77.5 121.5L581.5 121.5" fill-rule="nonzero"/><path stroke="#cccccc" stroke-width="1.0" stroke-linecap="butt" d="M77.5 61.5L581.5 61.5" fill-rule="nonzero"/><clipPath id="id_0"><path d="M77.55 61.916668L581.45 61.916668L581.45 300.45L77.55 300.45L77.55 61.916668Z" clip-rule="nonzero"/></clipPath><path stroke="#4285f4" stroke-width="2.0" stroke-linecap="butt" clip-path="url(#id_0)" d="M77.55 299.58636L78.05491 299.3257L78.55982 299.0834L79.06473 298.84546L79.56964 298.64252L80.07455 298.39166L80.57946 298.1354L81.084366 297.9212L81.58928 297.64728L86.638374 295.21692L91.68748 292.91144L96.73657 290.53503L101.785675 288.1275L127.031166 276.24973L177.52214 251.26172L228.01312 227.52255L278.50412 202.52919L328.9951 181.47037L581.45 63.29474" fill-rule="nonzero"/><path stroke="#ff00ff" stroke-width="2.0" stroke-linecap="butt" stroke-opacity="0.4" clip-path="url(#id_0)" d="M0 335.87054L581.45 62.1693" fill-rule="nonzero"/><path fill="#000000" fill-opacity="0.0" clip-path="url(#id_0)" d="M80.55 299.58636C80.55 301.24323 79.206856 302.58636 77.55 302.58636C75.89314 302.58636 74.55 301.24323 74.55 299.58636C74.55 297.9295 75.89314 296.58636 77.55 296.58636C79.206856 296.58636 80.55 297.9295 80.55 299.58636Z" fill-rule="nonzero"/><path fill="#000000" fill-opacity="0.0" clip-path="url(#id_0)" d="M81.05491 299.3257C81.05491 300.98257 79.71176 302.3257 78.05491 302.3257C76.398056 302.3257 75.05491 300.98257 75.05491 299.3257C75.05491 297.66885 76.398056 296.3257 78.05491 296.3257C79.71176 296.3257 81.05491 297.66885 81.05491 299.3257Z" fill-rule="nonzero"/><path fill="#000000" fill-opacity="0.0" clip-path="url(#id_0)" d="M81.55982 299.0834C81.55982 300.74026 80.216675 302.0834 78.55982 302.0834C76.90296 302.0834 75.55982 300.74026 75.55982 299.0834C75.55982 297.42654 76.90296 296.0834 78.55982 296.0834C80.216675 296.0834 81.55982 297.42654 81.55982 299.0834Z" fill-rule="nonzero"/><path fill="#000000" fill-opacity="0.0" clip-path="url(#id_0)" d="M82.06473 298.84546C82.06473 300.50232 80.72158 301.84546 79.06473 301.84546C77.407875 301.84546 76.06473 300.50232 76.06473 298.84546C76.06473 297.1886 77.407875 295.84546 79.06473 295.84546C80.72158 295.84546 82.06473 297.1886 82.06473 298.84546Z" fill-rule="nonzero"/><path fill="#000000" fill-opacity="0.0" clip-path="url(#id_0)" d="M82.56964 298.64252C82.56964 300.29938 81.226494 301.64252 79.56964 301.64252C77.91279 301.64252 76.56964 300.29938 76.56964 298.64252C76.56964 296.98566 77.91279 295.64252 79.56964 295.64252C81.226494 295.64252 82.56964 296.98566 82.56964 298.64252Z" fill-rule="nonzero"/><path fill="#000000" fill-opacity="0.0" clip-path="url(#id_0)" d="M83.07455 298.39166C83.07455 300.04852 81.7314 301.39166 80.07455 301.39166C78.417694 301.39166 77.07455 300.04852 77.07455 298.39166C77.07455 296.7348 78.417694 295.39166 80.07455 295.39166C81.7314 295.39166 83.07455 296.7348 83.07455 298.39166Z" fill-rule="nonzero"/><path fill="#000000" fill-opacity="0.0" clip-path="url(#id_0)" d="M83.57946 298.1354C83.57946 299.79224 82.23631 301.1354 80.57946 301.1354C78.92261 301.1354 77.57946 299.79224 77.57946 298.1354C77.57946 296.47855 78.92261 295.1354 80.57946 295.1354C82.23631 295.1354 83.57946 296.47855 83.57946 298.1354Z" fill-rule="nonzero"/><path fill="#000000" fill-opacity="0.0" clip-path="url(#id_0)" d="M84.084366 297.9212C84.084366 299.57803 82.74123 300.9212 81.084366 300.9212C79.42751 300.9212 78.084366 299.57803 78.084366 297.9212C78.084366 296.26434 79.42751 294.9212 81.084366 294.9212C82.74123 294.9212 84.084366 296.26434 84.084366 297.9212Z" fill-rule="nonzero"/><path fill="#000000" fill-opacity="0.0" clip-path="url(#id_0)" d="M84.58928 297.64728C84.58928 299.3041 83.24613 300.64728 81.58928 300.64728C79.93243 300.64728 78.58928 299.3041 78.58928 297.64728C78.58928 295.99042 79.93243 294.64728 81.58928 294.64728C83.24613 294.64728 84.58928 295.99042 84.58928 297.64728Z" fill-rule="nonzero"/><path fill="#000000" fill-opacity="0.0" clip-path="url(#id_0)" d="M89.638374 295.21692C89.638374 296.87378 88.295235 298.21692 86.638374 298.21692C84.98152 298.21692 83.638374 296.87378 83.638374 295.21692C83.638374 293.5601 84.98152 292.21692 86.638374 292.21692C88.295235 292.21692 89.638374 293.5601 89.638374 295.21692Z" fill-rule="nonzero"/><path fill="#000000" fill-opacity="0.0" clip-path="url(#id_0)" d="M94.68748 292.91144C94.68748 294.5683 93.34433 295.91144 91.68748 295.91144C90.030624 295.91144 88.68748 294.5683 88.68748 292.91144C88.68748 291.25458 90.030624 289.91144 91.68748 289.91144C93.34433 289.91144 94.68748 291.25458 94.68748 292.91144Z" fill-rule="nonzero"/><path fill="#000000" fill-opacity="0.0" clip-path="url(#id_0)" d="M99.73657 290.53503C99.73657 292.19186 98.393425 293.53503 96.73657 293.53503C95.07972 293.53503 93.73657 292.19186 93.73657 290.53503C93.73657 288.87817 95.07972 287.53503 96.73657 287.53503C98.393425 287.53503 99.73657 288.87817 99.73657 290.53503Z" fill-rule="nonzero"/><path fill="#000000" fill-opacity="0.0" clip-path="url(#id_0)" d="M104.785675 288.1275C104.785675 289.78436 103.44253 291.1275 101.785675 291.1275C100.128815 291.1275 98.785675 289.78436 98.785675 288.1275C98.785675 286.47064 100.128815 285.1275 101.785675 285.1275C103.44253 285.1275 104.785675 286.47064 104.785675 288.1275Z" fill-rule="nonzero"/><path fill="#000000" fill-opacity="0.0" clip-path="url(#id_0)" d="M130.03116 276.24973C130.03116 277.9066 128.68802 279.24973 127.031166 279.24973C125.374306 279.24973 124.031166 277.9066 124.031166 276.24973C124.031166 274.59286 125.374306 273.24973 127.031166 273.24973C128.68802 273.24973 130.03116 274.59286 130.03116 276.24973Z" fill-rule="nonzero"/><path fill="#000000" fill-opacity="0.0" clip-path="url(#id_0)" d="M180.52214 251.26172C180.52214 252.91858 179.179 254.26172 177.52214 254.26172C175.8653 254.26172 174.52214 252.91858 174.52214 251.26172C174.52214 249.60487 175.8653 248.26172 177.52214 248.26172C179.179 248.26172 180.52214 249.60487 180.52214 251.26172Z" fill-rule="nonzero"/><path fill="#000000" fill-opacity="0.0" clip-path="url(#id_0)" d="M231.01312 227.52255C231.01312 229.1794 229.66998 230.52255 228.01312 230.52255C226.35628 230.52255 225.01312 229.1794 225.01312 227.52255C225.01312 225.86569 226.35628 224.52255 228.01312 224.52255C229.66998 224.52255 231.01312 225.86569 231.01312 227.52255Z" fill-rule="nonzero"/><path fill="#000000" fill-opacity="0.0" clip-path="url(#id_0)" d="M281.50412 202.52919C281.50412 204.18604 280.16095 205.52919 278.50412 205.52919C276.84726 205.52919 275.50412 204.18604 275.50412 202.52919C275.50412 200.87233 276.84726 199.52919 278.50412 199.52919C280.16095 199.52919 281.50412 200.87233 281.50412 202.52919Z" fill-rule="nonzero"/><path fill="#000000" fill-opacity="0.0" clip-path="url(#id_0)" d="M331.9951 181.47037C331.9951 183.12721 330.65195 184.47037 328.9951 184.47037C327.33823 184.47037 325.9951 183.12721 325.9951 181.47037C325.9951 179.8135 327.33823 178.47037 328.9951 178.47037C330.65195 178.47037 331.9951 179.8135 331.9951 181.47037Z" fill-rule="nonzero"/><path fill="#000000" fill-opacity="0.0" clip-path="url(#id_0)" d="M584.45 63.29474C584.45 64.95159 583.1069 66.29474 581.45 66.29474C579.79315 66.29474 578.45 64.95159 578.45 63.29474C578.45 61.637886 579.79315 60.29474 581.45 60.29474C583.1069 60.29474 584.45 61.637886 584.45 63.29474Z" fill-rule="nonzero"/><path fill="#000000" d="M303.95312 346.075L303.95312 345.075L307.57812 345.0594L307.57812 348.2469Q306.75 348.91876 305.85938 349.2625Q304.96875 349.59064 304.03125 349.59064Q302.76562 349.59064 301.71875 349.0594Q300.6875 348.5125 300.15625 347.4969Q299.64062 346.46564 299.64062 345.2Q299.64062 343.9344 300.15625 342.85626Q300.6875 341.7625 301.67188 341.2469Q302.65625 340.71564 303.9375 340.71564Q304.875 340.71564 305.625 341.0125Q306.375 341.3094 306.79688 341.85626Q307.23438 342.3875 307.45312 343.2625L306.4375 343.54376Q306.23438 342.8875 305.9375 342.5125Q305.65625 342.1375 305.125 341.91876Q304.59375 341.6844 303.95312 341.6844Q303.17188 341.6844 302.59375 341.91876Q302.03125 342.15314 301.67188 342.54376Q301.32812 342.9344 301.14062 343.40314Q300.8125 344.2 300.8125 345.1219Q300.8125 346.27814 301.20312 347.0594Q301.60938 347.825 302.35938 348.2Q303.10938 348.575 303.96875 348.575Q304.70312 348.575 305.40625 348.29376Q306.10938 347.9969 306.46875 347.6844L306.46875 346.075L303.95312 346.075ZM308.78125 349.45L308.78125 343.23126L309.73438 343.23126L309.73438 344.16876Q310.09375 343.5125 310.39062 343.3094Q310.70312 343.09064 311.07812 343.09064Q311.60938 343.09064 312.15625 343.41876L311.79688 344.40314Q311.40625 344.16876 311.03125 344.16876Q310.67188 344.16876 310.39062 344.3875Q310.125 344.59064 310.01562 344.96564Q309.82812 345.52814 309.82812 346.1844L309.82812 349.45L308.78125 349.45ZM312.40625 346.34064Q312.40625 344.60626 313.35938 343.77814Q314.15625 343.09064 315.3125 343.09064Q316.59375 343.09064 317.40625 343.9344Q318.23438 344.7625 318.23438 346.2469Q318.23438 347.45 317.875 348.1375Q317.51562 348.825 316.8125 349.21564Q316.125 349.59064 315.3125 349.59064Q314.01562 349.59064 313.20312 348.7625Q312.40625 347.91876 312.40625 346.34064ZM313.48438 346.34064Q313.48438 347.52814 314.0 348.1219Q314.53125 348.71564 315.3125 348.71564Q316.10938 348.71564 316.625 348.1219Q317.14062 347.52814 317.14062 346.3094Q317.14062 345.15314 316.60938 344.5594Q316.09375 343.96564 315.3125 343.96564Q314.53125 343.96564 314.0 344.5594Q313.48438 345.1375 313.48438 346.34064ZM323.875 349.45L323.875 348.52814Q323.14062 349.59064 321.89062 349.59064Q321.34375 349.59064 320.85938 349.3875Q320.39062 349.16876 320.15625 348.85626Q319.92188 348.52814 319.82812 348.0594Q319.76562 347.7625 319.76562 347.075L319.76562 343.23126L320.82812 343.23126L320.82812 346.6844Q320.82812 347.4969 320.89062 347.79376Q320.98438 348.2 321.29688 348.45Q321.625 348.6844 322.10938 348.6844Q322.57812 348.6844 322.98438 348.45Q323.40625 348.2 323.57812 347.77814Q323.76562 347.35626 323.76562 346.5594L323.76562 343.23126L324.8125 343.23126L324.8125 349.45L323.875 349.45ZM326.79688 351.84064L326.79688 343.23126L327.75 343.23126L327.75 344.02814Q328.09375 343.5594 328.51562 343.325Q328.95312 343.09064 329.5625 343.09064Q330.35938 343.09064 330.96875 343.4969Q331.57812 343.90314 331.875 344.65314Q332.1875 345.40314 332.1875 346.29376Q332.1875 347.2469 331.84375 348.0125Q331.51562 348.77814 330.85938 349.1844Q330.20312 349.59064 329.48438 349.59064Q328.95312 349.59064 328.53125 349.3719Q328.10938 349.1375 327.84375 348.8094L327.84375 351.84064L326.79688 351.84064ZM327.75 346.3719Q327.75 347.575 328.23438 348.15314Q328.71875 348.71564 329.40625 348.71564Q330.10938 348.71564 330.60938 348.1219Q331.10938 347.52814 331.10938 346.27814Q331.10938 345.09064 330.625 344.5125Q330.14062 343.91876 329.45312 343.91876Q328.78125 343.91876 328.26562 344.54376Q327.75 345.16876 327.75 346.3719ZM336.54688 346.6844L337.60938 346.59064Q337.6875 347.2469 337.96875 347.65314Q338.25 348.0594 338.82812 348.325Q339.42188 348.575 340.15625 348.575Q340.79688 348.575 341.29688 348.3875Q341.79688 348.1844 342.03125 347.85626Q342.28125 347.5125 342.28125 347.1219Q342.28125 346.71564 342.04688 346.41876Q341.8125 346.10626 341.28125 345.90314Q340.92188 345.7625 339.73438 345.48126Q338.5625 345.2 338.09375 344.95Q337.46875 344.6219 337.17188 344.15314Q336.875 343.66876 336.875 343.075Q336.875 342.4344 337.23438 341.8719Q337.60938 341.29376 338.3125 341.0125Q339.03125 340.71564 339.89062 340.71564Q340.84375 340.71564 341.57812 341.02814Q342.3125 341.325 342.70312 341.9344Q343.09375 342.52814 343.125 343.27814L342.03125 343.35626Q341.9375 342.54376 341.42188 342.1375Q340.92188 341.71564 339.9375 341.71564Q338.90625 341.71564 338.4375 342.09064Q337.96875 342.46564 337.96875 342.9969Q337.96875 343.46564 338.29688 343.7625Q338.625 344.0594 340.0 344.3719Q341.39062 344.6844 341.90625 344.91876Q342.65625 345.27814 343.01562 345.8094Q343.375 346.325 343.375 347.02814Q343.375 347.71564 342.98438 348.325Q342.59375 348.91876 341.85938 349.2625Q341.125 349.59064 340.20312 349.59064Q339.03125 349.59064 338.23438 349.2625Q337.45312 348.91876 337.0 348.23126Q336.5625 347.54376 336.54688 346.6844ZM344.79688 342.075L344.79688 340.85626L345.85938 340.85626L345.85938 342.075L344.79688 342.075ZM344.79688 349.45L344.79688 343.23126L345.85938 343.23126L345.85938 349.45L344.79688 349.45ZM347.23438 349.45L347.23438 348.59064L351.20312 344.04376Q350.51562 344.075 350.0 344.075L347.46875 344.075L347.46875 343.23126L352.5625 343.23126L352.5625 343.91876L349.1875 347.8719L348.53125 348.59064Q349.25 348.54376 349.85938 348.54376L352.75 348.54376L352.75 349.45L347.23438 349.45ZM358.04688 347.45L359.14062 347.575Q358.89062 348.52814 358.1875 349.0594Q357.48438 349.59064 356.40625 349.59064Q355.04688 349.59064 354.23438 348.7469Q353.4375 347.90314 353.4375 346.3875Q353.4375 344.825 354.25 343.96564Q355.0625 343.09064 356.34375 343.09064Q357.59375 343.09064 358.375 343.9344Q359.17188 344.77814 359.17188 346.325Q359.17188 346.41876 359.17188 346.60626L354.53125 346.60626Q354.59375 347.6375 355.10938 348.1844Q355.625 348.71564 356.40625 348.71564Q356.98438 348.71564 357.39062 348.41876Q357.8125 348.10626 358.04688 347.45ZM354.59375 345.7469L358.0625 345.7469Q358.0 344.95 357.67188 344.5594Q357.15625 343.95 356.35938 343.95Q355.625 343.95 355.125 344.4344Q354.64062 344.91876 354.59375 345.7469Z" fill-rule="nonzero"/><path fill="#000000" d="M29.550013 209.07396L21.971888 209.07396L21.971888 211.90208L20.956263 211.90208L20.956263 205.08958L21.971888 205.08958L21.971888 207.93333L29.550013 207.93333L29.550013 209.07396ZM22.175013 204.38646L20.956263 204.38646L20.956263 203.32396L22.175013 203.32396L22.175013 204.38646ZM29.550013 204.38646L23.331263 204.38646L23.331263 203.32396L29.550013 203.32396L29.550013 204.38646ZM29.550013 201.38646L23.331263 201.38646L23.331263 200.44896L24.206263 200.44896Q23.737513 200.15208 23.471888 199.66771Q23.190638 199.18333 23.190638 198.55833Q23.190638 197.87083 23.471888 197.43333Q23.753138 196.98021 24.268763 196.80833Q23.190638 196.05833 23.190638 194.88646Q23.190638 193.94896 23.706263 193.46458Q24.206263 192.96458 25.284388 192.96458L29.550013 192.96458L29.550013 194.01146L25.628138 194.01146Q25.003138 194.01146 24.721888 194.12083Q24.440638 194.21458 24.268763 194.48021Q24.096888 194.74583 24.096888 195.12083Q24.096888 195.77708 24.534388 196.21458Q24.971888 196.63646 25.940638 196.63646L29.550013 196.63646L29.550013 197.69896L25.503138 197.69896Q24.800013 197.69896 24.456263 197.96458Q24.096888 198.21458 24.096888 198.79271Q24.096888 199.24583 24.331263 199.62083Q24.565638 199.99583 25.018763 200.16771Q25.471888 200.33958 26.315638 200.33958L29.550013 200.33958L29.550013 201.38646ZM27.550013 187.13646L27.675013 186.04271Q28.628138 186.29271 29.159388 186.99583Q29.690638 187.69896 29.690638 188.77708Q29.690638 190.13646 28.846888 190.94896Q28.003138 191.74583 26.487513 191.74583Q24.925013 191.74583 24.065638 190.93333Q23.190638 190.12083 23.190638 188.83958Q23.190638 187.58958 24.034388 186.80833Q24.878138 186.01146 26.425013 186.01146Q26.518763 186.01146 26.706263 186.01146L26.706263 190.65208Q27.737513 190.58958 28.284388 190.07396Q28.815638 189.55833 28.815638 188.77708Q28.815638 188.19896 28.518763 187.79271Q28.206263 187.37083 27.550013 187.13646ZM25.846888 190.58958L25.846888 187.12083Q25.050013 187.18333 24.659388 187.51146Q24.050013 188.02708 24.050013 188.82396Q24.050013 189.55833 24.534388 190.05833Q25.018763 190.54271 25.846888 190.58958ZM22.175013 181.38646L20.956263 181.38646L20.956263 180.32396L22.175013 180.32396L22.175013 181.38646ZM29.550013 181.38646L23.331263 181.38646L23.331263 180.32396L29.550013 180.32396L29.550013 181.38646ZM29.550013 178.38646L23.331263 178.38646L23.331263 177.44896L24.206263 177.44896Q23.190638 176.76146 23.190638 175.46458Q23.190638 174.90208 23.393763 174.43333Q23.596888 173.94896 23.925013 173.71458Q24.253138 173.48021 24.690638 173.38646Q24.987513 173.33958 25.721888 173.33958L29.550013 173.33958L29.550013 174.38646L25.768763 174.38646Q25.112513 174.38646 24.800013 174.51146Q24.487513 174.63646 24.300013 174.94896Q24.096888 175.26146 24.096888 175.68333Q24.096888 176.35521 24.534388 176.85521Q24.956263 177.33958 26.143763 177.33958L29.550013 177.33958L29.550013 178.38646ZM27.690638 168.80833L27.534388 167.77708Q28.159388 167.68333 28.487513 167.29271Q28.815638 166.88646 28.815638 166.15208Q28.815638 165.43333 28.534388 165.08958Q28.237513 164.73021 27.831263 164.73021Q27.471888 164.73021 27.268763 165.04271Q27.128138 165.26146 26.909388 166.12083Q26.612513 167.27708 26.409388 167.73021Q26.190638 168.16771 25.815638 168.40208Q25.440638 168.63646 24.971888 168.63646Q24.565638 168.63646 24.206263 168.44896Q23.846888 168.26146 23.612513 167.93333Q23.440638 167.68333 23.315638 167.26146Q23.190638 166.83958 23.190638 166.33958Q23.190638 165.62083 23.409388 165.07396Q23.612513 164.51146 23.971888 164.24583Q24.331263 163.98021 24.925013 163.88646L25.065638 164.91771Q24.596888 164.98021 24.331263 165.32396Q24.050013 165.65208 24.050013 166.27708Q24.050013 166.99583 24.300013 167.30833Q24.534388 167.62083 24.862513 167.62083Q25.065638 167.62083 25.221888 167.49583Q25.393763 167.35521 25.503138 167.08958Q25.565638 166.93333 25.768763 166.15208Q26.081263 165.02708 26.268763 164.58958Q26.456263 164.15208 26.815638 163.90208Q27.175013 163.65208 27.721888 163.65208Q28.253138 163.65208 28.721888 163.96458Q29.175013 164.26146 29.440638 164.83958Q29.690638 165.41771 29.690638 166.15208Q29.690638 167.37083 29.190638 168.01146Q28.675013 168.63646 27.690638 168.80833Z" fill-rule="nonzero"/><path fill="#000000" d="M55.05 300.21564Q55.05 298.6844 55.3625 297.7625Q55.675 296.825 56.284374 296.325Q56.909374 295.825 57.846874 295.825Q58.534374 295.825 59.05 296.10626Q59.58125 296.3875 59.925 296.91876Q60.26875 297.4344 60.45625 298.1844Q60.64375 298.9344 60.64375 300.21564Q60.64375 301.73126 60.33125 302.65314Q60.034374 303.575 59.409374 304.09064Q58.8 304.59064 57.846874 304.59064Q56.6125 304.59064 55.89375 303.7Q55.05 302.6375 55.05 300.21564ZM56.128124 300.21564Q56.128124 302.325 56.628124 303.02814Q57.128124 303.73126 57.846874 303.73126Q58.58125 303.73126 59.065624 303.02814Q59.565624 302.325 59.565624 300.21564Q59.565624 298.09064 59.065624 297.40314Q58.58125 296.7 57.83125 296.7Q57.1125 296.7 56.675 297.3094Q56.128124 298.09064 56.128124 300.21564ZM62.64375 304.45L62.64375 303.2469L63.846874 303.2469L63.846874 304.45L62.64375 304.45ZM65.05 300.21564Q65.05 298.6844 65.3625 297.7625Q65.675 296.825 66.28438 296.325Q66.90938 295.825 67.84688 295.825Q68.53438 295.825 69.05 296.10626Q69.58125 296.3875 69.925 296.91876Q70.26875 297.4344 70.45625 298.1844Q70.64375 298.9344 70.64375 300.21564Q70.64375 301.73126 70.33125 302.65314Q70.03438 303.575 69.40938 304.09064Q68.8 304.59064 67.84688 304.59064Q66.6125 304.59064 65.89375 303.7Q65.05 302.6375 65.05 300.21564ZM66.12813 300.21564Q66.12813 302.325 66.62813 303.02814Q67.12813 303.73126 67.84688 303.73126Q68.58125 303.73126 69.06563 303.02814Q69.56563 302.325 69.56563 300.21564Q69.56563 298.09064 69.06563 297.40314Q68.58125 296.7 67.83125 296.7Q67.1125 296.7 66.675 297.3094Q66.12813 298.09064 66.12813 300.21564Z" fill-rule="nonzero"/><path fill="#000000" d="M55.05 240.58229Q55.05 239.05104 55.3625 238.12917Q55.675 237.19167 56.284374 236.69167Q56.909374 236.19167 57.846874 236.19167Q58.534374 236.19167 59.05 236.47292Q59.58125 236.75417 59.925 237.28542Q60.26875 237.80104 60.45625 238.55104Q60.64375 239.30104 60.64375 240.58229Q60.64375 242.09792 60.33125 243.01979Q60.034374 243.94167 59.409374 244.45729Q58.8 244.95729 57.846874 244.95729Q56.6125 244.95729 55.89375 244.06667Q55.05 243.00417 55.05 240.58229ZM56.128124 240.58229Q56.128124 242.69167 56.628124 243.39479Q57.128124 244.09792 57.846874 244.09792Q58.58125 244.09792 59.065624 243.39479Q59.565624 242.69167 59.565624 240.58229Q59.565624 238.45729 59.065624 237.76979Q58.58125 237.06667 57.83125 237.06667Q57.1125 237.06667 56.675 237.67604Q56.128124 238.45729 56.128124 240.58229ZM62.64375 244.81667L62.64375 243.61354L63.846874 243.61354L63.846874 244.81667L62.64375 244.81667ZM69.01875 244.81667L67.97188 244.81667L67.97188 238.09792Q67.58125 238.45729 66.95625 238.83229Q66.34688 239.19167 65.8625 239.36354L65.8625 238.34792Q66.7375 237.92604 67.39375 237.34792Q68.06563 236.75417 68.34688 236.19167L69.01875 236.19167L69.01875 244.81667Z" fill-rule="nonzero"/><path fill="#000000" d="M55.05 180.94896Q55.05 179.41771 55.3625 178.49583Q55.675 177.55833 56.284374 177.05833Q56.909374 176.55833 57.846874 176.55833Q58.534374 176.55833 59.05 176.83958Q59.58125 177.12083 59.925 177.65208Q60.26875 178.16771 60.45625 178.91771Q60.64375 179.66771 60.64375 180.94896Q60.64375 182.46458 60.33125 183.38646Q60.034374 184.30833 59.409374 184.82396Q58.8 185.32396 57.846874 185.32396Q56.6125 185.32396 55.89375 184.43333Q55.05 183.37083 55.05 180.94896ZM56.128124 180.94896Q56.128124 183.05833 56.628124 183.76146Q57.128124 184.46458 57.846874 184.46458Q58.58125 184.46458 59.065624 183.76146Q59.565624 183.05833 59.565624 180.94896Q59.565624 178.82396 59.065624 178.13646Q58.58125 177.43333 57.83125 177.43333Q57.1125 177.43333 56.675 178.04271Q56.128124 178.82396 56.128124 180.94896ZM62.64375 185.18333L62.64375 183.98021L63.846874 183.98021L63.846874 185.18333L62.64375 185.18333ZM70.59688 184.16771L70.59688 185.18333L64.90938 185.18333Q64.90938 184.80833 65.03438 184.44896Q65.25313 183.87083 65.72188 183.30833Q66.20625 182.74583 67.1125 182.01146Q68.51875 180.85521 69.00313 180.18333Q69.50313 179.51146 69.50313 178.91771Q69.50313 178.29271 69.05 177.87083Q68.59688 177.43333 67.87813 177.43333Q67.1125 177.43333 66.65938 177.88646Q66.20625 178.33958 66.19063 179.15208L65.1125 179.04271Q65.22188 177.82396 65.94063 177.19896Q66.675 176.55833 67.90938 176.55833Q69.14375 176.55833 69.8625 177.24583Q70.58125 177.93333 70.58125 178.94896Q70.58125 179.46458 70.3625 179.96458Q70.15938 180.44896 69.65938 181.01146Q69.175 181.55833 68.05 182.51146Q67.09688 183.30833 66.81563 183.60521Q66.55 183.88646 66.37813 184.16771L70.59688 184.16771Z" fill-rule="nonzero"/><path fill="#000000" d="M55.05 121.31563Q55.05 119.78438 55.3625 118.8625Q55.675 117.925 56.284374 117.425Q56.909374 116.925 57.846874 116.925Q58.534374 116.925 59.05 117.20625Q59.58125 117.4875 59.925 118.01875Q60.26875 118.53438 60.45625 119.28438Q60.64375 120.03438 60.64375 121.31563Q60.64375 122.83125 60.33125 123.75313Q60.034374 124.675 59.409374 125.19063Q58.8 125.69063 57.846874 125.69063Q56.6125 125.69063 55.89375 124.8Q55.05 123.7375 55.05 121.31563ZM56.128124 121.31563Q56.128124 123.425 56.628124 124.12813Q57.128124 124.83125 57.846874 124.83125Q58.58125 124.83125 59.065624 124.12813Q59.565624 123.425 59.565624 121.31563Q59.565624 119.19063 59.065624 118.50313Q58.58125 117.8 57.83125 117.8Q57.1125 117.8 56.675 118.40938Q56.128124 119.19063 56.128124 121.31563ZM62.64375 125.55L62.64375 124.34688L63.846874 124.34688L63.846874 125.55L62.64375 125.55ZM65.05 123.28438L66.1125 123.14375Q66.28438 124.03438 66.72188 124.44063Q67.15938 124.83125 67.78438 124.83125Q68.53438 124.83125 69.05 124.31563Q69.56563 123.8 69.56563 123.03438Q69.56563 122.31563 69.08125 121.84688Q68.6125 121.3625 67.87813 121.3625Q67.58125 121.3625 67.12813 121.4875L67.25313 120.55Q67.3625 120.56563 67.425 120.56563Q68.09688 120.56563 68.62813 120.22188Q69.175 119.8625 69.175 119.12813Q69.175 118.55 68.78438 118.175Q68.39375 117.78438 67.76875 117.78438Q67.15938 117.78438 66.7375 118.175Q66.33125 118.56563 66.22188 119.33125L65.15938 119.14375Q65.34688 118.09688 66.03438 117.51875Q66.72188 116.925 67.7375 116.925Q68.44063 116.925 69.03438 117.2375Q69.62813 117.53438 69.94063 118.05Q70.25313 118.56563 70.25313 119.15938Q70.25313 119.70625 69.95625 120.175Q69.65938 120.62813 69.08125 120.89375Q69.83125 121.06563 70.25313 121.62813Q70.675 122.175 70.675 123.01875Q70.675 124.14375 69.84688 124.925Q69.03438 125.70625 67.78438 125.70625Q66.65938 125.70625 65.90938 125.03438Q65.15938 124.34688 65.05 123.28438Z" fill-rule="nonzero"/><path fill="#000000" d="M55.05 61.68229Q55.05 60.15104 55.3625 59.229164Q55.675 58.291664 56.284374 57.791664Q56.909374 57.291664 57.846874 57.291664Q58.534374 57.291664 59.05 57.572914Q59.58125 57.854164 59.925 58.385414Q60.26875 58.90104 60.45625 59.65104Q60.64375 60.40104 60.64375 61.68229Q60.64375 63.197914 60.33125 64.11979Q60.034374 65.041664 59.409374 65.55729Q58.8 66.05729 57.846874 66.05729Q56.6125 66.05729 55.89375 65.166664Q55.05 64.104164 55.05 61.68229ZM56.128124 61.68229Q56.128124 63.791664 56.628124 64.49479Q57.128124 65.197914 57.846874 65.197914Q58.58125 65.197914 59.065624 64.49479Q59.565624 63.791664 59.565624 61.68229Q59.565624 59.55729 59.065624 58.86979Q58.58125 58.166664 57.83125 58.166664Q57.1125 58.166664 56.675 58.77604Q56.128124 59.55729 56.128124 61.68229ZM62.64375 65.916664L62.64375 64.71354L63.846874 64.71354L63.846874 65.916664L62.64375 65.916664ZM68.425 65.916664L68.425 63.854164L64.70625 63.854164L64.70625 62.885414L68.62813 57.322914L69.4875 57.322914L69.4875 62.885414L70.64375 62.885414L70.64375 63.854164L69.4875 63.854164L69.4875 65.916664L68.425 65.916664ZM68.425 62.885414L68.425 59.02604L65.7375 62.885414L68.425 62.885414Z" fill-rule="nonzero"/><path fill="#000000" d="M173.06902 316.4344L173.06902 317.45L167.38152 317.45Q167.38152 317.075 167.50652 316.71564Q167.72527 316.1375 168.19402 315.575Q168.67839 315.0125 169.58464 314.27814Q170.99089 313.1219 171.47527 312.45Q171.97527 311.77814 171.97527 311.1844Q171.97527 310.5594 171.52214 310.1375Q171.06902 309.7 170.35027 309.7Q169.58464 309.7 169.13152 310.15314Q168.67839 310.60626 168.66277 311.41876L167.58464 311.3094Q167.69402 310.09064 168.41277 309.46564Q169.14714 308.825 170.38152 308.825Q171.61589 308.825 172.33464 309.5125Q173.05339 310.2 173.05339 311.21564Q173.05339 311.73126 172.83464 312.23126Q172.63152 312.71564 172.13152 313.27814Q171.64714 313.825 170.52214 314.77814Q169.56902 315.575 169.28777 315.8719Q169.02214 316.15314 168.85027 316.4344L173.06902 316.4344ZM174.52214 313.21564Q174.52214 311.6844 174.83464 310.7625Q175.14714 309.825 175.75652 309.325Q176.38152 308.825 177.31902 308.825Q178.00652 308.825 178.52214 309.10626Q179.05339 309.3875 179.39714 309.91876Q179.74089 310.4344 179.92839 311.1844Q180.11589 311.9344 180.11589 313.21564Q180.11589 314.73126 179.80339 315.65314Q179.50652 316.575 178.88152 317.09064Q178.27214 317.59064 177.31902 317.59064Q176.08464 317.59064 175.36589 316.7Q174.52214 315.6375 174.52214 313.21564ZM175.60027 313.21564Q175.60027 315.325 176.10027 316.02814Q176.60027 316.73126 177.31902 316.73126Q178.05339 316.73126 178.53777 316.02814Q179.03777 315.325 179.03777 313.21564Q179.03777 311.09064 178.53777 310.40314Q178.05339 309.7 177.30339 309.7Q176.58464 309.7 176.14714 310.3094Q175.60027 311.09064 175.60027 313.21564ZM181.52214 313.21564Q181.52214 311.6844 181.83464 310.7625Q182.14714 309.825 182.75652 309.325Q183.38152 308.825 184.31902 308.825Q185.00652 308.825 185.52214 309.10626Q186.05339 309.3875 186.39714 309.91876Q186.74089 310.4344 186.92839 311.1844Q187.11589 311.9344 187.11589 313.21564Q187.11589 314.73126 186.80339 315.65314Q186.50652 316.575 185.88152 317.09064Q185.27214 317.59064 184.31902 317.59064Q183.08464 317.59064 182.36589 316.7Q181.52214 315.6375 181.52214 313.21564ZM182.60027 313.21564Q182.60027 315.325 183.10027 316.02814Q183.60027 316.73126 184.31902 316.73126Q185.05339 316.73126 185.53777 316.02814Q186.03777 315.325 186.03777 313.21564Q186.03777 311.09064 185.53777 310.40314Q185.05339 309.7 184.30339 309.7Q183.58464 309.7 183.14714 310.3094Q182.60027 311.09064 182.60027 313.21564Z" fill-rule="nonzero"/><path fill="#000000" d="M271.87912 317.45L271.87912 315.3875L268.16037 315.3875L268.16037 314.41876L272.08224 308.85626L272.94162 308.85626L272.94162 314.41876L274.09787 314.41876L274.09787 315.3875L272.94162 315.3875L272.94162 317.45L271.87912 317.45ZM271.87912 314.41876L271.87912 310.5594L269.19162 314.41876L271.87912 314.41876ZM275.50412 313.21564Q275.50412 311.6844 275.81662 310.7625Q276.12912 309.825 276.7385 309.325Q277.3635 308.825 278.301 308.825Q278.9885 308.825 279.50412 309.10626Q280.03537 309.3875 280.37912 309.91876Q280.72287 310.4344 280.91037 311.1844Q281.09787 311.9344 281.09787 313.21564Q281.09787 314.73126 280.78537 315.65314Q280.4885 316.575 279.8635 317.09064Q279.25412 317.59064 278.301 317.59064Q277.06662 317.59064 276.34787 316.7Q275.50412 315.6375 275.50412 313.21564ZM276.58224 313.21564Q276.58224 315.325 277.08224 316.02814Q277.58224 316.73126 278.301 316.73126Q279.03537 316.73126 279.51974 316.02814Q280.01974 315.325 280.01974 313.21564Q280.01974 311.09064 279.51974 310.40314Q279.03537 309.7 278.28537 309.7Q277.56662 309.7 277.12912 310.3094Q276.58224 311.09064 276.58224 313.21564ZM282.50412 313.21564Q282.50412 311.6844 282.81662 310.7625Q283.12912 309.825 283.7385 309.325Q284.3635 308.825 285.301 308.825Q285.9885 308.825 286.50412 309.10626Q287.03537 309.3875 287.37912 309.91876Q287.72287 310.4344 287.91037 311.1844Q288.09787 311.9344 288.09787 313.21564Q288.09787 314.73126 287.78537 315.65314Q287.4885 316.575 286.8635 317.09064Q286.25412 317.59064 285.301 317.59064Q284.06662 317.59064 283.34787 316.7Q282.50412 315.6375 282.50412 313.21564ZM283.58224 313.21564Q283.58224 315.325 284.08224 316.02814Q284.58224 316.73126 285.301 316.73126Q286.03537 316.73126 286.51974 316.02814Q287.01974 315.325 287.01974 313.21564Q287.01974 311.09064 286.51974 310.40314Q286.03537 309.7 285.28537 309.7Q284.56662 309.7 284.12912 310.3094Q283.58224 311.09064 283.58224 313.21564Z" fill-rule="nonzero"/><path fill="#000000" d="M374.95483 310.96564L373.90796 311.04376Q373.76733 310.41876 373.51733 310.1375Q373.07983 309.6844 372.45483 309.6844Q371.95483 309.6844 371.5642 309.96564Q371.07983 310.34064 370.78296 311.04376Q370.5017 311.73126 370.48608 313.0125Q370.86108 312.4344 371.40796 312.15314Q371.97046 311.8719 372.57983 311.8719Q373.6267 311.8719 374.36108 312.65314Q375.11108 313.4344 375.11108 314.65314Q375.11108 315.46564 374.7517 316.16876Q374.40796 316.85626 373.79858 317.23126Q373.1892 317.59064 372.42358 317.59064Q371.09546 317.59064 370.26733 316.6219Q369.4392 315.65314 369.4392 313.4344Q369.4392 310.9344 370.36108 309.8094Q371.15796 308.825 372.51733 308.825Q373.53296 308.825 374.17358 309.40314Q374.82983 309.96564 374.95483 310.96564ZM370.65796 314.66876Q370.65796 315.21564 370.8767 315.71564Q371.11108 316.2 371.51733 316.46564Q371.9392 316.73126 372.40796 316.73126Q373.0642 316.73126 373.54858 316.2Q374.03296 315.65314 374.03296 314.73126Q374.03296 313.84064 373.54858 313.325Q373.07983 312.8094 372.36108 312.8094Q371.64233 312.8094 371.14233 313.325Q370.65796 313.84064 370.65796 314.66876ZM376.48608 313.21564Q376.48608 311.6844 376.79858 310.7625Q377.11108 309.825 377.72046 309.325Q378.34546 308.825 379.28296 308.825Q379.97046 308.825 380.48608 309.10626Q381.01733 309.3875 381.36108 309.91876Q381.70483 310.4344 381.89233 311.1844Q382.07983 311.9344 382.07983 313.21564Q382.07983 314.73126 381.76733 315.65314Q381.47046 316.575 380.84546 317.09064Q380.23608 317.59064 379.28296 317.59064Q378.04858 317.59064 377.32983 316.7Q376.48608 315.6375 376.48608 313.21564ZM377.5642 313.21564Q377.5642 315.325 378.0642 316.02814Q378.5642 316.73126 379.28296 316.73126Q380.01733 316.73126 380.5017 316.02814Q381.0017 315.325 381.0017 313.21564Q381.0017 311.09064 380.5017 310.40314Q380.01733 309.7 379.26733 309.7Q378.54858 309.7 378.11108 310.3094Q377.5642 311.09064 377.5642 313.21564ZM383.48608 313.21564Q383.48608 311.6844 383.79858 310.7625Q384.11108 309.825 384.72046 309.325Q385.34546 308.825 386.28296 308.825Q386.97046 308.825 387.48608 309.10626Q388.01733 309.3875 388.36108 309.91876Q388.70483 310.4344 388.89233 311.1844Q389.07983 311.9344 389.07983 313.21564Q389.07983 314.73126 388.76733 315.65314Q388.47046 316.575 387.84546 317.09064Q387.23608 317.59064 386.28296 317.59064Q385.04858 317.59064 384.32983 316.7Q383.48608 315.6375 383.48608 313.21564ZM384.5642 313.21564Q384.5642 315.325 385.0642 316.02814Q385.5642 316.73126 386.28296 316.73126Q387.01733 316.73126 387.5017 316.02814Q388.0017 315.325 388.0017 313.21564Q388.0017 311.09064 387.5017 310.40314Q387.01733 309.7 386.26733 309.7Q385.54858 309.7 385.11108 310.3094Q384.5642 311.09064 384.5642 313.21564Z" fill-rule="nonzero"/><path fill="#000000" d="M472.09305 312.79376Q471.4368 312.54376 471.10867 312.10626Q470.79617 311.65314 470.79617 311.04376Q470.79617 310.10626 471.46805 309.46564Q472.15555 308.825 473.26492 308.825Q474.38992 308.825 475.07742 309.48126Q475.76492 310.1375 475.76492 311.075Q475.76492 311.66876 475.45242 312.10626Q475.13992 312.54376 474.4993 312.79376Q475.29617 313.04376 475.70242 313.6219Q476.10867 314.2 476.10867 314.9969Q476.10867 316.09064 475.32742 316.84064Q474.5618 317.59064 473.28055 317.59064Q472.01492 317.59064 471.23367 316.84064Q470.45242 316.09064 470.45242 314.96564Q470.45242 314.1219 470.8743 313.5594Q471.3118 312.9969 472.09305 312.79376ZM471.8743 310.9969Q471.8743 311.60626 472.26492 311.9969Q472.67117 312.3875 473.29617 312.3875Q473.90555 312.3875 474.29617 312.0125Q474.6868 311.6219 474.6868 311.0594Q474.6868 310.48126 474.28055 310.09064Q473.8743 309.6844 473.28055 309.6844Q472.67117 309.6844 472.26492 310.075Q471.8743 310.46564 471.8743 310.9969ZM471.54617 314.96564Q471.54617 315.41876 471.7493 315.84064Q471.96805 316.2625 472.38992 316.4969Q472.8118 316.73126 473.29617 316.73126Q474.04617 316.73126 474.53055 316.2469Q475.03055 315.7625 475.03055 315.0125Q475.03055 314.2469 474.53055 313.7469Q474.03055 313.2469 473.26492 313.2469Q472.51492 313.2469 472.03055 313.7469Q471.54617 314.23126 471.54617 314.96564ZM477.46805 313.21564Q477.46805 311.6844 477.78055 310.7625Q478.09305 309.825 478.70242 309.325Q479.32742 308.825 480.26492 308.825Q480.95242 308.825 481.46805 309.10626Q481.9993 309.3875 482.34305 309.91876Q482.6868 310.4344 482.8743 311.1844Q483.0618 311.9344 483.0618 313.21564Q483.0618 314.73126 482.7493 315.65314Q482.45242 316.575 481.82742 317.09064Q481.21805 317.59064 480.26492 317.59064Q479.03055 317.59064 478.3118 316.7Q477.46805 315.6375 477.46805 313.21564ZM478.54617 313.21564Q478.54617 315.325 479.04617 316.02814Q479.54617 316.73126 480.26492 316.73126Q480.9993 316.73126 481.48367 316.02814Q481.98367 315.325 481.98367 313.21564Q481.98367 311.09064 481.48367 310.40314Q480.9993 309.7 480.2493 309.7Q479.53055 309.7 479.09305 310.3094Q478.54617 311.09064 478.54617 313.21564ZM484.46805 313.21564Q484.46805 311.6844 484.78055 310.7625Q485.09305 309.825 485.70242 309.325Q486.32742 308.825 487.26492 308.825Q487.95242 308.825 488.46805 309.10626Q488.9993 309.3875 489.34305 309.91876Q489.6868 310.4344 489.8743 311.1844Q490.0618 311.9344 490.0618 313.21564Q490.0618 314.73126 489.7493 315.65314Q489.45242 316.575 488.82742 317.09064Q488.21805 317.59064 487.26492 317.59064Q486.03055 317.59064 485.3118 316.7Q484.46805 315.6375 484.46805 313.21564ZM485.54617 313.21564Q485.54617 315.325 486.04617 316.02814Q486.54617 316.73126 487.26492 316.73126Q487.9993 316.73126 488.48367 316.02814Q488.98367 315.325 488.98367 313.21564Q488.98367 311.09064 488.48367 310.40314Q487.9993 309.7 487.2493 309.7Q486.53055 309.7 486.09305 310.3094Q485.54617 311.09064 485.54617 313.21564Z" fill-rule="nonzero"/><path fill="#000000" d="M571.91876 317.45L570.8719 317.45L570.8719 310.73126Q570.48126 311.09064 569.85626 311.46564Q569.2469 311.825 568.7625 311.9969L568.7625 310.98126Q569.6375 310.5594 570.29376 309.98126Q570.96564 309.3875 571.2469 308.825L571.91876 308.825L571.91876 317.45ZM574.95 313.21564Q574.95 311.6844 575.2625 310.7625Q575.575 309.825 576.1844 309.325Q576.8094 308.825 577.7469 308.825Q578.4344 308.825 578.95 309.10626Q579.48126 309.3875 579.825 309.91876Q580.16876 310.4344 580.35626 311.1844Q580.54376 311.9344 580.54376 313.21564Q580.54376 314.73126 580.23126 315.65314Q579.9344 316.575 579.3094 317.09064Q578.7 317.59064 577.7469 317.59064Q576.5125 317.59064 575.79376 316.7Q574.95 315.6375 574.95 313.21564ZM576.02814 313.21564Q576.02814 315.325 576.52814 316.02814Q577.02814 316.73126 577.7469 316.73126Q578.48126 316.73126 578.96564 316.02814Q579.46564 315.325 579.46564 313.21564Q579.46564 311.09064 578.96564 310.40314Q578.48126 309.7 577.73126 309.7Q577.0125 309.7 576.575 310.3094Q576.02814 311.09064 576.02814 313.21564ZM581.95 313.21564Q581.95 311.6844 582.2625 310.7625Q582.575 309.825 583.1844 309.325Q583.8094 308.825 584.7469 308.825Q585.4344 308.825 585.95 309.10626Q586.48126 309.3875 586.825 309.91876Q587.16876 310.4344 587.35626 311.1844Q587.54376 311.9344 587.54376 313.21564Q587.54376 314.73126 587.23126 315.65314Q586.9344 316.575 586.3094 317.09064Q585.7 317.59064 584.7469 317.59064Q583.5125 317.59064 582.79376 316.7Q581.95 315.6375 581.95 313.21564ZM583.02814 313.21564Q583.02814 315.325 583.52814 316.02814Q584.02814 316.73126 584.7469 316.73126Q585.48126 316.73126 585.96564 316.02814Q586.46564 315.325 586.46564 313.21564Q586.46564 311.09064 585.96564 310.40314Q585.48126 309.7 584.73126 309.7Q584.0125 309.7 583.575 310.3094Q583.02814 311.09064 583.02814 313.21564ZM588.95 313.21564Q588.95 311.6844 589.2625 310.7625Q589.575 309.825 590.1844 309.325Q590.8094 308.825 591.7469 308.825Q592.4344 308.825 592.95 309.10626Q593.48126 309.3875 593.825 309.91876Q594.16876 310.4344 594.35626 311.1844Q594.54376 311.9344 594.54376 313.21564Q594.54376 314.73126 594.23126 315.65314Q593.9344 316.575 593.3094 317.09064Q592.7 317.59064 591.7469 317.59064Q590.5125 317.59064 589.79376 316.7Q588.95 315.6375 588.95 313.21564ZM590.02814 313.21564Q590.02814 315.325 590.52814 316.02814Q591.02814 316.73126 591.7469 316.73126Q592.48126 316.73126 592.96564 316.02814Q593.46564 315.325 593.46564 313.21564Q593.46564 311.09064 592.96564 310.40314Q592.48126 309.7 591.73126 309.7Q591.0125 309.7 590.575 310.3094Q590.02814 311.09064 590.02814 313.21564Z" fill-rule="nonzero"/><path fill="#757575" d="M26.8 31.940624L26.8 30.253124L32.8625 30.2375L32.8625 35.55Q31.45625 36.675 29.971874 37.2375Q28.4875 37.8 26.925 37.8Q24.815624 37.8 23.096874 36.89375Q21.378124 35.9875 20.4875 34.284374Q19.6125 32.565624 19.6125 30.45625Q19.6125 28.3625 20.4875 26.565624Q21.3625 24.753124 23.003124 23.878124Q24.64375 22.9875 26.784374 22.9875Q28.33125 22.9875 29.58125 23.4875Q30.846874 23.9875 31.55 24.89375Q32.26875 25.784374 32.64375 27.2375L30.940624 27.70625Q30.6125 26.6125 30.128124 25.9875Q29.659374 25.3625 28.76875 24.9875Q27.878124 24.6125 26.8 24.6125Q25.4875 24.6125 24.534374 25.003124Q23.596874 25.39375 23.01875 26.05Q22.440624 26.690624 22.1125 27.45625Q21.565624 28.784374 21.565624 30.346874Q21.565624 32.253124 22.221874 33.55Q22.89375 34.83125 24.14375 35.45625Q25.409374 36.08125 26.815624 36.08125Q28.05 36.08125 29.221874 35.6125Q30.39375 35.14375 31.003124 34.596874L31.003124 31.940624L26.8 31.940624ZM35.846874 37.55L35.846874 27.175L37.425 27.175L37.425 28.753124Q38.034374 27.64375 38.55 27.3Q39.065624 26.940624 39.675 26.940624Q40.565624 26.940624 41.4875 27.503124L40.878124 29.14375Q40.2375 28.753124 39.596874 28.753124Q39.01875 28.753124 38.55 29.1125Q38.096874 29.45625 37.89375 30.065624Q37.6125 31.003124 37.6125 32.1125L37.6125 37.55L35.846874 37.55ZM42.221874 32.3625Q42.221874 29.4875 43.815624 28.096874Q45.159374 26.940624 47.08125 26.940624Q49.221874 26.940624 50.565624 28.346874Q51.925 29.753124 51.925 32.221874Q51.925 34.221874 51.33125 35.378124Q50.7375 36.51875 49.58125 37.159374Q48.440624 37.784374 47.08125 37.784374Q44.89375 37.784374 43.55 36.39375Q42.221874 34.9875 42.221874 32.3625ZM44.01875 32.3625Q44.01875 34.3625 44.878124 35.346874Q45.753124 36.33125 47.08125 36.33125Q48.39375 36.33125 49.253124 35.346874Q50.128124 34.346874 50.128124 32.3Q50.128124 30.378124 49.253124 29.39375Q48.378124 28.39375 47.08125 28.39375Q45.753124 28.39375 44.878124 29.39375Q44.01875 30.378124 44.01875 32.3625ZM60.659374 37.55L60.659374 36.01875Q59.45625 37.784374 57.378124 37.784374Q56.45625 37.784374 55.659374 37.440624Q54.8625 37.08125 54.471874 36.55Q54.096874 36.01875 53.940624 35.2375Q53.83125 34.721874 53.83125 33.596874L53.83125 27.175L55.58125 27.175L55.58125 32.925Q55.58125 34.3 55.690624 34.784374Q55.8625 35.471874 56.39375 35.878124Q56.940624 36.26875 57.721874 36.26875Q58.51875 36.26875 59.20625 35.8625Q59.909374 35.45625 60.190624 34.76875Q60.4875 34.065624 60.4875 32.7375L60.4875 27.175L62.2375 27.175L62.2375 37.55L60.659374 37.55ZM64.8625 41.51875L64.8625 27.175L66.47188 27.175L66.47188 28.51875Q67.03438 27.7375 67.7375 27.346874Q68.45625 26.940624 69.47188 26.940624Q70.8 26.940624 71.81563 27.628124Q72.83125 28.315624 73.34688 29.565624Q73.87813 30.8 73.87813 32.284374Q73.87813 33.878124 73.3 35.159374Q72.7375 36.425 71.64375 37.1125Q70.55 37.784374 69.34688 37.784374Q68.47188 37.784374 67.76875 37.409374Q67.08125 37.034374 66.62813 36.471874L66.62813 41.51875L64.8625 41.51875ZM66.45625 32.425Q66.45625 34.425 67.26875 35.378124Q68.08125 36.33125 69.2375 36.33125Q70.40938 36.33125 71.2375 35.346874Q72.08125 34.3625 72.08125 32.26875Q72.08125 30.3 71.25313 29.315624Q70.44063 28.315624 69.31563 28.315624Q68.19063 28.315624 67.31563 29.378124Q66.45625 30.425 66.45625 32.425ZM81.15938 34.45625L82.90938 34.175Q83.05 35.221874 83.72188 35.784374Q84.39375 36.33125 85.59688 36.33125Q86.8 36.33125 87.37813 35.846874Q87.97188 35.346874 87.97188 34.690624Q87.97188 34.096874 87.45625 33.753124Q87.09688 33.51875 85.65938 33.159374Q83.72188 32.659374 82.97188 32.315624Q82.2375 31.95625 81.84688 31.33125Q81.45625 30.690624 81.45625 29.925Q81.45625 29.2375 81.76875 28.64375Q82.09688 28.05 82.64375 27.659374Q83.05 27.3625 83.75313 27.159374Q84.47188 26.940624 85.28438 26.940624Q86.50313 26.940624 87.425 27.3Q88.34688 27.64375 88.78438 28.253124Q89.22188 28.846874 89.39375 29.846874L87.675 30.08125Q87.55 29.284374 86.9875 28.846874Q86.425 28.39375 85.40938 28.39375Q84.19063 28.39375 83.675 28.8Q83.15938 29.190624 83.15938 29.721874Q83.15938 30.065624 83.37813 30.346874Q83.58125 30.628124 84.05 30.815624Q84.31563 30.909374 85.59688 31.253124Q87.47188 31.753124 88.20625 32.08125Q88.94063 32.39375 89.3625 33.003124Q89.78438 33.596874 89.78438 34.503124Q89.78438 35.378124 89.26875 36.159374Q88.75313 36.940624 87.78438 37.3625Q86.81563 37.784374 85.59688 37.784374Q83.58125 37.784374 82.51875 36.940624Q81.45625 36.096874 81.15938 34.45625ZM98.97188 34.20625L100.78438 34.440624Q100.3625 36.01875 99.19063 36.909374Q98.03438 37.784374 96.22188 37.784374Q93.95625 37.784374 92.6125 36.39375Q91.28438 34.9875 91.28438 32.45625Q91.28438 29.83125 92.62813 28.39375Q93.97188 26.940624 96.12813 26.940624Q98.20625 26.940624 99.51875 28.3625Q100.84688 29.76875 100.84688 32.346874Q100.84688 32.503124 100.83125 32.815624L93.09688 32.815624Q93.19063 34.51875 94.06563 35.425Q94.94063 36.33125 96.2375 36.33125Q97.20625 36.33125 97.87813 35.83125Q98.56563 35.315624 98.97188 34.20625ZM93.19063 31.3625L98.9875 31.3625Q98.87813 30.065624 98.33125 29.409374Q97.4875 28.39375 96.14375 28.39375Q94.94063 28.39375 94.1125 29.20625Q93.28438 30.003124 93.19063 31.3625ZM106.70625 35.971874L106.95625 37.534374Q106.22188 37.690624 105.62813 37.690624Q104.675 37.690624 104.14375 37.39375Q103.62813 37.08125 103.40938 36.596874Q103.19063 36.096874 103.19063 34.51875L103.19063 28.55L101.90938 28.55L101.90938 27.175L103.19063 27.175L103.19063 24.6125L104.94063 23.55L104.94063 27.175L106.70625 27.175L106.70625 28.55L104.94063 28.55L104.94063 34.6125Q104.94063 35.3625 105.03438 35.58125Q105.12813 35.784374 105.33125 35.925Q105.55 36.05 105.94063 36.05Q106.22188 36.05 106.70625 35.971874ZM115.65938 37.55L115.65938 36.01875Q114.45625 37.784374 112.37813 37.784374Q111.45625 37.784374 110.65938 37.440624Q109.8625 37.08125 109.47188 36.55Q109.09688 36.01875 108.94063 35.2375Q108.83125 34.721874 108.83125 33.596874L108.83125 27.175L110.58125 27.175L110.58125 32.925Q110.58125 34.3 110.69063 34.784374Q110.8625 35.471874 111.39375 35.878124Q111.94063 36.26875 112.72188 36.26875Q113.51875 36.26875 114.20625 35.8625Q114.90938 35.45625 115.19063 34.76875Q115.4875 34.065624 115.4875 32.7375L115.4875 27.175L117.2375 27.175L117.2375 37.55L115.65938 37.55ZM119.8625 41.51875L119.8625 27.175L121.47188 27.175L121.47188 28.51875Q122.03438 27.7375 122.7375 27.346874Q123.45625 26.940624 124.47188 26.940624Q125.8 26.940624 126.81563 27.628124Q127.83125 28.315624 128.34688 29.565624Q128.87813 30.8 128.87813 32.284374Q128.87813 33.878124 128.3 35.159374Q127.7375 36.425 126.64375 37.1125Q125.55 37.784374 124.34688 37.784374Q123.47188 37.784374 122.76875 37.409374Q122.08125 37.034374 121.62813 36.471874L121.62813 41.51875L119.8625 41.51875ZM121.45625 32.425Q121.45625 34.425 122.26875 35.378124Q123.08125 36.33125 124.2375 36.33125Q125.40938 36.33125 126.2375 35.346874Q127.08125 34.3625 127.08125 32.26875Q127.08125 30.3 126.25313 29.315624Q125.44063 28.315624 124.31563 28.315624Q123.19063 28.315624 122.31563 29.378124Q121.45625 30.425 121.45625 32.425Z" fill-rule="nonzero"/></svg>