<svg version="1.1" viewBox="0.0 0.0 600.0 371.0" fill="none" stroke="none" stroke-linecap="square" stroke-miterlimit="10" width="600" height="371" xmlns:xlink="http://www.w3.org/1999/xlink" xmlns="http://www.w3.org/2000/svg"><path fill="#ffffff" d="M0 0L600.0 0L600.0 371.0L0 371.0L0 0Z" fill-rule="nonzero"/><path stroke="#cccccc" stroke-width="1.0" stroke-linecap="butt" d="M185.5 61.5L185.5 300.5" fill-rule="nonzero"/><path stroke="#cccccc" stroke-width="1.0" stroke-linecap="butt" d="M284.5 61.5L284.5 300.5" fill-rule="nonzero"/><path stroke="#cccccc" stroke-width="1.0" stroke-linecap="butt" d="M383.5 61.5L383.5 300.5" fill-rule="nonzero"/><path stroke="#cccccc" stroke-width="1.0" stroke-linecap="butt" d="M482.5 61.5L482.5 300.5" fill-rule="nonzero"/><path stroke="#cccccc" stroke-width="1.0" stroke-linecap="butt" d="M581.5 61.5L581.5 300.5" fill-rule="nonzero"/><path stroke="#333333" stroke-width="1.0" stroke-linecap="butt" d="M87.5 300.5L581.5 300.5" fill-rule="nonzero"/><path stroke="#cccccc" stroke-width="1.0" stroke-linecap="butt" d="M87.5 220.5L581.5 220.5" fill-rule="nonzero"/><path stroke="#cccccc" stroke-width="1.0" stroke-linecap="butt" d="M87.5 141.5L581.5 141.5" fill-rule="nonzero"/><path stroke="#cccccc" stroke-width="1.0" stroke-linecap="butt" d="M87.5 61.5L581.5 61.5" fill-rule="nonzero"/><clipPath id="id_0"><path d="M87.55 61.916668L581.45 61.916668L581.45 300.45L87.55 300.45L87.55 61.916668Z" clip-rule="nonzero"/></clipPath><path stroke="#4285f4" stroke-width="2.0" stroke-linecap="butt" clip-path="url(#id_0)" d="M87.55 280.45917L88.04489 280.48965L88.53978 280.70953L89.03467 280.37076L89.52956 280.0696L90.02445 279.87878L90.51934 279.2608L91.01423 279.38953L91.50912 279.49292L96.458015 277.42853L101.40691 275.6598L106.35581 271.93314L111.30471 271.07745L136.0492 262.54672L185.53818 244.42503L235.02716 225.1109L284.51614 205.29613L334.0051 190.12828L581.45 93.484566" fill-rule="nonzero"/><path stroke="#ff00ff" stroke-width="2.0" stroke-linecap="butt" stroke-opacity="0.4" clip-path="url(#id_0)" d="M0 313.72202L581.45 94.34991" fill-rule="nonzero"/><path fill="#000000" fill-opacity="0.0" clip-path="url(#id_0)" d="M90.55 280.45917C90.55 282.116 89.206856 283.45917 87.55 283.45917C85.89314 283.45917 84.55 282.116 84.55 280.45917C84.55 278.8023 85.89314 277.45917 87.55 277.45917C89.206856 277.45917 90.55 278.8023 90.55 280.45917Z" fill-rule="nonzero"/><path fill="#000000" fill-opacity="0.0" clip-path="url(#id_0)" d="M91.04489 280.48965C91.04489 282.1465 89.701744 283.48965 88.04489 283.48965C86.38804 283.48965 85.04489 282.1465 85.04489 280.48965C85.04489 278.8328 86.38804 277.48965 88.04489 277.48965C89.701744 277.48965 91.04489 278.8328 91.04489 280.48965Z" fill-rule="nonzero"/><path fill="#000000" fill-opacity="0.0" clip-path="url(#id_0)" d="M91.53978 280.70953C91.53978 282.36636 90.19663 283.70953 88.53978 283.70953C86.88293 283.70953 85.53978 282.36636 85.53978 280.70953C85.53978 279.05267 86.88293 277.70953 88.53978 277.70953C90.19663 277.70953 91.53978 279.05267 91.53978 280.70953Z" fill-rule="nonzero"/><path fill="#000000" fill-opacity="0.0" clip-path="url(#id_0)" d="M92.03467 280.37076C92.03467 282.0276 90.69152 283.37076 89.03467 283.37076C87.377815 283.37076 86.03467 282.0276 86.03467 280.37076C86.03467 278.7139 87.377815 277.37076 89.03467 277.37076C90.69152 277.37076 92.03467 278.7139 92.03467 280.37076Z" fill-rule="nonzero"/><path fill="#000000" fill-opacity="0.0" clip-path="url(#id_0)" d="M92.52956 280.0696C92.52956 281.72647 91.18642 283.0696 89.52956 283.0696C87.8727 283.0696 86.52956 281.72647 86.52956 280.0696C86.52956 278.41278 87.8727 277.0696 89.52956 277.0696C91.18642 277.0696 92.52956 278.41278 92.52956 280.0696Z" fill-rule="nonzero"/><path fill="#000000" fill-opacity="0.0" clip-path="url(#id_0)" d="M93.02445 279.87878C93.02445 281.53564 91.681305 282.87878 90.02445 282.87878C88.36759 282.87878 87.02445 281.53564 87.02445 279.87878C87.02445 278.22192 88.36759 276.87878 90.02445 276.87878C91.681305 276.87878 93.02445 278.22192 93.02445 279.87878Z" fill-rule="nonzero"/><path fill="#000000" fill-opacity="0.0" clip-path="url(#id_0)" d="M93.51934 279.2608C93.51934 280.91766 92.17619 282.2608 90.51934 282.2608C88.86249 282.2608 87.51934 280.91766 87.51934 279.2608C87.51934 277.60394 88.86249 276.2608 90.51934 276.2608C92.17619 276.2608 93.51934 277.60394 93.51934 279.2608Z" fill-rule="nonzero"/><path fill="#000000" fill-opacity="0.0" clip-path="url(#id_0)" d="M94.01423 279.38953C94.01423 281.0464 92.67108 282.38953 91.01423 282.38953C89.357376 282.38953 88.01423 281.0464 88.01423 279.38953C88.01423 277.7327 89.357376 276.38953 91.01423 276.38953C92.67108 276.38953 94.01423 277.7327 94.01423 279.38953Z" fill-rule="nonzero"/><path fill="#000000" fill-opacity="0.0" clip-path="url(#id_0)" d="M94.50912 279.49292C94.50912 281.14978 93.16597 282.49292 91.50912 282.49292C89.852264 282.49292 88.50912 281.14978 88.50912 279.49292C88.50912 277.8361 89.852264 276.49292 91.50912 276.49292C93.16597 276.49292 94.50912 277.8361 94.50912 279.49292Z" fill-rule="nonzero"/><path fill="#000000" fill-opacity="0.0" clip-path="url(#id_0)" d="M99.458015 277.42853C99.458015 279.0854 98.11487 280.42853 96.458015 280.42853C94.80116 280.42853 93.458015 279.0854 93.458015 277.42853C93.458015 275.77167 94.80116 274.42853 96.458015 274.42853C98.11487 274.42853 99.458015 275.77167 99.458015 277.42853Z" fill-rule="nonzero"/><path fill="#000000" fill-opacity="0.0" clip-path="url(#id_0)" d="M104.40691 275.6598C104.40691 277.31665 103.06377 278.6598 101.40691 278.6598C99.75006 278.6598 98.40691 277.31665 98.40691 275.6598C98.40691 274.00293 99.75006 272.6598 101.40691 272.6598C103.06377 272.6598 104.40691 274.00293 104.40691 275.6598Z" fill-rule="nonzero"/><path fill="#000000" fill-opacity="0.0" clip-path="url(#id_0)" d="M109.35581 271.93314C109.35581 273.58997 108.012665 274.93314 106.35581 274.93314C104.69896 274.93314 103.35581 273.58997 103.35581 271.93314C103.35581 270.27628 104.69896 268.93314 106.35581 268.93314C108.012665 268.93314 109.35581 270.27628 109.35581 271.93314Z" fill-rule="nonzero"/><path fill="#000000" fill-opacity="0.0" clip-path="url(#id_0)" d="M114.30471 271.07745C114.30471 272.7343 112.96156 274.07745 111.30471 274.07745C109.64786 274.07745 108.30471 272.7343 108.30471 271.07745C108.30471 269.4206 109.64786 268.07745 111.30471 268.07745C112.96156 268.07745 114.30471 269.4206 114.30471 271.07745Z" fill-rule="nonzero"/><path fill="#000000" fill-opacity="0.0" clip-path="url(#id_0)" d="M139.0492 262.54672C139.0492 264.20358 137.70605 265.54672 136.0492 265.54672C134.39235 265.54672 133.0492 264.20358 133.0492 262.54672C133.0492 260.8899 134.39235 259.54672 136.0492 259.54672C137.70605 259.54672 139.0492 260.8899 139.0492 262.54672Z" fill-rule="nonzero"/><path fill="#000000" fill-opacity="0.0" clip-path="url(#id_0)" d="M188.53818 244.42503C188.53818 246.08188 187.19504 247.42503 185.53818 247.42503C183.88132 247.42503 182.53818 246.08188 182.53818 244.42503C182.53818 242.76817 183.88132 241.42503 185.53818 241.42503C187.19504 241.42503 188.53818 242.76817 188.53818 244.42503Z" fill-rule="nonzero"/><path fill="#000000" fill-opacity="0.0" clip-path="url(#id_0)" d="M238.02716 225.1109C238.02716 226.76776 236.684 228.1109 235.02716 228.1109C233.3703 228.1109 232.02716 226.76776 232.02716 225.1109C232.02716 223.45404 233.3703 222.1109 235.02716 222.1109C236.684 222.1109 238.02716 223.45404 238.02716 225.1109Z" fill-rule="nonzero"/><path fill="#000000" fill-opacity="0.0" clip-path="url(#id_0)" d="M287.51614 205.29613C287.51614 206.95297 286.17297 208.29613 284.51614 208.29613C282.85928 208.29613 281.51614 206.95297 281.51614 205.29613C281.51614 203.63927 282.85928 202.29613 284.51614 202.29613C286.17297 202.29613 287.51614 203.63927 287.51614 205.29613Z" fill-rule="nonzero"/><path fill="#000000" fill-opacity="0.0" clip-path="url(#id_0)" d="M337.0051 190.12828C337.0051 191.78513 335.66196 193.12828 334.0051 193.12828C332.34827 193.12828 331.0051 191.78513 331.0051 190.12828C331.0051 188.47142 332.34827 187.12828 334.0051 187.12828C335.66196 187.12828 337.0051 188.47142 337.0051 190.12828Z" fill-rule="nonzero"/><path fill="#000000" fill-opacity="0.0" clip-path="url(#id_0)" d="M584.45 93.484566C584.45 95.14142 583.1069 96.484566 581.45 96.484566C579.79315 96.484566 578.45 95.14142 578.45 93.484566C578.45 91.82771 579.79315 90.484566 581.45 90.484566C583.1069 90.484566 584.45 91.82771 584.45 93.484566Z" fill-rule="nonzero"/><path fill="#000000" d="M308.95312 346.075L308.95312 345.075L312.57812 345.0594L312.57812 348.2469Q311.75 348.91876 310.85938 349.2625Q309.96875 349.59064 309.03125 349.59064Q307.76562 349.59064 306.71875 349.0594Q305.6875 348.5125 305.15625 347.4969Q304.64062 346.46564 304.64062 345.2Q304.64062 343.9344 305.15625 342.85626Q305.6875 341.7625 306.67188 341.2469Q307.65625 340.71564 308.9375 340.71564Q309.875 340.71564 310.625 341.0125Q311.375 341.3094 311.79688 341.85626Q312.23438 342.3875 312.45312 343.2625L311.4375 343.54376Q311.23438 342.8875 310.9375 342.5125Q310.65625 342.1375 310.125 341.91876Q309.59375 341.6844 308.95312 341.6844Q308.17188 341.6844 307.59375 341.91876Q307.03125 342.15314 306.67188 342.54376Q306.32812 342.9344 306.14062 343.40314Q305.8125 344.2 305.8125 345.1219Q305.8125 346.27814 306.20312 347.0594Q306.60938 347.825 307.35938 348.2Q308.10938 348.575 308.96875 348.575Q309.70312 348.575 310.40625 348.29376Q311.10938 347.9969 311.46875 347.6844L311.46875 346.075L308.95312 346.075ZM313.78125 349.45L313.78125 343.23126L314.73438 343.23126L314.73438 344.16876Q315.09375 343.5125 315.39062 343.3094Q315.70312 343.09064 316.07812 343.09064Q316.60938 343.09064 317.15625 343.41876L316.79688 344.40314Q316.40625 344.16876 316.03125 344.16876Q315.67188 344.16876 315.39062 344.3875Q315.125 344.59064 315.01562 344.96564Q314.82812 345.52814 314.82812 346.1844L314.82812 349.45L313.78125 349.45ZM317.40625 346.34064Q317.40625 344.60626 318.35938 343.77814Q319.15625 343.09064 320.3125 343.09064Q321.59375 343.09064 322.40625 343.9344Q323.23438 344.7625 323.23438 346.2469Q323.23438 347.45 322.875 348.1375Q322.51562 348.825 321.8125 349.21564Q321.125 349.59064 320.3125 349.59064Q319.01562 349.59064 318.20312 348.7625Q317.40625 347.91876 317.40625 346.34064ZM318.48438 346.34064Q318.48438 347.52814 319.0 348.1219Q319.53125 348.71564 320.3125 348.71564Q321.10938 348.71564 321.625 348.1219Q322.14062 347.52814 322.14062 346.3094Q322.14062 345.15314 321.60938 344.5594Q321.09375 343.96564 320.3125 343.96564Q319.53125 343.96564 319.0 344.5594Q318.48438 345.1375 318.48438 346.34064ZM328.875 349.45L328.875 348.52814Q328.14062 349.59064 326.89062 349.59064Q326.34375 349.59064 325.85938 349.3875Q325.39062 349.16876 325.15625 348.85626Q324.92188 348.52814 324.82812 348.0594Q324.76562 347.7625 324.76562 347.075L324.76562 343.23126L325.82812 343.23126L325.82812 346.6844Q325.82812 347.4969 325.89062 347.79376Q325.98438 348.2 326.29688 348.45Q326.625 348.6844 327.10938 348.6844Q327.57812 348.6844 327.98438 348.45Q328.40625 348.2 328.57812 347.77814Q328.76562 347.35626 328.76562 346.5594L328.76562 343.23126L329.8125 343.23126L329.8125 349.45L328.875 349.45ZM331.79688 351.84064L331.79688 343.23126L332.75 343.23126L332.75 344.02814Q333.09375 343.5594 333.51562 343.325Q333.95312 343.09064 334.5625 343.09064Q335.35938 343.09064 335.96875 343.4969Q336.57812 343.90314 336.875 344.65314Q337.1875 345.40314 337.1875 346.29376Q337.1875 347.2469 336.84375 348.0125Q336.51562 348.77814 335.85938 349.1844Q335.20312 349.59064 334.48438 349.59064Q333.95312 349.59064 333.53125 349.3719Q333.10938 349.1375 332.84375 348.8094L332.84375 351.84064L331.79688 351.84064ZM332.75 346.3719Q332.75 347.575 333.23438 348.15314Q333.71875 348.71564 334.40625 348.71564Q335.10938 348.71564 335.60938 348.1219Q336.10938 347.52814 336.10938 346.27814Q336.10938 345.09064 335.625 344.5125Q335.14062 343.91876 334.45312 343.91876Q333.78125 343.91876 333.26562 344.54376Q332.75 345.16876 332.75 346.3719ZM341.54688 346.6844L342.60938 346.59064Q342.6875 347.2469 342.96875 347.65314Q343.25 348.0594 343.82812 348.325Q344.42188 348.575 345.15625 348.575Q345.79688 348.575 346.29688 348.3875Q346.79688 348.1844 347.03125 347.85626Q347.28125 347.5125 347.28125 347.1219Q347.28125 346.71564 347.04688 346.41876Q346.8125 346.10626 346.28125 345.90314Q345.92188 345.7625 344.73438 345.48126Q343.5625 345.2 343.09375 344.95Q342.46875 344.6219 342.17188 344.15314Q341.875 343.66876 341.875 343.075Q341.875 342.4344 342.23438 341.8719Q342.60938 341.29376 343.3125 341.0125Q344.03125 340.71564 344.89062 340.71564Q345.84375 340.71564 346.57812 341.02814Q347.3125 341.325 347.70312 341.9344Q348.09375 342.52814 348.125 343.27814L347.03125 343.35626Q346.9375 342.54376 346.42188 342.1375Q345.92188 341.71564 344.9375 341.71564Q343.90625 341.71564 343.4375 342.09064Q342.96875 342.46564 342.96875 342.9969Q342.96875 343.46564 343.29688 343.7625Q343.625 344.0594 345.0 344.3719Q346.39062 344.6844 346.90625 344.91876Q347.65625 345.27814 348.01562 345.8094Q348.375 346.325 348.375 347.02814Q348.375 347.71564 347.98438 348.325Q347.59375 348.91876 346.85938 349.2625Q346.125 349.59064 345.20312 349.59064Q344.03125 349.59064 343.23438 349.2625Q342.45312 348.91876 342.0 348.23126Q341.5625 347.54376 341.54688 346.6844ZM349.79688 342.075L349.79688 340.85626L350.85938 340.85626L350.85938 342.075L349.79688 342.075ZM349.79688 349.45L349.79688 343.23126L350.85938 343.23126L350.85938 349.45L349.79688 349.45ZM352.23438 349.45L352.23438 348.59064L356.20312 344.04376Q355.51562 344.075 355.0 344.075L352.46875 344.075L352.46875 343.23126L357.5625 343.23126L357.5625 343.91876L354.1875 347.8719L353.53125 348.59064Q354.25 348.54376 354.85938 348.54376L357.75 348.54376L357.75 349.45L352.23438 349.45ZM363.04688 347.45L364.14062 347.575Q363.89062 348.52814 363.1875 349.0594Q362.48438 349.59064 361.40625 349.59064Q360.04688 349.59064 359.23438 348.7469Q358.4375 347.90314 358.4375 346.3875Q358.4375 344.825 359.25 343.96564Q360.0625 343.09064 361.34375 343.09064Q362.59375 343.09064 363.375 343.9344Q364.17188 344.77814 364.17188 346.325Q364.17188 346.41876 364.17188 346.60626L359.53125 346.60626Q359.59375 347.6375 360.10938 348.1844Q360.625 348.71564 361.40625 348.71564Q361.98438 348.71564 362.39062 348.41876Q362.8125 348.10626 363.04688 347.45ZM359.59375 345.7469L363.0625 345.7469Q363.0 344.95 362.67188 344.5594Q362.15625 343.95 361.35938 343.95Q360.625 343.95 360.125 344.4344Q359.64062 344.91876 359.59375 345.7469Z" fill-rule="nonzero"/><path fill="#000000" d="M29.550013 209.07396L21.971888 209.07396L21.971888 211.90208L20.956263 211.90208L20.956263 205.08958L21.971888 205.08958L21.971888 207.93333L29.550013 207.93333L29.550013 209.07396ZM22.175013 204.38646L20.956263 204.38646L20.956263 203.32396L22.175013 203.32396L22.175013 204.38646ZM29.550013 204.38646L23.331263 204.38646L23.331263 203.32396L29.550013 203.32396L29.550013 204.38646ZM29.550013 201.38646L23.331263 201.38646L23.331263 200.44896L24.206263 200.44896Q23.737513 200.15208 23.471888 199.66771Q23.190638 199.18333 23.190638 198.55833Q23.190638 197.87083 23.471888 197.43333Q23.753138 196.98021 24.268763 196.80833Q23.190638 196.05833 23.190638 194.88646Q23.190638 193.94896 23.706263 193.46458Q24.206263 192.96458 25.284388 192.96458L29.550013 192.96458L29.550013 194.01146L25.628138 194.01146Q25.003138 194.01146 24.721888 194.12083Q24.440638 194.21458 24.268763 194.48021Q24.096888 194.74583 24.096888 195.12083Q24.096888 195.77708 24.534388 196.21458Q24.971888 196.63646 25.940638 196.63646L29.550013 196.63646L29.550013 197.69896L25.503138 197.69896Q24.800013 197.69896 24.456263 197.96458Q24.096888 198.21458 24.096888 198.79271Q24.096888 199.24583 24.331263 199.62083Q24.565638 199.99583 25.018763 200.16771Q25.471888 200.33958 26.315638 200.33958L29.550013 200.33958L29.550013 201.38646ZM27.550013 187.13646L27.675013 186.04271Q28.628138 186.29271 29.159388 186.99583Q29.690638 187.69896 29.690638 188.77708Q29.690638 190.13646 28.846888 190.94896Q28.003138 191.74583 26.487513 191.74583Q24.925013 191.74583 24.065638 190.93333Q23.190638 190.12083 23.190638 188.83958Q23.190638 187.58958 24.034388 186.80833Q24.878138 186.01146 26.425013 186.01146Q26.518763 186.01146 26.706263 186.01146L26.706263 190.65208Q27.737513 190.58958 28.284388 190.07396Q28.815638 189.55833 28.815638 188.77708Q28.815638 188.19896 28.518763 187.79271Q28.206263 187.37083 27.550013 187.13646ZM25.846888 190.58958L25.846888 187.12083Q25.050013 187.18333 24.659388 187.51146Q24.050013 188.02708 24.050013 188.82396Q24.050013 189.55833 24.534388 190.05833Q25.018763 190.54271 25.846888 190.58958ZM22.175013 181.38646L20.956263 181.38646L20.956263 180.32396L22.175013 180.32396L22.175013 181.38646ZM29.550013 181.38646L23.331263 181.38646L23.331263 180.32396L29.550013 180.32396L29.550013 181.38646ZM29.550013 178.38646L23.331263 178.38646L23.331263 177.44896L24.206263 177.44896Q23.190638 176.76146 23.190638 175.46458Q23.190638 174.90208 23.393763 174.43333Q23.596888 173.94896 23.925013 173.71458Q24.253138 173.48021 24.690638 173.38646Q24.987513 173.33958 25.721888 173.33958L29.550013 173.33958L29.550013 174.38646L25.768763 174.38646Q25.112513 174.38646 24.800013 174.51146Q24.487513 174.63646 24.300013 174.94896Q24.096888 175.26146 24.096888 175.68333Q24.096888 176.35521 24.534388 176.85521Q24.956263 177.33958 26.143763 177.33958L29.550013 177.33958L29.550013 178.38646ZM27.690638 168.80833L27.534388 167.77708Q28.159388 167.68333 28.487513 167.29271Q28.815638 166.88646 28.815638 166.15208Q28.815638 165.43333 28.534388 165.08958Q28.237513 164.73021 27.831263 164.73021Q27.471888 164.73021 27.268763 165.04271Q27.128138 165.26146 26.909388 166.12083Q26.612513 167.27708 26.409388 167.73021Q26.190638 168.16771 25.815638 168.40208Q25.440638 168.63646 24.971888 168.63646Q24.565638 168.63646 24.206263 168.44896Q23.846888 168.26146 23.612513 167.93333Q23.440638 167.68333 23.315638 167.26146Q23.190638 166.83958 23.190638 166.33958Q23.190638 165.62083 23.409388 165.07396Q23.612513 164.51146 23.971888 164.24583Q24.331263 163.98021 24.925013 163.88646L25.065638 164.91771Q24.596888 164.98021 24.331263 165.32396Q24.050013 165.65208 24.050013 166.27708Q24.050013 166.99583 24.300013 167.30833Q24.534388 167.62083 24.862513 167.62083Q25.065638 167.62083 25.221888 167.49583Q25.393763 167.35521 25.503138 167.08958Q25.565638 166.93333 25.768763 166.15208Q26.081263 165.02708 26.268763 164.58958Q26.456263 164.15208 26.815638 163.90208Q27.175013 163.65208 27.721888 163.65208Q28.253138 163.65208 28.721888 163.96458Q29.175013 164.26146 29.440638 164.83958Q29.690638 165.41771 29.690638 166.15208Q29.690638 167.37083 29.190638 168.01146Q28.675013 168.63646 27.690638 168.80833Z" fill-rule="nonzero"/><path fill="#000000" d="M51.05 300.21564Q51.05 298.6844 51.3625 297.7625Q51.675 296.825 52.284374 296.325Q52.909374 295.825 53.846874 295.825Q54.534374 295.825 55.05 296.10626Q55.58125 296.3875 55.925 296.91876Q56.26875 297.4344 56.45625 298.1844Q56.64375 298.9344 56.64375 300.21564Q56.64375 301.73126 56.33125 302.65314Q56.034374 303.575 55.409374 304.09064Q54.8 304.59064 53.846874 304.59064Q52.6125 304.59064 51.89375 303.7Q51.05 302.6375 51.05 300.21564ZM52.128124 300.21564Q52.128124 302.325 52.628124 303.02814Q53.128124 303.73126 53.846874 303.73126Q54.58125 303.73126 55.065624 303.02814Q55.565624 302.325 55.565624 300.21564Q55.565624 298.09064 55.065624 297.40314Q54.58125 296.7 53.83125 296.7Q53.1125 296.7 52.675 297.3094Q52.128124 298.09064 52.128124 300.21564ZM58.64375 304.45L58.64375 303.2469L59.846874 303.2469L59.846874 304.45L58.64375 304.45ZM61.05 300.21564Q61.05 298.6844 61.3625 297.7625Q61.675 296.825 62.284374 296.325Q62.909374 295.825 63.846874 295.825Q64.53438 295.825 65.05 296.10626Q65.58125 296.3875 65.925 296.91876Q66.26875 297.4344 66.45625 298.1844Q66.64375 298.9344 66.64375 300.21564Q66.64375 301.73126 66.33125 302.65314Q66.03438 303.575 65.40938 304.09064Q64.8 304.59064 63.846874 304.59064Q62.6125 304.59064 61.89375 303.7Q61.05 302.6375 61.05 300.21564ZM62.128124 300.21564Q62.128124 302.325 62.628124 303.02814Q63.128124 303.73126 63.846874 303.73126Q64.58125 303.73126 65.06563 303.02814Q65.56563 302.325 65.56563 300.21564Q65.56563 298.09064 65.06563 297.40314Q64.58125 296.7 63.83125 296.7Q63.1125 296.7 62.675 297.3094Q62.128124 298.09064 62.128124 300.21564ZM68.05 300.21564Q68.05 298.6844 68.3625 297.7625Q68.675 296.825 69.28438 296.325Q69.90938 295.825 70.84688 295.825Q71.53438 295.825 72.05 296.10626Q72.58125 296.3875 72.925 296.91876Q73.26875 297.4344 73.45625 298.1844Q73.64375 298.9344 73.64375 300.21564Q73.64375 301.73126 73.33125 302.65314Q73.03438 303.575 72.40938 304.09064Q71.8 304.59064 70.84688 304.59064Q69.6125 304.59064 68.89375 303.7Q68.05 302.6375 68.05 300.21564ZM69.12813 300.21564Q69.12813 302.325 69.62813 303.02814Q70.12813 303.73126 70.84688 303.73126Q71.58125 303.73126 72.06563 303.02814Q72.56563 302.325 72.56563 300.21564Q72.56563 298.09064 72.06563 297.40314Q71.58125 296.7 70.83125 296.7Q70.1125 296.7 69.675 297.3094Q69.12813 298.09064 69.12813 300.21564ZM75.05 300.21564Q75.05 298.6844 75.3625 297.7625Q75.675 296.825 76.28438 296.325Q76.90938 295.825 77.84688 295.825Q78.53438 295.825 79.05 296.10626Q79.58125 296.3875 79.925 296.91876Q80.26875 297.4344 80.45625 298.1844Q80.64375 298.9344 80.64375 300.21564Q80.64375 301.73126 80.33125 302.65314Q80.03438 303.575 79.40938 304.09064Q78.8 304.59064 77.84688 304.59064Q76.6125 304.59064 75.89375 303.7Q75.05 302.6375 75.05 300.21564ZM76.12813 300.21564Q76.12813 302.325 76.62813 303.02814Q77.12813 303.73126 77.84688 303.73126Q78.58125 303.73126 79.06563 303.02814Q79.56563 302.325 79.56563 300.21564Q79.56563 298.09064 79.06563 297.40314Q78.58125 296.7 77.83125 296.7Q77.1125 296.7 76.675 297.3094Q76.12813 298.09064 76.12813 300.21564Z" fill-rule="nonzero"/><path fill="#000000" d="M51.05 220.70451Q51.05 219.17326 51.3625 218.25139Q51.675 217.31389 52.284374 216.81389Q52.909374 216.31389 53.846874 216.31389Q54.534374 216.31389 55.05 216.59514Q55.58125 216.87639 55.925 217.40764Q56.26875 217.92326 56.45625 218.67326Q56.64375 219.42326 56.64375 220.70451Q56.64375 222.22014 56.33125 223.14201Q56.034374 224.06389 55.409374 224.57951Q54.8 225.07951 53.846874 225.07951Q52.6125 225.07951 51.89375 224.18889Q51.05 223.12639 51.05 220.70451ZM52.128124 220.70451Q52.128124 222.81389 52.628124 223.51701Q53.128124 224.22014 53.846874 224.22014Q54.58125 224.22014 55.065624 223.51701Q55.565624 222.81389 55.565624 220.70451Q55.565624 218.57951 55.065624 217.89201Q54.58125 217.18889 53.83125 217.18889Q53.1125 217.18889 52.675 217.79826Q52.128124 218.57951 52.128124 220.70451ZM58.64375 224.93889L58.64375 223.73576L59.846874 223.73576L59.846874 224.93889L58.64375 224.93889ZM61.05 220.70451Q61.05 219.17326 61.3625 218.25139Q61.675 217.31389 62.284374 216.81389Q62.909374 216.31389 63.846874 216.31389Q64.53438 216.31389 65.05 216.59514Q65.58125 216.87639 65.925 217.40764Q66.26875 217.92326 66.45625 218.67326Q66.64375 219.42326 66.64375 220.70451Q66.64375 222.22014 66.33125 223.14201Q66.03438 224.06389 65.40938 224.57951Q64.8 225.07951 63.846874 225.07951Q62.6125 225.07951 61.89375 224.18889Q61.05 223.12639 61.05 220.70451ZM62.128124 220.70451Q62.128124 222.81389 62.628124 223.51701Q63.128124 224.22014 63.846874 224.22014Q64.58125 224.22014 65.06563 223.51701Q65.56563 222.81389 65.56563 220.70451Q65.56563 218.57951 65.06563 217.89201Q64.58125 217.18889 63.83125 217.18889Q63.1125 217.18889 62.675 217.79826Q62.128124 218.57951 62.128124 220.70451ZM68.05 220.70451Q68.05 219.17326 68.3625 218.25139Q68.675 217.31389 69.28438 216.81389Q69.90938 216.31389 70.84688 216.31389Q71.53438 216.31389 72.05 216.59514Q72.58125 216.87639 72.925 217.40764Q73.26875 217.92326 73.45625 218.67326Q73.64375 219.42326 73.64375 220.70451Q73.64375 222.22014 73.33125 223.14201Q73.03438 224.06389 72.40938 224.57951Q71.8 225.07951 70.84688 225.07951Q69.6125 225.07951 68.89375 224.18889Q68.05 223.12639 68.05 220.70451ZM69.12813 220.70451Q69.12813 222.81389 69.62813 223.51701Q70.12813 224.22014 70.84688 224.22014Q71.58125 224.22014 72.06563 223.51701Q72.56563 222.81389 72.56563 220.70451Q72.56563 218.57951 72.06563 217.89201Q71.58125 217.18889 70.83125 217.18889Q70.1125 217.18889 69.675 217.79826Q69.12813 218.57951 69.12813 220.70451ZM80.59688 223.92326L80.59688 224.93889L74.90938 224.93889Q74.90938 224.56389 75.03438 224.20451Q75.25313 223.62639 75.72188 223.06389Q76.20625 222.50139 77.1125 221.76701Q78.51875 220.61076 79.00313 219.93889Q79.50313 219.26701 79.50313 218.67326Q79.50313 218.04826 79.05 217.62639Q78.59688 217.18889 77.87813 217.18889Q77.1125 217.18889 76.65938 217.64201Q76.20625 218.09514 76.19063 218.90764L75.1125 218.79826Q75.22188 217.57951 75.94063 216.95451Q76.675 216.31389 77.90938 216.31389Q79.14375 216.31389 79.8625 217.00139Q80.58125 217.68889 80.58125 218.70451Q80.58125 219.22014 80.3625 219.72014Q80.15938 220.20451 79.65938 220.76701Q79.175 221.31389 78.05 222.26701Q77.09688 223.06389 76.81563 223.36076Q76.55 223.64201 76.37813 223.92326L80.59688 223.92326Z" fill-rule="nonzero"/><path fill="#000000" d="M51.05 141.1934Q51.05 139.66216 51.3625 138.74028Q51.675 137.80278 52.284374 137.30278Q52.909374 136.80278 53.846874 136.80278Q54.534374 136.80278 55.05 137.08403Q55.58125 137.36528 55.925 137.89653Q56.26875 138.41216 56.45625 139.16216Q56.64375 139.91216 56.64375 141.1934Q56.64375 142.70903 56.33125 143.6309Q56.034374 144.55278 55.409374 145.0684Q54.8 145.5684 53.846874 145.5684Q52.6125 145.5684 51.89375 144.67778Q51.05 143.61528 51.05 141.1934ZM52.128124 141.1934Q52.128124 143.30278 52.628124 144.0059Q53.128124 144.70903 53.846874 144.70903Q54.58125 144.70903 55.065624 144.0059Q55.565624 143.30278 55.565624 141.1934Q55.565624 139.0684 55.065624 138.3809Q54.58125 137.67778 53.83125 137.67778Q53.1125 137.67778 52.675 138.28716Q52.128124 139.0684 52.128124 141.1934ZM58.64375 145.42778L58.64375 144.22466L59.846874 144.22466L59.846874 145.42778L58.64375 145.42778ZM61.05 141.1934Q61.05 139.66216 61.3625 138.74028Q61.675 137.80278 62.284374 137.30278Q62.909374 136.80278 63.846874 136.80278Q64.53438 136.80278 65.05 137.08403Q65.58125 137.36528 65.925 137.89653Q66.26875 138.41216 66.45625 139.16216Q66.64375 139.91216 66.64375 141.1934Q66.64375 142.70903 66.33125 143.6309Q66.03438 144.55278 65.40938 145.0684Q64.8 145.5684 63.846874 145.5684Q62.6125 145.5684 61.89375 144.67778Q61.05 143.61528 61.05 141.1934ZM62.128124 141.1934Q62.128124 143.30278 62.628124 144.0059Q63.128124 144.70903 63.846874 144.70903Q64.58125 144.70903 65.06563 144.0059Q65.56563 143.30278 65.56563 141.1934Q65.56563 139.0684 65.06563 138.3809Q64.58125 137.67778 63.83125 137.67778Q63.1125 137.67778 62.675 138.28716Q62.128124 139.0684 62.128124 141.1934ZM68.05 141.1934Q68.05 139.66216 68.3625 138.74028Q68.675 137.80278 69.28438 137.30278Q69.90938 136.80278 70.84688 136.80278Q71.53438 136.80278 72.05 137.08403Q72.58125 137.36528 72.925 137.89653Q73.26875 138.41216 73.45625 139.16216Q73.64375 139.91216 73.64375 141.1934Q73.64375 142.70903 73.33125 143.6309Q73.03438 144.55278 72.40938 145.0684Q71.8 145.5684 70.84688 145.5684Q69.6125 145.5684 68.89375 144.67778Q68.05 143.61528 68.05 141.1934ZM69.12813 141.1934Q69.12813 143.30278 69.62813 144.0059Q70.12813 144.70903 70.84688 144.70903Q71.58125 144.70903 72.06563 144.0059Q72.56563 143.30278 72.56563 141.1934Q72.56563 139.0684 72.06563 138.3809Q71.58125 137.67778 70.83125 137.67778Q70.1125 137.67778 69.675 138.28716Q69.12813 139.0684 69.12813 141.1934ZM78.425 145.42778L78.425 143.36528L74.70625 143.36528L74.70625 142.39653L78.62813 136.83403L79.4875 136.83403L79.4875 142.39653L80.64375 142.39653L80.64375 143.36528L79.4875 143.36528L79.4875 145.42778L78.425 145.42778ZM78.425 142.39653L78.425 138.53716L75.7375 142.39653L78.425 142.39653Z" fill-rule="nonzero"/><path fill="#000000" d="M51.05 61.68229Q51.05 60.15104 51.3625 59.229164Q51.675 58.291664 52.284374 57.791664Q52.909374 57.291664 53.846874 57.291664Q54.534374 57.291664 55.05 57.572914Q55.58125 57.854164 55.925 58.385414Q56.26875 58.90104 56.45625 59.65104Q56.64375 60.40104 56.64375 61.68229Q56.64375 63.197914 56.33125 64.11979Q56.034374 65.041664 55.409374 65.55729Q54.8 66.05729 53.846874 66.05729Q52.6125 66.05729 51.89375 65.166664Q51.05 64.104164 51.05 61.68229ZM52.128124 61.68229Q52.128124 63.791664 52.628124 64.49479Q53.128124 65.197914 53.846874 65.197914Q54.58125 65.197914 55.065624 64.49479Q55.565624 63.791664 55.565624 61.68229Q55.565624 59.55729 55.065624 58.86979Q54.58125 58.166664 53.83125 58.166664Q53.1125 58.166664 52.675 58.77604Q52.128124 59.55729 52.128124 61.68229ZM58.64375 65.916664L58.64375 64.71354L59.846874 64.71354L59.846874 65.916664L58.64375 65.916664ZM61.05 61.68229Q61.05 60.15104 61.3625 59.229164Q61.675 58.291664 62.284374 57.791664Q62.909374 57.291664 63.846874 57.291664Q64.53438 57.291664 65.05 57.572914Q65.58125 57.854164 65.925 58.385414Q66.26875 58.90104 66.45625 59.65104Q66.64375 60.40104 66.64375 61.68229Q66.64375 63.197914 66.33125 64.11979Q66.03438 65.041664 65.40938 65.55729Q64.8 66.05729 63.846874 66.05729Q62.6125 66.05729 61.89375 65.166664Q61.05 64.104164 61.05 61.68229ZM62.128124 61.68229Q62.128124 63.791664 62.628124 64.49479Q63.128124 65.197914 63.846874 65.197914Q64.58125 65.197914 65.06563 64.49479Q65.56563 63.791664 65.56563 61.68229Q65.56563 59.55729 65.06563 58.86979Q64.58125 58.166664 63.83125 58.166664Q63.1125 58.166664 62.675 58.77604Q62.128124 59.55729 62.128124 61.68229ZM68.05 61.68229Q68.05 60.15104 68.3625 59.229164Q68.675 58.291664 69.28438 57.791664Q69.90938 57.291664 70.84688 57.291664Q71.53438 57.291664 72.05 57.572914Q72.58125 57.854164 72.925 58.385414Q73.26875 58.90104 73.45625 59.65104Q73.64375 60.40104 73.64375 61.68229Q73.64375 63.197914 73.33125 64.11979Q73.03438 65.041664 72.40938 65.55729Q71.8 66.05729 70.84688 66.05729Q69.6125 66.05729 68.89375 65.166664Q68.05 64.104164 68.05 61.68229ZM69.12813 61.68229Q69.12813 63.791664 69.62813 64.49479Q70.12813 65.197914 70.84688 65.197914Q71.58125 65.197914 72.06563 64.49479Q72.56563 63.791664 72.56563 61.68229Q72.56563 59.55729 72.06563 58.86979Q71.58125 58.166664 70.83125 58.166664Q70.1125 58.166664 69.675 58.77604Q69.12813 59.55729 69.12813 61.68229ZM80.51875 59.43229L79.47188 59.510414Q79.33125 58.885414 79.08125 58.604164Q78.64375 58.15104 78.01875 58.15104Q77.51875 58.15104 77.12813 58.43229Q76.64375 58.80729 76.34688 59.510414Q76.06563 60.197914 76.05 61.479164Q76.425 60.90104 76.97188 60.61979Q77.53438 60.33854 78.14375 60.33854Q79.19063 60.33854 79.925 61.11979Q80.675 61.90104 80.675 63.11979Q80.675 63.93229 80.31563 64.635414Q79.97188 65.322914 79.3625 65.697914Q78.75313 66.05729 77.9875 66.05729Q76.65938 66.05729 75.83125 65.08854Q75.00313 64.11979 75.00313 61.90104Q75.00313 59.40104 75.925 58.27604Q76.72188 57.291664 78.08125 57.291664Q79.09688 57.291664 79.7375 57.86979Q80.39375 58.43229 80.51875 59.43229ZM76.22188 63.135414Q76.22188 63.68229 76.44063 64.18229Q76.675 64.666664 77.08125 64.93229Q77.50313 65.197914 77.97188 65.197914Q78.62813 65.197914 79.1125 64.666664Q79.59688 64.11979 79.59688 63.197914Q79.59688 62.30729 79.1125 61.791664Q78.64375 61.27604 77.925 61.27604Q77.20625 61.27604 76.70625 61.791664Q76.22188 62.30729 76.22188 63.135414Z" fill-rule="nonzero"/><path fill="#000000" d="M181.08505 316.4344L181.08505 317.45L175.39755 317.45Q175.39755 317.075 175.52255 316.71564Q175.7413 316.1375 176.21005 315.575Q176.69443 315.0125 177.60068 314.27814Q179.00693 313.1219 179.4913 312.45Q179.9913 311.77814 179.9913 311.1844Q179.9913 310.5594 179.53818 310.1375Q179.08505 309.7 178.3663 309.7Q177.60068 309.7 177.14755 310.15314Q176.69443 310.60626 176.6788 311.41876L175.60068 311.3094Q175.71005 310.09064 176.4288 309.46564Q177.16318 308.825 178.39755 308.825Q179.63193 308.825 180.35068 309.5125Q181.06943 310.2 181.06943 311.21564Q181.06943 311.73126 180.85068 312.23126Q180.64755 312.71564 180.14755 313.27814Q179.66318 313.825 178.53818 314.77814Q177.58505 315.575 177.3038 315.8719Q177.03818 316.15314 176.8663 316.4344L181.08505 316.4344ZM182.53818 313.21564Q182.53818 311.6844 182.85068 310.7625Q183.16318 309.825 183.77255 309.325Q184.39755 308.825 185.33505 308.825Q186.02255 308.825 186.53818 309.10626Q187.06943 309.3875 187.41318 309.91876Q187.75693 310.4344 187.94443 311.1844Q188.13193 311.9344 188.13193 313.21564Q188.13193 314.73126 187.81943 315.65314Q187.52255 316.575 186.89755 317.09064Q186.28818 317.59064 185.33505 317.59064Q184.10068 317.59064 183.38193 316.7Q182.53818 315.6375 182.53818 313.21564ZM183.6163 313.21564Q183.6163 315.325 184.1163 316.02814Q184.6163 316.73126 185.33505 316.73126Q186.06943 316.73126 186.5538 316.02814Q187.0538 315.325 187.0538 313.21564Q187.0538 311.09064 186.5538 310.40314Q186.06943 309.7 185.31943 309.7Q184.60068 309.7 184.16318 310.3094Q183.6163 311.09064 183.6163 313.21564ZM189.53818 313.21564Q189.53818 311.6844 189.85068 310.7625Q190.16318 309.825 190.77255 309.325Q191.39755 308.825 192.33505 308.825Q193.02255 308.825 193.53818 309.10626Q194.06943 309.3875 194.41318 309.91876Q194.75693 310.4344 194.94443 311.1844Q195.13193 311.9344 195.13193 313.21564Q195.13193 314.73126 194.81943 315.65314Q194.52255 316.575 193.89755 317.09064Q193.28818 317.59064 192.33505 317.59064Q191.10068 317.59064 190.38193 316.7Q189.53818 315.6375 189.53818 313.21564ZM190.6163 313.21564Q190.6163 315.325 191.1163 316.02814Q191.6163 316.73126 192.33505 316.73126Q193.06943 316.73126 193.5538 316.02814Q194.0538 315.325 194.0538 313.21564Q194.0538 311.09064 193.5538 310.40314Q193.06943 309.7 192.31943 309.7Q191.60068 309.7 191.16318 310.3094Q190.6163 311.09064 190.6163 313.21564Z" fill-rule="nonzero"/><path fill="#000000" d="M277.89114 317.45L277.89114 315.3875L274.1724 315.3875L274.1724 314.41876L278.09427 308.85626L278.95364 308.85626L278.95364 314.41876L280.1099 314.41876L280.1099 315.3875L278.95364 315.3875L278.95364 317.45L277.89114 317.45ZM277.89114 314.41876L277.89114 310.5594L275.20364 314.41876L277.89114 314.41876ZM281.51614 313.21564Q281.51614 311.6844 281.82864 310.7625Q282.14114 309.825 282.75052 309.325Q283.37552 308.825 284.31302 308.825Q285.00052 308.825 285.51614 309.10626Q286.0474 309.3875 286.39114 309.91876Q286.7349 310.4344 286.9224 311.1844Q287.1099 311.9344 287.1099 313.21564Q287.1099 314.73126 286.7974 315.65314Q286.50052 316.575 285.87552 317.09064Q285.26614 317.59064 284.31302 317.59064Q283.07864 317.59064 282.3599 316.7Q281.51614 315.6375 281.51614 313.21564ZM282.59427 313.21564Q282.59427 315.325 283.09427 316.02814Q283.59427 316.73126 284.31302 316.73126Q285.0474 316.73126 285.53177 316.02814Q286.03177 315.325 286.03177 313.21564Q286.03177 311.09064 285.53177 310.40314Q285.0474 309.7 284.2974 309.7Q283.57864 309.7 283.14114 310.3094Q282.59427 311.09064 282.59427 313.21564ZM288.51614 313.21564Q288.51614 311.6844 288.82864 310.7625Q289.14114 309.825 289.75052 309.325Q290.37552 308.825 291.31302 308.825Q292.00052 308.825 292.51614 309.10626Q293.0474 309.3875 293.39114 309.91876Q293.7349 310.4344 293.9224 311.1844Q294.1099 311.9344 294.1099 313.21564Q294.1099 314.73126 293.7974 315.65314Q293.50052 316.575 292.87552 317.09064Q292.26614 317.59064 291.31302 317.59064Q290.07864 317.59064 289.3599 316.7Q288.51614 315.6375 288.51614 313.21564ZM289.59427 313.21564Q289.59427 315.325 290.09427 316.02814Q290.59427 316.73126 291.31302 316.73126Q292.0474 316.73126 292.53177 316.02814Q293.03177 315.325 293.03177 313.21564Q293.03177 311.09064 292.53177 310.40314Q292.0474 309.7 291.2974 309.7Q290.57864 309.7 290.14114 310.3094Q289.59427 311.09064 289.59427 313.21564Z" fill-rule="nonzero"/><path fill="#000000" d="M378.96283 310.96564L377.91595 311.04376Q377.77533 310.41876 377.52533 310.1375Q377.08783 309.6844 376.46283 309.6844Q375.96283 309.6844 375.5722 309.96564Q375.08783 310.34064 374.79095 311.04376Q374.5097 311.73126 374.49408 313.0125Q374.86908 312.4344 375.41595 312.15314Q375.97845 311.8719 376.58783 311.8719Q377.6347 311.8719 378.36908 312.65314Q379.11908 313.4344 379.11908 314.65314Q379.11908 315.46564 378.7597 316.16876Q378.41595 316.85626 377.80658 317.23126Q377.1972 317.59064 376.43158 317.59064Q375.10345 317.59064 374.27533 316.6219Q373.4472 315.65314 373.4472 313.4344Q373.4472 310.9344 374.36908 309.8094Q375.16595 308.825 376.52533 308.825Q377.54095 308.825 378.18158 309.40314Q378.83783 309.96564 378.96283 310.96564ZM374.66595 314.66876Q374.66595 315.21564 374.8847 315.71564Q375.11908 316.2 375.52533 316.46564Q375.9472 316.73126 376.41595 316.73126Q377.0722 316.73126 377.55658 316.2Q378.04095 315.65314 378.04095 314.73126Q378.04095 313.84064 377.55658 313.325Q377.08783 312.8094 376.36908 312.8094Q375.65033 312.8094 375.15033 313.325Q374.66595 313.84064 374.66595 314.66876ZM380.49408 313.21564Q380.49408 311.6844 380.80658 310.7625Q381.11908 309.825 381.72845 309.325Q382.35345 308.825 383.29095 308.825Q383.97845 308.825 384.49408 309.10626Q385.02533 309.3875 385.36908 309.91876Q385.71283 310.4344 385.90033 311.1844Q386.08783 311.9344 386.08783 313.21564Q386.08783 314.73126 385.77533 315.65314Q385.47845 316.575 384.85345 317.09064Q384.24408 317.59064 383.29095 317.59064Q382.05658 317.59064 381.33783 316.7Q380.49408 315.6375 380.49408 313.21564ZM381.5722 313.21564Q381.5722 315.325 382.0722 316.02814Q382.5722 316.73126 383.29095 316.73126Q384.02533 316.73126 384.5097 316.02814Q385.0097 315.325 385.0097 313.21564Q385.0097 311.09064 384.5097 310.40314Q384.02533 309.7 383.27533 309.7Q382.55658 309.7 382.11908 310.3094Q381.5722 311.09064 381.5722 313.21564ZM387.49408 313.21564Q387.49408 311.6844 387.80658 310.7625Q388.11908 309.825 388.72845 309.325Q389.35345 308.825 390.29095 308.825Q390.97845 308.825 391.49408 309.10626Q392.02533 309.3875 392.36908 309.91876Q392.71283 310.4344 392.90033 311.1844Q393.08783 311.9344 393.08783 313.21564Q393.08783 314.73126 392.77533 315.65314Q392.47845 316.575 391.85345 317.09064Q391.24408 317.59064 390.29095 317.59064Q389.05658 317.59064 388.33783 316.7Q387.49408 315.6375 387.49408 313.21564ZM388.5722 313.21564Q388.5722 315.325 389.0722 316.02814Q389.5722 316.73126 390.29095 316.73126Q391.02533 316.73126 391.5097 316.02814Q392.0097 315.325 392.0097 313.21564Q392.0097 311.09064 391.5097 310.40314Q391.02533 309.7 390.27533 309.7Q389.55658 309.7 389.11908 310.3094Q388.5722 311.09064 388.5722 313.21564Z" fill-rule="nonzero"/><path fill="#000000" d="M474.09705 312.79376Q473.4408 312.54376 473.11267 312.10626Q472.80017 311.65314 472.80017 311.04376Q472.80017 310.10626 473.47205 309.46564Q474.15955 308.825 475.26892 308.825Q476.39392 308.825 477.08142 309.48126Q477.76892 310.1375 477.76892 311.075Q477.76892 311.66876 477.45642 312.10626Q477.14392 312.54376 476.5033 312.79376Q477.30017 313.04376 477.70642 313.6219Q478.11267 314.2 478.11267 314.9969Q478.11267 316.09064 477.33142 316.84064Q476.5658 317.59064 475.28455 317.59064Q474.01892 317.59064 473.23767 316.84064Q472.45642 316.09064 472.45642 314.96564Q472.45642 314.1219 472.8783 313.5594Q473.3158 312.9969 474.09705 312.79376ZM473.8783 310.9969Q473.8783 311.60626 474.26892 311.9969Q474.67517 312.3875 475.30017 312.3875Q475.90955 312.3875 476.30017 312.0125Q476.6908 311.6219 476.6908 311.0594Q476.6908 310.48126 476.28455 310.09064Q475.8783 309.6844 475.28455 309.6844Q474.67517 309.6844 474.26892 310.075Q473.8783 310.46564 473.8783 310.9969ZM473.55017 314.96564Q473.55017 315.41876 473.7533 315.84064Q473.97205 316.2625 474.39392 316.4969Q474.8158 316.73126 475.30017 316.73126Q476.05017 316.73126 476.53455 316.2469Q477.03455 315.7625 477.03455 315.0125Q477.03455 314.2469 476.53455 313.7469Q476.03455 313.2469 475.26892 313.2469Q474.51892 313.2469 474.03455 313.7469Q473.55017 314.23126 473.55017 314.96564ZM479.47205 313.21564Q479.47205 311.6844 479.78455 310.7625Q480.09705 309.825 480.70642 309.325Q481.33142 308.825 482.26892 308.825Q482.95642 308.825 483.47205 309.10626Q484.0033 309.3875 484.34705 309.91876Q484.6908 310.4344 484.8783 311.1844Q485.0658 311.9344 485.0658 313.21564Q485.0658 314.73126 484.7533 315.65314Q484.45642 316.575 483.83142 317.09064Q483.22205 317.59064 482.26892 317.59064Q481.03455 317.59064 480.3158 316.7Q479.47205 315.6375 479.47205 313.21564ZM480.55017 313.21564Q480.55017 315.325 481.05017 316.02814Q481.55017 316.73126 482.26892 316.73126Q483.0033 316.73126 483.48767 316.02814Q483.98767 315.325 483.98767 313.21564Q483.98767 311.09064 483.48767 310.40314Q483.0033 309.7 482.2533 309.7Q481.53455 309.7 481.09705 310.3094Q480.55017 311.09064 480.55017 313.21564ZM486.47205 313.21564Q486.47205 311.6844 486.78455 310.7625Q487.09705 309.825 487.70642 309.325Q488.33142 308.825 489.26892 308.825Q489.95642 308.825 490.47205 309.10626Q491.0033 309.3875 491.34705 309.91876Q491.6908 310.4344 491.8783 311.1844Q492.0658 311.9344 492.0658 313.21564Q492.0658 314.73126 491.7533 315.65314Q491.45642 316.575 490.83142 317.09064Q490.22205 317.59064 489.26892 317.59064Q488.03455 317.59064 487.3158 316.7Q486.47205 315.6375 486.47205 313.21564ZM487.55017 313.21564Q487.55017 315.325 488.05017 316.02814Q488.55017 316.73126 489.26892 316.73126Q490.0033 316.73126 490.48767 316.02814Q490.98767 315.325 490.98767 313.21564Q490.98767 311.09064 490.48767 310.40314Q490.0033 309.7 489.2533 309.7Q488.53455 309.7 488.09705 310.3094Q487.55017 311.09064 487.55017 313.21564Z" fill-rule="nonzero"/><path fill="#000000" d="M571.91876 317.45L570.8719 317.45L570.8719 310.73126Q570.48126 311.09064 569.85626 311.46564Q569.2469 311.825 568.7625 311.9969L568.7625 310.98126Q569.6375 310.5594 570.29376 309.98126Q570.96564 309.3875 571.2469 308.825L571.91876 308.825L571.91876 317.45ZM574.95 313.21564Q574.95 311.6844 575.2625 310.7625Q575.575 309.825 576.1844 309.325Q576.8094 308.825 577.7469 308.825Q578.4344 308.825 578.95 309.10626Q579.48126 309.3875 579.825 309.91876Q580.16876 310.4344 580.35626 311.1844Q580.54376 311.9344 580.54376 313.21564Q580.54376 314.73126 580.23126 315.65314Q579.9344 316.575 579.3094 317.09064Q578.7 317.59064 577.7469 317.59064Q576.5125 317.59064 575.79376 316.7Q574.95 315.6375 574.95 313.21564ZM576.02814 313.21564Q576.02814 315.325 576.52814 316.02814Q577.02814 316.73126 577.7469 316.73126Q578.48126 316.73126 578.96564 316.02814Q579.46564 315.325 579.46564 313.21564Q579.46564 311.09064 578.96564 310.40314Q578.48126 309.7 577.73126 309.7Q577.0125 309.7 576.575 310.3094Q576.02814 311.09064 576.02814 313.21564ZM581.95 313.21564Q581.95 311.6844 582.2625 310.7625Q582.575 309.825 583.1844 309.325Q583.8094 308.825 584.7469 308.825Q585.4344 308.825 585.95 309.10626Q586.48126 309.3875 586.825 309.91876Q587.16876 310.4344 587.35626 311.1844Q587.54376 311.9344 587.54376 313.21564Q587.54376 314.73126 587.23126 315.65314Q586.9344 316.575 586.3094 317.09064Q585.7 317.59064 584.7469 317.59064Q583.5125 317.59064 582.79376 316.7Q581.95 315.6375 581.95 313.21564ZM583.02814 313.21564Q583.02814 315.325 583.52814 316.02814Q584.02814 316.73126 584.7469 316.73126Q585.48126 316.73126 585.96564 316.02814Q586.46564 315.325 586.46564 313.21564Q586.46564 311.09064 585.96564 310.40314Q585.48126 309.7 584.73126 309.7Q584.0125 309.7 583.575 310.3094Q583.02814 311.09064 583.02814 313.21564ZM588.95 313.21564Q588.95 311.6844 589.2625 310.7625Q589.575 309.825 590.1844 309.325Q590.8094 308.825 591.7469 308.825Q592.4344 308.825 592.95 309.10626Q593.48126 309.3875 593.825 309.91876Q594.16876 310.4344 594.35626 311.1844Q594.54376 311.9344 594.54376 313.21564Q594.54376 314.73126 594.23126 315.65314Q593.9344 316.575 593.3094 317.09064Q592.7 317.59064 591.7469 317.59064Q590.5125 317.59064 589.79376 316.7Q588.95 315.6375 588.95 313.21564ZM590.02814 313.21564Q590.02814 315.325 590.52814 316.02814Q591.02814 316.73126 591.7469 316.73126Q592.48126 316.73126 592.96564 316.02814Q593.46564 315.325 593.46564 313.21564Q593.46564 311.09064 592.96564 310.40314Q592.48126 309.7 591.73126 309.7Q591.0125 309.7 590.575 310.3094Q590.02814 311.09064 590.02814 313.21564Z" fill-rule="nonzero"/><path fill="#757575" d="M19.128124 33.4875L20.83125 33.253124Q20.909374 34.89375 21.45625 35.503124Q22.003124 36.096874 22.971874 36.096874Q23.675 36.096874 24.190624 35.784374Q24.70625 35.45625 24.89375 34.89375Q25.096874 34.33125 25.096874 33.096874L25.096874 23.2375L27.003124 23.2375L27.003124 32.9875Q27.003124 34.784374 26.565624 35.76875Q26.128124 36.753124 25.175 37.284374Q24.2375 37.8 22.971874 37.8Q21.096874 37.8 20.08125 36.721874Q19.08125 35.628124 19.128124 33.4875ZM29.221874 32.3625Q29.221874 29.4875 30.815624 28.096874Q32.159374 26.940624 34.08125 26.940624Q36.221874 26.940624 37.565624 28.346874Q38.925 29.753124 38.925 32.221874Q38.925 34.221874 38.33125 35.378124Q37.7375 36.51875 36.58125 37.159374Q35.440624 37.784374 34.08125 37.784374Q31.89375 37.784374 30.55 36.39375Q29.221874 34.9875 29.221874 32.3625ZM31.01875 32.3625Q31.01875 34.3625 31.878124 35.346874Q32.753124 36.33125 34.08125 36.33125Q35.39375 36.33125 36.253124 35.346874Q37.128124 34.346874 37.128124 32.3Q37.128124 30.378124 36.253124 29.39375Q35.378124 28.39375 34.08125 28.39375Q32.753124 28.39375 31.878124 29.39375Q31.01875 30.378124 31.01875 32.3625ZM40.878124 25.253124L40.878124 23.2375L42.64375 23.2375L42.64375 25.253124L40.878124 25.253124ZM40.878124 37.55L40.878124 27.175L42.64375 27.175L42.64375 37.55L40.878124 37.55ZM44.8625 37.55L44.8625 27.175L46.45625 27.175L46.45625 28.659374Q47.596874 26.940624 49.753124 26.940624Q50.690624 26.940624 51.471874 27.284374Q52.26875 27.6125 52.659374 28.159374Q53.05 28.70625 53.20625 29.45625Q53.3 29.95625 53.3 31.175L53.3 37.55L51.534374 37.55L51.534374 31.2375Q51.534374 30.159374 51.33125 29.628124Q51.128124 29.096874 50.596874 28.784374Q50.08125 28.471874 49.378124 28.471874Q48.253124 28.471874 47.440624 29.190624Q46.628124 29.89375 46.628124 31.878124L46.628124 37.55L44.8625 37.55ZM68.8 31.940624L68.8 30.253124L74.8625 30.2375L74.8625 35.55Q73.45625 36.675 71.97188 37.2375Q70.4875 37.8 68.925 37.8Q66.81563 37.8 65.09688 36.89375Q63.378124 35.9875 62.4875 34.284374Q61.6125 32.565624 61.6125 30.45625Q61.6125 28.3625 62.4875 26.565624Q63.3625 24.753124 65.00313 23.878124Q66.64375 22.9875 68.78438 22.9875Q70.33125 22.9875 71.58125 23.4875Q72.84688 23.9875 73.55 24.89375Q74.26875 25.784374 74.64375 27.2375L72.94063 27.70625Q72.6125 26.6125 72.12813 25.9875Q71.65938 25.3625 70.76875 24.9875Q69.87813 24.6125 68.8 24.6125Q67.4875 24.6125 66.53438 25.003124Q65.59688 25.39375 65.01875 26.05Q64.44063 26.690624 64.1125 27.45625Q63.565624 28.784374 63.565624 30.346874Q63.565624 32.253124 64.22188 33.55Q64.89375 34.83125 66.14375 35.45625Q67.40938 36.08125 68.81563 36.08125Q70.05 36.08125 71.22188 35.6125Q72.39375 35.14375 73.00313 34.596874L73.00313 31.940624L68.8 31.940624ZM77.84688 37.55L77.84688 27.175L79.425 27.175L79.425 28.753124Q80.03438 27.64375 80.55 27.3Q81.06563 26.940624 81.675 26.940624Q82.56563 26.940624 83.4875 27.503124L82.87813 29.14375Q82.2375 28.753124 81.59688 28.753124Q81.01875 28.753124 80.55 29.1125Q80.09688 29.45625 79.89375 30.065624Q79.6125 31.003124 79.6125 32.1125L79.6125 37.55L77.84688 37.55ZM84.22188 32.3625Q84.22188 29.4875 85.81563 28.096874Q87.15938 26.940624 89.08125 26.940624Q91.22188 26.940624 92.56563 28.346874Q93.925 29.753124 93.925 32.221874Q93.925 34.221874 93.33125 35.378124Q92.7375 36.51875 91.58125 37.159374Q90.44063 37.784374 89.08125 37.784374Q86.89375 37.784374 85.55 36.39375Q84.22188 34.9875 84.22188 32.3625ZM86.01875 32.3625Q86.01875 34.3625 86.87813 35.346874Q87.75313 36.33125 89.08125 36.33125Q90.39375 36.33125 91.25313 35.346874Q92.12813 34.346874 92.12813 32.3Q92.12813 30.378124 91.25313 29.39375Q90.37813 28.39375 89.08125 28.39375Q87.75313 28.39375 86.87813 29.39375Q86.01875 30.378124 86.01875 32.3625ZM102.65938 37.55L102.65938 36.01875Q101.45625 37.784374 99.37813 37.784374Q98.45625 37.784374 97.65938 37.440624Q96.8625 37.08125 96.47188 36.55Q96.09688 36.01875 95.94063 35.2375Q95.83125 34.721874 95.83125 33.596874L95.83125 27.175L97.58125 27.175L97.58125 32.925Q97.58125 34.3 97.69063 34.784374Q97.8625 35.471874 98.39375 35.878124Q98.94063 36.26875 99.72188 36.26875Q100.51875 36.26875 101.20625 35.8625Q101.90938 35.45625 102.19063 34.76875Q102.4875 34.065624 102.4875 32.7375L102.4875 27.175L104.2375 27.175L104.2375 37.55L102.65938 37.55ZM106.8625 41.51875L106.8625 27.175L108.47188 27.175L108.47188 28.51875Q109.03438 27.7375 109.7375 27.346874Q110.45625 26.940624 111.47188 26.940624Q112.8 26.940624 113.81563 27.628124Q114.83125 28.315624 115.34688 29.565624Q115.87813 30.8 115.87813 32.284374Q115.87813 33.878124 115.3 35.159374Q114.7375 36.425 113.64375 37.1125Q112.55 37.784374 111.34688 37.784374Q110.47188 37.784374 109.76875 37.409374Q109.08125 37.034374 108.62813 36.471874L108.62813 41.51875L106.8625 41.51875ZM108.45625 32.425Q108.45625 34.425 109.26875 35.378124Q110.08125 36.33125 111.2375 36.33125Q112.40938 36.33125 113.2375 35.346874Q114.08125 34.3625 114.08125 32.26875Q114.08125 30.3 113.25313 29.315624Q112.44063 28.315624 111.31563 28.315624Q110.19063 28.315624 109.31563 29.378124Q108.45625 30.425 108.45625 32.425Z" fill-rule="nonzero"/></svg>